<?xml version="1.0" standalone="no"?>
<!DOCTYPE svg PUBLIC "-//W3C//DTD SVG 1.1//EN" "http://www.w3.org/Graphics/SVG/1.1/DTD/svg11.dtd" >
<svg xmlns="http://www.w3.org/2000/svg">
<metadata></metadata>
<defs>
<font id="block_bertholdregular" horiz-adv-x="811" >
<font-face units-per-em="2048" ascent="1638" descent="-410" />
<missing-glyph horiz-adv-x="425" />
<glyph horiz-adv-x="0" />
<glyph unicode="&#xd;" horiz-adv-x="425" />
<glyph unicode=" "  horiz-adv-x="425" />
<glyph unicode="&#x09;" horiz-adv-x="425" />
<glyph unicode="&#xa0;" horiz-adv-x="425" />
<glyph unicode="!" horiz-adv-x="425" d="M49 47q0 8 1 14.5t1 14.5q0 16 1 39.5t1 68.5v36t-2 36q0 4 -1 22.5t-1 24.5q0 23 14.5 37t28.5 14q4 0 8 -1t9 -1q4 0 16 -1t27.5 -2t30 -1h22.5h21.5t34 1t34.5 1h22q18 0 29.5 -7t16 -16.5t5.5 -19.5t1 -16q0 -8 -1 -38t-1 -40v-45q0 -6 1 -22.5t1 -35t1 -35t1 -22.5 q0 -33 -17.5 -45t-38.5 -12q-6 0 -13 1t-13 1q-20 4 -41 4h-41h-20.5t-31 -1t-30.5 -1h-21q-41 0 -48 15.5t-7 31.5zM51 1397q0 39 25.5 45t56.5 6q10 0 43 -2t43 -2q6 0 21.5 1t34 2t35 2t22.5 1q39 0 54 -15.5t15 -35.5q0 -10 -3 -38t-6 -59.5t-6 -60.5t-3 -41 q-6 -66 -8 -132.5t-6 -131.5q0 -23 -5.5 -80t-11.5 -122.5t-11 -125t-5 -84.5q-2 -10 -2 -20v-21q-2 -16 -10.5 -37.5t-40.5 -21.5h-22.5t-35 1t-35 1h-22.5q-23 0 -45.5 3t-28.5 24v17v29.5t1 31t1 20.5q0 41 -4 113.5t-14 150.5q-4 49 -7 102.5t-8 106.5q0 10 -2 49t-4 82 t-3 80t-1 45q0 14 1 27.5t1 27.5q0 6 -2 31t-2 31z" />
<glyph unicode="&#x22;" horiz-adv-x="724" d="M10 1378.5v16.5q0 39 15.5 65.5t38 43t49 23.5t51.5 7q18 0 42.5 -6t46 -20.5t36 -40t14.5 -64.5v-14.5t-4 -18.5l-109 -534h-63l-113 512q-4 16 -4 30.5zM436 1378.5v16.5q0 39 15.5 65.5t38 43t49 23.5t51.5 7q18 0 42.5 -6t46 -20.5t36 -40t14.5 -64.5v-14.5t-4 -18.5 l-109 -534h-63l-113 512q-4 16 -4 30.5z" />
<glyph unicode="$" horiz-adv-x="768" d="M61 98v17.5t1 34t1 36v21.5q0 8 -1 33.5t-1 33.5v18.5t2 18.5q2 8 3 31q0 14 9 24.5t21.5 17.5t23.5 10t13 3q8 0 13.5 -3t21.5 -13q6 -4 21.5 -12.5t35 -15.5t40 -12t38.5 -5q37 0 58.5 13t33 31.5t13.5 35t2 22.5q0 35 -15.5 56.5t-52.5 60.5q-80 82 -133 145.5 t-85 122t-46.5 118.5t-14.5 138q0 18 2.5 56.5t13.5 84.5t35.5 92t69.5 81q33 27 72 42t57 17q10 2 13.5 4t5.5 14v119q0 88 45 88q16 -2 26 -2q10 -2 17.5 -2h9.5q23 0 36 -9t13 -36v-14t-1 -26.5t-1 -28v-17.5t1 -18.5t1 -18.5t-1 -12t-1 -12q0 -8 5 -9.5t24 -1.5 q8 0 24.5 -1t35 -2t34.5 -4t27 -5q33 -12 40 -35.5t7 -40.5v-112q0 -6 1 -31t1 -33t-2 -19t-10 -24q-10 -14 -31 -22t-37 -8q-6 0 -10 1t-21 9q-8 4 -35.5 13t-60.5 9q-35 0 -53.5 -10t-27.5 -23.5t-11 -26.5t-2 -20q0 -35 26 -71q2 -4 10.5 -12.5l17.5 -17.5t17.5 -18.5 t12.5 -13.5q82 -90 136 -155.5t86 -126t45 -122t13 -142.5q0 -96 -22.5 -154.5t-50.5 -97.5q-23 -29 -49.5 -51.5t-51 -40t-44 -26.5t-25.5 -11q-14 -4 -15 -7q-2 -2 -3 -4t-1 -12v-29.5v-56.5v-27.5t-1 -36t-4 -35t-7 -22.5q-8 -10 -21.5 -12t-70.5 -2q-31 0 -37 16.5 t-6 24.5v20.5t1 30.5t1 30.5v20.5q0 4 -1 19.5t-1 19.5t2 12.5t2 12.5q0 8 -17 10q-47 2 -80.5 8t-74.5 17q-49 10 -75 22t-26 53z" />
<glyph unicode="%" horiz-adv-x="1449" d="M35 883v21.5t1 32.5t1 32.5v21.5v94q0 66 3 110t11 74.5t19.5 52t27.5 42.5q53 61 106.5 75.5t108.5 14.5q6 0 24.5 -3t22.5 -3q27 -4 35 -6t21 -8q41 -18 63.5 -45t44.5 -82q10 -25 16.5 -51.5t10.5 -76t5 -133t1 -225.5q0 -57 -12.5 -110.5t-44.5 -100.5 q-35 -53 -93.5 -74.5t-123.5 -21.5q-74 0 -129.5 29.5t-83.5 95.5q-10 25 -16.5 57.5t-10.5 67.5t-6 65.5t-2 53.5zM242 1160.5q0 -19.5 1 -43t1 -44v-29.5v-29.5t1 -46t1 -47v-30.5v-16.5t-1 -26.5t-1 -26.5v-18.5q0 -8 1 -21.5t6 -27t15 -23.5t31 -10q16 0 35.5 17.5 t19.5 45.5q0 4 -2 25.5t-2 28.5v20t1 31.5t1 33v21.5v42t-1 64.5t-1 66.5v44q0 14 -1 30.5t-6 31t-17 22.5t-35 8q-10 0 -28.5 -10t-18.5 -55v-27.5zM502 29q0 10 2 16l6 31q4 23 11 45t11 45q4 12 5.5 24.5t3.5 24.5q4 18 9 34.5t9 35.5q2 10 2 20t2 21q0 4 5 28.5t11.5 53 t12.5 54t6 32.5q4 16 8 32.5t8 32.5t6.5 34.5t6.5 35.5q2 16 6 40.5t9 50t11 49.5t11 38q10 43 16 65.5t10 57.5q4 12 6 24.5t4 24.5q4 20 5 35q0 2 4 21.5t10 48t13 60.5t13 58q2 8 7.5 33t9.5 50.5t9 49t7 33.5l13 49q2 8 6 19.5t22 11.5l29 -4q10 -2 21.5 -2h15.5 q8 0 14 2h12q12 0 20.5 -11.5t8.5 -21.5q0 -8 -6 -31.5t-13.5 -49t-13.5 -47t-8 -28.5q-8 -29 -12 -59.5t-8 -60.5q-10 -70 -25.5 -143.5t-26.5 -123.5q-2 -8 -5 -27.5t-8 -42t-9 -43t-6 -28.5q-8 -29 -17.5 -54.5t-17.5 -54.5q-4 -14 -12.5 -64t-18.5 -105.5t-18 -100.5 t-8 -49q-2 -16 -4.5 -33.5t-6.5 -34.5q-2 -10 -5 -28.5t-8 -39t-9 -40t-6 -27.5q-12 -51 -19.5 -70.5t-27.5 -19.5q-4 0 -15.5 1t-15.5 1q-6 0 -25.5 -1t-23.5 -1q-16 0 -27.5 3.5t-11.5 19.5zM889 332v211q0 57 3 99t9 74t18.5 56.5t30.5 46.5q35 41 82 67.5t125 26.5 q59 0 97 -16t61.5 -37.5t35 -44t17.5 -35.5q8 -20 15.5 -40.5t12.5 -56.5t8 -91t3 -146v-21t-1 -32.5t-1 -33v-21.5v-55q0 -61 -14.5 -121t-53.5 -107q-20 -25 -46.5 -41t-54.5 -25t-54.5 -12.5t-46.5 -3.5q-53 0 -88 13.5t-54 25.5q-35 23 -52 52.5t-21 37.5 q-6 12 -18.5 68.5t-12.5 161.5zM1094 270q0 -31 8 -59.5t45 -28.5q16 0 35.5 14.5t19.5 49.5q-2 35 -2 46v40v55v86v86v57q0 29 -2 42.5t-6 23.5q-16 31 -49 31q-14 0 -30.5 -14.5t-16.5 -45.5q0 -27 -1 -63.5t-1 -65.5q0 -8 1 -29.5t1 -46t1 -46t1 -29.5q0 -6 -1 -20.5 t-1 -31t-1 -31t-1 -20.5z" />
<glyph unicode="&#x26;" horiz-adv-x="1024" d="M25 442q0 47 7 92.5t25 86.5q10 25 26.5 51t37 52t41 47.5t39.5 35.5q23 18 37 30.5t14 22.5q0 6 -4 12.5t-23 34.5q-16 25 -39.5 75t-23.5 116q0 27 10 86t39 108q41 68 114.5 110t151.5 42q4 0 24.5 -1t49.5 -5t61.5 -13.5t61.5 -23.5q12 -6 36.5 -23.5t48 -48.5 t41 -76t17.5 -106q0 -100 -31.5 -159.5t-66.5 -106.5q-10 -12 -24.5 -29.5t-31 -36t-32 -36t-27.5 -27.5q16 -23 45 -73t58 -112q10 14 20 37t10 62q0 4 -1 19t-1 20q0 20 13.5 35.5t29.5 19.5q6 2 26.5 3t45 1h47.5h31q10 0 24.5 -1t26.5 -7t21.5 -18.5t9.5 -35.5 q0 -2 -2 -17t-4.5 -33.5t-5.5 -34t-3 -19.5q-6 -45 -16 -88t-27 -84q-6 -14 -13 -32.5t-16.5 -37t-18.5 -34t-17 -23.5q-12 -14 -15.5 -18.5t-3.5 -10.5q0 -10 13 -26q23 -33 47 -80t45 -82q14 -20 14 -39q0 -33 -26.5 -40t-51.5 -7q-6 0 -20.5 1t-29.5 1t-29.5 1t-20.5 1 h-51q-4 -2 -20.5 -3t-20.5 -1q-16 0 -30.5 12t-22.5 25q-8 12 -11 12q-4 0 -13 -8t-13 -10q-29 -16 -73 -31.5t-116 -15.5t-114.5 11t-71.5 21q-18 6 -45 20.5t-64 55.5q-70 76 -94 160t-24 194zM328 430q0 -29 11 -54.5t27.5 -45t36 -31.5t35.5 -12q31 0 45.5 12t18.5 18 l-123 234q-16 -23 -33.5 -52.5t-17.5 -68.5zM434 1126q0 -35 16.5 -67.5t32.5 -61.5q23 20 52.5 55t29.5 81q0 23 -14 46t-55 23q-35 0 -48.5 -26.5t-13.5 -49.5z" />
<glyph unicode="'" horiz-adv-x="342" d="M27 1378.5v16.5q0 39 15 65.5t37.5 43t49.5 23.5t51 7q18 0 43 -6t46.5 -20.5t35.5 -40t14 -64.5v-14.5t-4 -18.5l-108 -534h-64l-112 512q-4 16 -4 30.5z" />
<glyph unicode="(" horiz-adv-x="555" d="M61 672q0 121 14.5 218t35 173t45 129t47.5 88q16 23 49 63.5t94 75.5q31 16 72 27.5t76 11.5q29 0 33.5 -13t4.5 -30v-46t1.5 -70.5t1.5 -70.5v-48q0 -31 -4.5 -39t-26.5 -27q-23 -16 -41.5 -43t-28.5 -55q-18 -45 -27.5 -111.5t-11.5 -113.5v-40t-2 -42q0 -6 -1 -20.5 t-1 -31t-1 -32t-1 -21.5q0 -117 8.5 -190.5t22.5 -119.5t34.5 -69.5t45.5 -42.5q16 -14 24 -26.5t8 -49.5q0 -6 -1 -32.5t-1 -34.5q0 -10 1 -42t1 -42q0 -4 -1 -23.5t-1 -23.5t1 -16.5t1 -16.5q0 -16 -7 -26.5t-27 -10.5h-52q-20 0 -59 13.5t-83 45t-87 84t-70 128.5l-18 55 q-8 27 -13 42t-9.5 27.5t-7.5 22.5t-5 27q-10 43 -21.5 130t-11.5 259z" />
<glyph unicode=")" horiz-adv-x="555" d="M14 119q0 23 5.5 32t19.5 23q37 31 52 51.5t26 55.5q27 74 32 137t7 135q0 8 1 27.5t2 41t2 42t1 28.5q0 113 -7.5 185.5t-21.5 118.5t-33.5 71t-44.5 43q-23 16 -30 27.5t-5 40.5v30.5t-1 48t-1 48v32.5q0 6 1 23.5t1 23.5q0 4 -1 17.5t-1 17.5q0 20 10.5 28.5t22.5 8.5 q6 0 26.5 1t26.5 1q35 0 80 -22.5t74 -44.5q59 -49 95 -104.5t59 -123.5q4 -16 12 -38.5t14 -39.5q4 -12 7.5 -25t7.5 -28q12 -57 19 -108.5t11 -100.5t5 -98t1 -104q0 -51 -5 -148.5t-38 -216.5q-6 -20 -14 -47t-18.5 -54.5t-20.5 -53t-20 -42.5q-29 -51 -50.5 -80.5 t-60.5 -62.5q-35 -29 -66.5 -45t-59 -23.5t-50.5 -8.5t-37 -1q-23 0 -27 13.5t-4 46.5q0 2 -1 34.5t-1 72.5t-1 75t-1 39z" />
<glyph unicode="*" horiz-adv-x="598" d="M-4 1083q0 10 11 16.5t26 10.5q2 0 14 7t26.5 14.5t27 14.5t12.5 11v2q-2 0 -23.5 11.5t-34.5 17.5q-41 18 -48 23.5t-7 11.5q0 4 2 9t16 21q6 8 15.5 23.5t18.5 33t17.5 34t12.5 24.5q2 14 10 14q10 0 19.5 -7t13.5 -11q29 -23 52.5 -39t27.5 -16q6 0 6 12q0 6 -2 22.5 t-3 35t-3 32.5l-2 14q0 16 4 19.5t10 3.5h8q8 -2 17.5 -3t25 -1h43h72.5q12 0 12 -14q0 -6 -4 -27q0 -6 -1 -30.5t-1 -31.5q0 -8 2 -16t6 -8q4 2 8 6t7.5 5t7.5 5q6 4 11 6t9 7q2 0 10.5 7t19.5 15t20.5 14.5t11.5 6.5q4 0 7 -5.5l15 -27.5q31 -57 48.5 -84t19.5 -31 q6 -10 6 -14q0 -12 -11.5 -18.5t-27.5 -10.5q-20 -8 -43 -22q-4 -4 -20.5 -10.5t-16.5 -10.5t11.5 -9t25.5 -11.5t27.5 -11.5t17.5 -7q6 -4 11 -6l10 -4q18 -6 18 -14t-12 -23q0 -2 -6.5 -11t-12.5 -19.5t-12 -20.5t-8 -12q-8 -12 -14.5 -25.5t-12.5 -24.5 q-10 -23 -13 -27.5t-7 -4.5q-6 0 -25.5 14t-25.5 20q-4 4 -21.5 13.5t-21.5 13.5q-8 8 -13 8q-4 0 -5 -8t-1 -14t3 -32t3 -34q0 -4 2 -14t2 -14q0 -16 -14 -17q-4 0 -11 1t-12 1q-8 0 -33.5 1t-35.5 1t-41 -2t-39 -2q-14 0 -14 12q0 2 2 17.5t3 33t3 35t2 23.5q0 16 -4 16 t-27.5 -16t-46.5 -37q-18 -16 -23.5 -19t-9.5 -3q-6 0 -9 5t-11 27q-6 10 -17.5 30t-22.5 38t-20.5 32.5t-11.5 16.5q-6 6 -7 8t-1 4z" />
<glyph unicode="," horiz-adv-x="382" d="M29 57q0 6 1 24.5t1 40t1 40t1 26.5q0 4 -1 18.5t-1 30t-1 29t-1 19.5q0 27 7 41t17 21t21.5 8t19.5 1q10 0 39 -2t39 -2q6 0 20.5 1t32 3t31.5 3t20 1q43 0 60.5 -23.5t17.5 -49.5v-193q0 -33 -7 -85t-54 -124q-16 -29 -33.5 -38t-36.5 -9q-6 0 -27.5 1t-27.5 1h-25 q-6 0 -30.5 -1t-30.5 -1q-8 0 -21.5 3t-13.5 20q0 20 6 26.5t19 14.5q12 8 23 19t11 36q0 18 -9 27.5t-13 11.5q-10 4 -19.5 7t-17.5 9q-14 10 -16 22.5t-2 22.5z" />
<glyph unicode="-" horiz-adv-x="468" d="M14 479.5v28.5v23.5v37v37v25.5q0 41 8.5 64.5t38.5 23.5q8 0 32 -1t32 -1h57h30.5t31.5 -2q14 0 28.5 -1t28.5 -1q6 0 22.5 1t34 2t31.5 2l14 1q18 0 37 -13.5t19 -39.5q0 -4 -1 -15.5t-1 -25t-1 -24.5t-1 -17v-72q0 -29 -3 -48.5t-22 -29.5q-10 -6 -22.5 -7t-63.5 -1 q-20 2 -49 1t-49 -1q-4 0 -23.5 2t-23.5 2t-22.5 -1t-24.5 -1q-10 0 -20.5 1t-20.5 1q-6 0 -25.5 -2t-24.5 -2q-18 0 -28 7t-14.5 19.5t-4.5 27z" />
<glyph unicode="." horiz-adv-x="382" d="M29 47q0 10 2 42t2 42v72t-2 59q0 8 -1 15.5t-1 13.5q0 27 9 41t38 14h16q10 -2 28.5 -2h72.5h25t26 2q12 0 24.5 1t24.5 1t19 -1t12 -3q4 -2 15 -13.5t11 -31.5q0 -4 -1 -6t-1 -6q0 -16 -1 -46t-1 -57v-20t1 -31.5t1 -33v-21.5q0 -39 -9 -61.5t-44 -20.5q-12 0 -29.5 1 t-37 1h-38h-30.5q-10 0 -40 -2t-40 -2q-16 0 -33.5 9t-17.5 44z" />
<glyph unicode="/" horiz-adv-x="681" d="M0 29q0 20 8 44.5t19 53.5q8 23 30.5 79t46 119.5t45 120t29.5 78.5q20 51 45 116t50.5 131.5t50 131t45.5 115.5q16 41 36.5 93t41 106.5t41 106.5t36.5 93t26.5 58.5t31.5 17.5l9 -3t21.5 -7t23.5 -7t15 -6q10 -4 22.5 -14t12.5 -37q0 -12 -6 -26q-4 -12 -28.5 -76 t-61.5 -162t-83 -219t-94 -247t-94.5 -245.5t-83 -216t-60 -158t-25.5 -69.5q-4 -12 -13.5 -27.5t-34.5 -15.5q-4 0 -16 4q-10 4 -20.5 8t-20.5 8q-25 10 -35 18.5t-10 33.5z" />
<glyph unicode="0" horiz-adv-x="894" d="M55 700v33t1 52.5t1 52v34.5v99q0 141 34 234t87 151q10 12 30.5 31.5t52.5 38t76 31.5t99 13q35 0 80 -6t91 -24.5t88 -51t71 -85.5q25 -45 39 -107.5t21.5 -128.5t9.5 -130.5t2 -115.5q0 -66 -1 -131t-3 -131q-2 -96 -8.5 -178t-30.5 -148q-23 -51 -63 -99t-83 -77 q-35 -23 -94 -44t-125 -21q-59 0 -113.5 15.5t-101.5 49.5q-41 29 -83 105t-58 180q-6 31 -9.5 86t-5.5 110.5t-3 101.5t-1 60zM381 473q0 -66 9 -112t56 -46q51 0 62 64q2 8 1 36.5t-1 39.5v194q0 12 -1 42t-1 63.5t-1 64.5t-1 43q0 6 1 24.5t2 40t2 40t1 26.5 q0 23 -1 48.5t-7 47t-20.5 35t-39.5 13.5q-37 0 -49 -30t-12 -63q0 -10 1 -37.5t1 -37.5q0 -8 -1 -36t-1 -36v-424z" />
<glyph unicode="1" horiz-adv-x="854" d="M66 1055q0 16 7 26.5t17 20.5q10 12 26.5 29.5t26.5 29.5q6 8 22.5 27.5t34 43t34 44t24.5 29.5q4 4 16.5 17t26.5 27.5t26.5 27t16.5 18.5q18 23 35.5 37t42.5 14l14 -1q15 -1 33 -1t33.5 -1t19.5 -1q10 -2 42 -1t42 1t22.5 -1t23 -7.5t16.5 -20.5t6 -41q0 -10 -1 -22.5 t-1 -34.5q-2 -27 -3 -59.5t-1 -62.5v-49.5v-21.5v-21.5t1 -32.5t1 -33.5v-22.5t-1 -25.5t-1 -41t-1 -41t-1 -27.5q0 -6 1 -22.5t1 -35t1 -35t1 -22.5t-1 -23.5t-1 -37t-1 -37t-1 -23.5q0 -10 1 -39t1 -61.5t1 -61t1 -41.5q0 -8 -1 -27.5t-2 -42t-2 -43t-1 -28.5t1 -31.5 t2 -50.5t2 -50.5t1 -33.5q0 -35 -1 -55.5t-2 -31.5t-4.5 -17.5t-7.5 -12.5q-8 -10 -17 -14t-44 -4q-4 0 -16.5 1t-25.5 1t-25.5 1t-18.5 1h-22.5h-35h-35h-22.5q-8 0 -18 1t-19.5 7t-15.5 20.5t-6 39.5q0 4 1 18t2 31.5t2 32t1 18.5q2 27 2 52.5v51.5v82q0 88 2 175t2 173 q2 47 1 92.5t1 90.5v21.5t1 32.5t1 33.5v22.5q0 4 1 18.5t1 16.5q0 8 -6 8q-10 0 -24 -20q-6 -8 -19 -21q-20 -25 -41 -55q-8 -12 -18.5 -24.5t-24.5 -12.5q-16 0 -27.5 10.5t-25.5 24.5q-8 8 -18.5 17.5t-45.5 37.5q-16 14 -26 28t-10 32z" />
<glyph unicode="2" d="M14 209v18q0 14 1 23.5t6.5 16.5t13.5 16.5t22 21.5q33 29 66 63.5t61 75.5q6 6 11.5 12.5t9.5 12.5q12 16 20 25.5t13.5 16.5t9.5 12t8 14q10 16 17.5 31.5t17.5 31.5q14 23 27.5 42.5t25.5 41.5q14 23 26.5 47.5t24.5 46.5q10 20 19.5 40t15.5 49.5t10 71.5t4 108 q0 39 -12 70.5t-51 31.5q-25 0 -40 -15.5t-22.5 -39t-10.5 -52t-3 -55.5q0 -18 2 -29q0 -10 2 -18t2 -18q0 -2 -2 -11.5t-8 -19.5t-19.5 -19.5t-37.5 -9.5h-133q-29 0 -45.5 4t-23.5 16.5t-8 36t-1 62.5t3 81t7 73q0 4 3 21.5t6 35.5t6 33.5t3 17.5q8 29 25.5 59.5 t40.5 55.5q29 31 64.5 50t73.5 30.5t73 15.5t63 4q35 0 68 -5t63 -19q6 -2 18.5 -7.5t27 -12.5t26.5 -13t17 -8q18 -12 44.5 -39t50 -71t40 -109.5t16.5 -153.5v-28.5t-1 -39t-3 -40t-4 -27.5q-2 -6 -4 -12.5t-4 -10.5q-2 -10 -2 -17v-16q-2 -6 -7.5 -22t-12.5 -37.5 t-17 -45.5t-23 -42q-6 -10 -12 -21.5t-12 -23.5q-8 -14 -14.5 -27.5t-12.5 -25.5q-20 -39 -48 -80t-54.5 -76t-49 -59.5t-30.5 -32.5q-4 -4 -9.5 -6t-5.5 -6q0 -8 58 -9q6 0 18.5 -1t26.5 -1t26.5 -1t18.5 -1t20.5 1t29.5 3t29.5 3t20.5 1q37 0 54.5 -14t17.5 -59 q0 -6 -1 -19.5t-2 -29t-2 -28.5t-1 -19q0 -8 1 -32t1 -32q0 -31 -8.5 -59.5t-51.5 -28.5q-8 0 -15 1t-17 3q-31 4 -69 4h-75q-8 0 -28.5 -1t-43 -1t-44 -1t-29.5 -1q-45 0 -89 2t-87 2q-8 0 -27.5 -1t-41 -1t-41 -1t-27.5 -1q-35 0 -43.5 22.5t-8.5 59.5v55v16.5t-1 27 t-1 26.5z" />
<glyph unicode="3" horiz-adv-x="854" d="M6 176q0 12 4 22.5t27 41.5q16 23 26.5 37t17.5 26t14 23.5t18 29.5q18 31 26 37t39 6q20 0 28.5 -6t24.5 -28q16 -20 42 -34t59 -14q10 0 42 6.5t54 32.5q10 14 16.5 34t9.5 39.5t3 33.5v18q0 23 -5.5 48.5t-18.5 47t-35.5 36t-57.5 14.5q-8 0 -37 -4.5t-39 -4.5 q-12 0 -34.5 11.5t-22.5 50.5q0 8 1 32.5t1 32.5q0 6 -1 21.5t-2 34t-2 34t-1 21.5q0 31 16.5 51.5t44.5 20.5q6 0 25.5 -3t25.5 -3q70 0 113 53q6 8 15.5 25.5t9.5 52.5q0 41 -30 73.5t-79 32.5q-43 0 -78 -26q-12 -8 -16 -13.5t-14 -25.5q-8 -14 -16.5 -17.5t-16.5 -3.5 q-20 0 -29.5 10.5t-23.5 30.5q-2 2 -13.5 17.5t-25 31t-24.5 28.5l-11 13q-16 18 -22.5 28.5t-6.5 31.5q0 23 5 33t18 22q14 14 22 23.5t16.5 15.5t17.5 13t26 18q41 29 82.5 43t74.5 22q37 8 72 10q10 0 29.5 -1t27.5 -1q10 -2 23.5 -4t21.5 -2q4 0 21.5 -3t43 -12 t56.5 -25.5t60 -45.5q20 -23 37.5 -47.5t28.5 -46t17.5 -36.5t6.5 -17q6 -16 11 -59.5t5 -82.5q0 -55 -10 -86.5t-21 -54.5q-27 -55 -53 -80t-55 -45q6 -6 26.5 -22.5t26.5 -22.5q16 -14 40 -43t36 -53q12 -31 26.5 -83t14.5 -116v-67.5t-3 -48t-9.5 -44t-18.5 -53.5 t-21.5 -52.5t-19.5 -36.5t-22.5 -30.5t-28.5 -33.5q-31 -33 -54.5 -52.5t-70.5 -38.5q-49 -18 -91 -23t-91 -5q-39 0 -76 4t-72 18q-6 2 -19.5 8.5t-31.5 15.5t-37.5 18t-34.5 20q-33 20 -52 33.5t-28.5 23.5t-11.5 20.5t-2 24.5z" />
<glyph unicode="4" horiz-adv-x="854" d="M29 369q0 8 1 31.5t1 31.5v111v19t4 20q4 16 13 29.5t20 29.5q8 12 14 26.5t12 28.5q18 41 41 98.5t41 98.5q12 31 26.5 61.5t28.5 61.5q8 18 14.5 36.5t16.5 34.5l16.5 33l16.5 33l31 74q25 51 53 100q10 20 26.5 48t20.5 36q8 16 17.5 25.5t37.5 9.5q8 0 14.5 -1 t14.5 -1q10 -2 29.5 -3t60.5 -1q4 0 15.5 1t23.5 1q12 2 23.5 2h15.5q29 0 36 -20.5t7 -39.5v-63q-4 -55 -4 -99v-89v-29t-1 -44.5t-1 -45v-29.5t1 -28.5t1 -44t1 -45t1 -29.5q0 -10 -1 -33t-1 -48.5t-1 -48t-1 -32.5v-47q0 -6 3 -14.5t23 -8.5q6 0 28 1t24 1q29 0 32.5 -15 t3.5 -26q0 -6 -1 -22.5t-1 -36t-1 -36.5t-1 -26q0 -10 1 -43.5t1 -44.5q0 -10 -6 -30.5t-39 -20.5q-4 0 -21.5 2t-21.5 2q-16 0 -21 -11t-5 -69v-46t4 -46q4 -25 4 -34v-31q0 -10 -1 -22.5t-6 -24t-16.5 -19.5t-29.5 -8q-10 0 -17.5 1t-17.5 3q-14 2 -27.5 2h-27.5 q-8 0 -28 -1t-41.5 -1t-42 -1t-28.5 -1q-29 0 -37 22.5t-8 34.5t2 25.5t4 28.5q2 8 1 32.5t-1 32.5q0 6 1 30.5t1 33.5q0 53 -9 64t-50 7h-137q-6 0 -23.5 -1t-38 -2t-38 -2t-23.5 -1t-14.5 1t-17.5 7.5t-15 18.5t-6 35zM264 623q0 -16 16.5 -18.5t51.5 -2.5q41 0 60.5 4 t19.5 27q0 2 -1 25.5t-1 29.5t1 20.5t2 31t2 31.5t1 22v59.5t-2 58.5q0 6 -1 12.5t-1 12.5q0 2 1 8t1 10q0 14 -8 15q-4 0 -6.5 -6.5t-4.5 -12.5q-4 -10 -9 -25.5t-9 -25.5q-25 -66 -41.5 -104.5t-32.5 -75.5q-10 -23 -24.5 -54.5t-14.5 -41.5z" />
<glyph unicode="5" d="M-2 184q0 20 7 32.5t30 47.5q4 6 13 20.5t19.5 31t18.5 30.5t10 19q8 18 20.5 36.5t37.5 18.5q23 0 45 -23q6 -8 10 -15t10 -15q14 -16 44 -33t67 -17q33 0 48 9.5t25 19.5q35 29 43.5 63.5t8.5 75.5t-1 70t-4.5 49.5t-8.5 35.5t-15 32q-39 63 -123 63q-35 0 -65 -12 q-10 -6 -21.5 -14.5t-21.5 -16.5q-16 -10 -29 -10q-8 0 -16.5 4t-40.5 27q-16 8 -17 24v19.5t2 21.5q0 6 1 23.5t1 38t1 39t1 26.5q0 35 -1 67t-1 66v152v45t-2 45q0 2 -1 15.5t-1 29.5q-2 18 -2 41q0 6 1 21.5t11 29.5q2 4 18.5 21.5t33.5 17.5q4 0 19 -1t20 -3 q20 0 33.5 -1t29.5 -1q8 0 26.5 1t40 1t40 1t26.5 1q10 0 39 -1t60.5 -1t61.5 -1t42 -1h34.5t26.5 2q8 2 14.5 3t14.5 1q23 0 36 -14.5t15 -28.5v-29v-15t1 -25.5t1 -26.5v-17q0 -8 1 -33.5t1 -35.5q0 -66 -63 -66q-6 0 -27.5 2t-28.5 2q-6 0 -29.5 -1t-31.5 -1h-25.5 t-25.5 2q-10 0 -39 3.5t-39 3.5q-23 0 -36 -7.5t-19 -19.5t-7 -26.5t-1 -28.5v-20.5t4 -29.5q4 -16 8 -22t20 -6q6 0 25.5 2t26.5 2q51 0 86.5 -8t61.5 -20.5t43 -28t30 -29.5q39 -45 50 -68.5t21 -50.5q14 -41 30.5 -112.5t16.5 -202.5q0 -92 -19 -173t-75 -159 q-16 -23 -42.5 -52.5t-66.5 -57t-95.5 -46t-127.5 -18.5q-51 0 -124.5 15.5t-145.5 64.5q-31 23 -50 38t-28.5 27.5t-12.5 22.5t-3 22z" />
<glyph unicode="6" horiz-adv-x="854" d="M39 623q0 33 2 88t6 96q2 18 6 51t9.5 68t10.5 65.5t9 42.5q6 25 19.5 68t41 92t70.5 99t104 87q43 27 98.5 49.5t151.5 22.5q12 0 34 -1t44.5 -2t43 -4t30.5 -7q35 -16 39 -45t4 -50q-2 -41 -2 -79.5v-79.5v-18.5t-4 -18.5q-4 -4 -18.5 -13.5t-24.5 -9.5q-8 0 -16.5 3 t-16.5 6q-2 2 -27.5 8t-48.5 6q-43 0 -73.5 -9.5t-51 -21.5t-33 -25.5t-18.5 -23.5q-23 -31 -35 -55.5t-16 -46t-4 -37t2 -27.5q27 23 54.5 35t51 17t40 6.5t20.5 1.5q47 0 95 -25t87 -68q29 -33 46 -65.5t26.5 -73.5t11.5 -94t2 -127q0 -86 -4 -140.5t-11.5 -90t-16.5 -58 t-19 -43.5q-8 -18 -27.5 -50t-55.5 -63.5t-92.5 -55t-136.5 -23.5q-94 0 -146 19.5t-83 39.5q-76 47 -113.5 126t-50.5 167q-4 20 -6 62t-4 88t-3 85t-1 52zM371 463q0 -39 1 -74t7 -60.5t20.5 -41t38.5 -15.5q20 0 32.5 9.5t19 21.5t9.5 26.5t5 24.5q0 8 1 16.5t1 24v40 v65.5q0 18 -1 45.5t-8.5 53.5t-21.5 44.5t-41 18.5q-16 0 -30.5 -9.5t-22.5 -31.5q-4 -10 -6 -31t-3 -44.5t-1 -46v-36.5z" />
<glyph unicode="7" horiz-adv-x="768" d="M16 1196q0 10 1 18.5t3 18.5q2 8 4.5 28.5t2.5 53.5q0 6 -2 32.5t-2 34.5q0 35 17 50.5t34 15.5q10 0 16 -2q10 -2 36 -3t46 -1h18.5t27.5 1t28.5 1h19.5q27 0 52.5 -1t52.5 -1q8 0 36.5 1t38.5 1q8 0 34 -1t36 -1h19.5t39 1t40 1h24.5q10 0 21.5 1t21.5 1q6 0 15.5 -1 t18.5 -5t15 -15.5t6 -29.5v-78q0 -29 -5 -44.5t-21 -53.5q-10 -23 -22.5 -62t-16.5 -61q-8 -27 -13.5 -52.5t-11.5 -50.5q-10 -33 -18 -62.5t-17 -62.5q-2 -10 -8 -35.5t-12 -55t-13.5 -56.5t-9.5 -37q-6 -25 -13 -49.5t-13 -48.5q-10 -37 -15.5 -75t-11.5 -75 q-8 -39 -16 -76.5t-15 -76.5q-14 -63 -14 -133q0 -8 1 -36t1 -38q0 -23 -10 -49.5t-57 -26.5h-17.5t-17.5 2q-10 0 -28.5 1t-49.5 1q-6 0 -22.5 -1t-35 -1t-35 -1t-22.5 -1q-27 0 -42 8t-23.5 20.5t-10.5 26t-2 21.5q0 16 4.5 45t8.5 45q4 18 4 24.5t2 22.5q8 63 29.5 146 t43 157t39 127t21.5 62q4 14 9 27t11 28q8 23 14.5 44t12.5 44q14 41 28.5 79t28.5 79q12 31 18.5 50t10.5 30.5t5 18.5t1 15q0 16 -8 20.5t-14 4.5q-4 0 -10.5 -1t-10.5 -1q-12 -2 -24.5 -2h-24.5t-24.5 1t-22.5 1q-6 0 -27.5 -1t-29.5 -1h-17.5t-28 1t-27.5 1h-20h-28 q-6 0 -15.5 1t-18.5 6t-16.5 15.5t-7.5 30.5z" />
<glyph unicode="8" horiz-adv-x="894" d="M39 397v18.5t2 38t5 47t9 46.5q2 10 9.5 27.5t14.5 35t13 31.5t8 21q6 10 34 52t79 93q-72 51 -104.5 124t-32.5 161q0 61 19.5 127.5t64.5 122t118.5 90t180.5 34.5q72 0 142.5 -20.5t119.5 -73.5q70 -76 87 -138.5t17 -119.5q0 -66 -10 -113t-27.5 -83.5t-42 -68.5 t-53.5 -65q27 -25 54.5 -53.5t51 -71.5t39 -102t15.5 -143q0 -35 -5 -81t-28 -106q-16 -45 -36.5 -72.5t-57.5 -60.5q-16 -14 -39.5 -31.5t-56.5 -33t-78 -26.5t-105 -11q-55 0 -101 10t-80 24.5t-55.5 29t-31.5 22.5q-18 14 -42.5 44t-46 70.5t-36 92t-14.5 112.5zM360 438 q0 -20 3.5 -42.5t13.5 -41t26.5 -31t45.5 -12.5q14 0 25 6.5t22 12.5q16 16 25 38.5t9 77.5q0 43 -10 74t-25.5 52.5t-31 35t-23.5 19.5q-23 -27 -51.5 -75t-28.5 -114zM369 1112q0 -6 1 -21.5t10 -36t26.5 -43.5t52.5 -46q20 20 46.5 56t26.5 89q0 14 -4 31.5t-14 33 t-26.5 25.5t-41.5 10q-31 0 -54 -27.5t-23 -70.5z" />
<glyph unicode="9" horiz-adv-x="854" d="M41 940q0 84 4 139.5t12.5 90t17.5 57t19 43.5q12 23 32.5 55.5t56.5 62t89.5 51t128.5 21.5q55 0 126 -13t137 -69q37 -31 60.5 -66.5t38.5 -73.5t23.5 -73t12.5 -61q2 -20 5 -59t5 -80t3 -78t1 -51v-35t-1 -53.5t-2 -56t-3 -44.5q0 -6 -5 -39t-10.5 -70.5t-11.5 -73.5 l-8 -48q-35 -131 -93 -213t-128 -129t-142.5 -64.5t-134.5 -17.5q-10 0 -29.5 1t-41 2t-40 4t-28.5 7q-35 16 -40 44t-5 42v23.5t1 38t1 38v25.5q0 4 -1 23.5t-1 25.5q0 18 8 31q4 4 16.5 13t24.5 9t33 -8q35 -14 78 -14q33 0 63.5 6t59.5 25q47 29 76.5 87t29.5 109 q0 13 -2 19q-47 -39 -96 -49.5t-72 -10.5q-53 0 -108.5 33t-91.5 84q-23 31 -36.5 59.5t-20.5 66.5t-9 89t-2 125zM344 975q0 -88 14.5 -140.5t57.5 -52.5q18 0 35 13q18 16 24 42.5t6 96.5v70.5t-2 66.5q0 8 -2 25.5t-9 33t-20 27.5t-36 12q-37 0 -52 -34q-6 -12 -9 -38 t-5 -51.5t-2 -47v-23.5z" />
<glyph unicode=":" horiz-adv-x="425" d="M51 47q0 6 1 31.5t1 34.5v20t1 30.5t1 32v21.5q0 8 -2 38t-2 40t6 30.5t39 20.5q8 0 35 -1t35 -1h51q6 0 20.5 1t31 1t30.5 1t20 1h12.5t14.5 -4t14.5 -14.5t10.5 -20.5q2 -6 1 -29.5t-1 -31.5v-22.5t-1 -35t-1 -35v-22.5q0 -8 1 -31.5t1 -31.5q0 -41 -12.5 -57.5 t-39.5 -16.5q-4 0 -24.5 1t-26.5 1h-102q-6 0 -30.5 -1t-33.5 -1q-10 0 -30.5 6t-20.5 45zM51 743q0 4 1 16.5t1 26t1 25.5t1 18t-1 24.5t-1 38t-1 38t-1 26.5q0 25 6 38.5t15.5 19.5t20.5 6h22h20.5h31.5h32.5h21.5h16.5t27 1t26.5 1h18q41 0 52.5 -17.5t11.5 -29.5 q0 -10 -2 -14q0 -16 -1 -53.5t-1 -65.5q0 -6 1 -21.5t1 -33t1 -34t1 -22.5q0 -47 -22.5 -54t-37.5 -5h-200q-47 0 -54.5 18.5t-7.5 52.5z" />
<glyph unicode=";" horiz-adv-x="425" d="M51 53q0 8 1 26.5t2 40t2 40t1 26.5q0 6 -1 19.5t-1 30t-1 31t-1 20.5q0 70 66 69q8 0 36.5 -2t39.5 -2q25 0 50 4t52 4q6 0 19.5 -1t26.5 -9t23.5 -23.5t10.5 -45.5q0 -4 -1 -22.5t-1 -22.5q0 -8 2 -33t2 -33q0 -12 -1 -25.5t-1 -27.5q0 -35 -1 -57.5t-4 -41t-8.5 -36 t-15.5 -37.5q-18 -39 -32.5 -60.5t-27 -31t-22.5 -11.5t-20 -2h-103q-4 0 -20.5 -1t-20.5 -1q-10 0 -20 4t-10 21q0 16 6 23.5t22 19.5q8 4 19.5 15t11.5 34q0 16 -8 25.5t-14 13.5q-8 4 -17.5 7t-17.5 9q-16 10 -19.5 22.5t-3.5 20.5zM53 729q0 10 1 20.5t3 20.5 q2 12 2 23.5v23.5v69.5t-4 47.5q0 8 -1 15.5t-1 15.5q0 20 7.5 31.5t16.5 16.5t18 6t16 1q8 0 36.5 -1t36.5 -1q6 0 24.5 1t38 2t38 2t24.5 1q37 0 53.5 -17.5t16.5 -41.5q0 -6 -1 -19.5t-1 -30t-1 -30t-1 -19.5t1 -24.5t1 -39t1 -39t1 -26.5q0 -23 -11.5 -45t-52.5 -22 q-8 0 -35.5 2t-35.5 2q-6 0 -24.5 -1t-38 -2t-38 -2t-26.5 -1q-16 0 -40 10t-24 51z" />
<glyph unicode="?" horiz-adv-x="598" d="M61 1180v33.5v55v56.5v37q0 23 9.5 41t42.5 29q10 4 29.5 7t42 6t46 4t41.5 1q76 0 128.5 -19.5t86 -49t50 -66.5t18.5 -72q0 -4 1 -22.5t2 -40t1 -41v-23.5v-16q-2 -33 -12 -71t-22.5 -71.5t-25 -60.5t-16.5 -37q-14 -29 -27.5 -57.5t-23.5 -57.5q-14 -39 -19 -84 t-5 -100q0 -8 1 -37.5t1 -40.5q0 -51 -21.5 -58t-50.5 -5h-16.5h-26.5h-26.5h-18.5q-63 0 -74 29q-4 4 -11 49t-7 104q0 66 12 132.5t29 131.5q12 47 19 75t11 45.5t5.5 27.5t1.5 20q0 51 -26 68.5t-46 17.5q-12 0 -21 -4q-10 -4 -21 -9t-22 -5q-12 0 -20 6 q-16 12 -18.5 30.5t-0.5 41.5zM129 51q0 16 2 25v26.5t1 45t1 46v27.5q0 8 -1 33t-1 33q0 14 6 38.5t43 24.5q4 0 9.5 -1t11.5 -1q12 -2 25.5 -2h25.5q25 0 58.5 -1t58.5 -1h37q37 0 45 -20.5t8 -36.5q0 -4 -1 -10.5t-1 -10.5q0 -10 -1 -36.5t-2 -57.5t-1 -58.5v-39.5 q0 -18 -2 -33.5t-10.5 -26t-24 -14.5t-45.5 -4h-36h-55.5h-56h-37.5q-41 0 -49 19.5t-8 35.5z" />
<glyph unicode="A" horiz-adv-x="854" d="M-4 45q0 31 8 76t19 86q14 59 24 119.5t21 119.5q6 47 11 91.5t15 89.5q4 25 9.5 49t11.5 47q10 55 20 110.5t23 108.5q8 37 15 74t17 74q10 51 21.5 102t21.5 104l7 43q2 10 4 21.5t4 21.5q4 23 11 43.5t36 20.5q8 0 27.5 -1t42 -1t42 -1t27.5 -1t26.5 1t39 1t39 1 t26.5 1q20 0 34.5 -4t25.5 -27q4 -8 9 -36.5t9 -61.5t8 -63.5t8 -43.5q2 -14 5.5 -26.5t5.5 -26.5q4 -16 6 -32.5t6 -32.5q4 -29 10 -55.5t13 -55.5q14 -66 28.5 -149.5t26.5 -161.5t20 -136.5t11 -72.5q8 -59 16 -119.5t20 -120.5q4 -23 9.5 -47t9.5 -47q4 -10 8 -35.5 t4 -42.5q0 -49 -55 -49q-6 0 -19.5 1t-28 1t-27.5 1t-19 1t-23.5 -1t-36 -3t-35 -3t-22.5 -1q-53 0 -62.5 19.5t-9.5 52.5q0 8 -2 35.5t-2 35.5q0 16 -2 35t-10 35t-23.5 27.5t-42.5 11.5q-8 0 -14 -1l-18 -3q-16 -4 -24.5 -8.5t-19.5 -20.5q-6 -10 -9 -18.5t-4 -21.5 t-2 -36.5t-3 -66.5q0 -12 -2 -24.5t-9 -23t-21.5 -17.5t-41.5 -7q-4 0 -15 1t-24 3q-12 2 -24 2h-39h-30.5t-31.5 -2q-25 -4 -34 -4h-29q-33 0 -40 16.5t-7 28.5zM375 594q0 -20 16.5 -26.5t38.5 -6.5q16 0 35.5 5t19.5 34q0 6 -6 50t-13 95.5t-13.5 93.5t-6.5 46 q0 35 -16 35q-2 0 -5 -12.5t-6 -27t-5 -27.5t-2 -15q-2 -14 -8.5 -52t-12.5 -78t-11 -74t-5 -40z" />
<glyph unicode="B" horiz-adv-x="854" d="M47 1020q0 8 1 31.5t2 50t2 50.5t1 34v27.5t-1 43t-1 44v28.5q0 25 1 46.5t10.5 36.5t29 23.5t55.5 8.5h24.5t35.5 -2q18 0 35.5 -1t23.5 -1q12 0 41 1t62.5 2t63.5 2t42 1q98 0 165 -25.5t106.5 -74t56 -119t16.5 -160.5q0 -68 -16.5 -117t-24.5 -63 q-16 -41 -36.5 -60.5t-34.5 -29.5q29 -25 60.5 -61t53.5 -107q12 -47 16.5 -110.5t4.5 -112.5t-10.5 -109.5t-37 -117t-71.5 -101.5t-115 -64q-20 -6 -56 -8t-77 -4t-82 -2h-67q-6 0 -19.5 1t-28 1t-27.5 1t-20 1q-4 0 -17 -1t-27.5 -1t-28 -1t-19.5 -1q-66 0 -77 23.5 t-11 76.5q0 6 1 23.5t1 38t1 38t1 25.5q0 10 -1 39t-2 60.5t-2 60.5t-1 41v16.5t1 25.5t1 24.5v17.5v80q0 12 1 40.5t1 62.5t1 63.5t1 42.5v55.5t-2 54.5q-4 41 -5 70t-1 41zM367 410q0 -41 7 -73t48 -32q29 0 49.5 15.5t26.5 37.5q8 20 9 60.5t1 81.5q0 16 -2 36.5 t-12 36.5q-12 20 -32 32.5t-40 12.5q-29 0 -42 -19t-13 -50v-139zM369 952q0 -10 5 -21t38 -11q18 0 39 10q16 10 32.5 30.5t16.5 79.5q0 49 -23.5 85t-62.5 36q-31 1 -39 -19q-6 -16 -6 -48v-17v-125z" />
<glyph unicode="C" horiz-adv-x="681" d="M43 723q0 49 2 108.5t6 120.5q2 33 6 71t11.5 78t21.5 81t37 80q25 43 50.5 72.5t51.5 49.5q55 41 106.5 59.5t127.5 18.5q4 0 23.5 -1t44 -2t48 -4t35.5 -7q2 0 11.5 -4t18.5 -12.5t16.5 -20.5t7.5 -31q0 -6 -1 -26.5t-1 -26.5q0 -8 1 -27.5t1 -42t1 -42t1 -27.5 q0 -6 -1 -18.5t-6.5 -23.5t-17.5 -20.5t-33 -9.5q-18 0 -37 6q-29 6 -53 6q-55 0 -84.5 -26.5t-40.5 -46.5q-10 -18 -15 -66.5t-8 -101.5t-4 -99.5t-1 -60.5q0 -86 4 -143.5t13 -96t22.5 -61.5t31.5 -41q23 -23 55.5 -31t86.5 -8q33 0 50 -6t26.5 -16.5t12.5 -24.5t3 -29 v-17t-1 -27.5t-1 -27v-18.5v-18.5t1 -29.5t1 -29.5v-20.5q0 -16 -2 -26.5t-15 -26.5q-10 -12 -26.5 -23.5t-50.5 -11.5h-13.5t-15.5 2q-51 2 -90 5t-71 8t-60.5 14.5t-59.5 23.5q-25 12 -50 30.5t-73 80.5q-31 39 -51 92t-32.5 121.5t-16.5 155.5t-4 196z" />
<glyph unicode="D" horiz-adv-x="894" d="M51 524q0 8 1 33t1 51.5t1 50t1 33.5q0 47 -2 95.5t-2 95.5q0 63 3 150t3 151q0 8 -1 28.5t-2 44t-2 45t-1 31.5q0 68 19.5 88.5t85.5 20.5q6 0 22.5 -1t33.5 -1t33.5 -1t22.5 -1h105h23.5t38 1t37.5 1h24q82 0 152.5 -40t105.5 -108q23 -45 37 -75.5t22 -56t13 -51.5 t10 -58q0 -6 3 -37t5 -68t5 -69.5t3 -40.5q2 -23 2 -44.5v-43.5q0 -41 -1 -79t-5 -77l-6 -68q-4 -25 -4 -50t-2 -50q-6 -76 -31 -150q-18 -53 -34.5 -87.5t-34 -58.5t-36 -39t-41.5 -30q-59 -35 -103 -45t-103 -14h-22.5h-36h-37h-23.5h-18.5h-32t-36 -1t-28.5 -1 q-8 0 -35.5 -1t-36.5 -1q-25 0 -42 7t-35 30q-10 16 -13.5 27.5t-3.5 23.5q0 8 1 26.5t2 40t2 41t1 27.5q0 16 -1 31.5t-1 32.5q0 25 -1 61.5t-2 73.5t-2 66.5t-1 39.5zM369 479.5q0 -14.5 1 -30t1 -29.5v-21q0 -23 5 -47t38 -24q12 0 27.5 6t19.5 10q20 12 31.5 44t13.5 38 q4 14 6 44t4 60.5t2 53.5v24q0 6 -1 33t-1 35q0 4 1 15t1 24.5t1 25t1 17.5q0 2 -2 39t-6 82q-4 53 -6 116q-10 63 -30.5 100.5t-55.5 37.5q-16 0 -27 -9q-16 -10 -19 -22t-3 -27v-162v-17t-1 -28.5t-1 -29v-19.5q0 -8 2 -37.5t2 -38.5q0 -10 -1 -21t-1 -22q0 -6 1 -27.5 t1 -29.5t-1 -28.5t-1 -43t-1 -44t-1 -29.5v-18.5z" />
<glyph unicode="E" horiz-adv-x="768" d="M49 1370q0 31 15.5 52.5t56.5 21.5h16.5t26.5 -2q14 0 27.5 -1t17.5 -1q10 0 37.5 1t59.5 3t60.5 3t41.5 1q8 0 29.5 -1t46 -1t46 -1t31.5 -1q16 0 34.5 1t37.5 1q59 0 73.5 -24.5t14.5 -71.5q0 -16 -1 -30.5t-1 -31.5q0 -6 1 -31.5t1 -33.5q0 -51 -18.5 -70.5 t-65.5 -19.5q-12 0 -25.5 1t-25.5 1h-35q-12 0 -24.5 1t-24.5 1q-10 0 -40 -1t-40 -1t-22.5 -3.5t-20.5 -19.5q-6 -10 -7 -22.5t1 -55.5q0 -8 -1 -30.5t-1 -30.5q0 -35 14 -48.5t61 -13.5h58.5t77.5 2q12 2 24 2h25q16 0 37.5 -4t36.5 -22q4 -6 7 -11.5t4 -18.5t1 -36.5 v-66.5q0 -8 1 -32t1 -32q0 -57 -22.5 -78.5t-71.5 -21.5q-6 0 -22.5 1t-36 2t-37 2t-23.5 1q-78 0 -98.5 -11.5t-24.5 -33.5q-2 -8 0 -37t2 -39q0 -6 -1 -29.5t-1 -31.5q0 -59 15.5 -72.5t54.5 -11.5h17t27.5 -1t27 -1h18.5t29.5 1t31.5 1q51 0 82 -3t45 -15.5t18.5 -37 t4.5 -67.5v-117q0 -25 -9.5 -55.5t-54.5 -38.5h-31.5h-57.5h-61.5h-39.5t-41 -1t-41 -1q-6 0 -21.5 1t-32 2l-33 2t-22.5 1q-10 0 -34.5 -1t-53 -2t-54.5 -2t-36 -1q-31 0 -52.5 18.5t-21.5 57.5q0 2 1 36.5t1 77.5t1 83t1 55q0 16 -1 61t-3 95t-3 95.5t-1 63.5v24.5t1 38 t1 38v26.5q0 43 -1 87t-1 87v29.5t1 45t1 45v32.5q0 6 -1 23.5t-1 38t-1 37.5t-1 26v75q0 10 -1 39t-1 39z" />
<glyph unicode="F" horiz-adv-x="681" d="M47 57q0 18 2 27q0 12 1 32.5t2 42t2 41t1 29.5q0 6 -1 20.5t-1 31t-1 31t-1 20.5v28.5t-1 57.5t-1 56.5v29.5q0 12 1 44t3 67.5t3 67.5t1 46t-2 53t-3 83t-3 83t-2 56q0 12 1 41.5t1 63.5t1 65.5t1 44.5v29.5t-1 46t-1 46v31.5q0 37 16.5 57.5t59.5 20.5h15.5t24.5 -1 t24.5 -1h17.5h27.5t41 1t42 1h28.5h82h31.5h42t44 1t38.5 3q6 0 13 1t13 1q29 0 49.5 -20.5t20.5 -79.5v-16.5t-1 -26t-1 -24.5v-17v-51q0 -29 -6 -45.5t-22.5 -24.5t-46.5 -10t-79 -2h-100q-35 0 -45 -20.5t-10 -88.5q0 -41 1 -63.5t9 -34.5t25.5 -15.5t48.5 -3.5h31.5 t64.5 5l46 4t28 2q16 0 31.5 -13.5t15.5 -36.5q0 -6 -2 -27.5t-2 -27.5q0 -10 2 -39.5t2 -40.5q0 -4 -1 -21.5t-1 -21.5t1 -20.5t1 -20.5q0 -25 -12.5 -44t-41.5 -19h-24.5t-40 1t-39.5 1h-27q-6 0 -27.5 -1t-29.5 -1q-25 0 -36 -14.5t-13 -18.5q-4 -6 -4 -15t2 -40 q0 -8 -1 -35t-1 -35q0 -29 3 -58.5t3 -58.5q0 -6 -1 -19t-1 -29.5t-1 -30t-1 -19.5t1 -23.5t3 -37t3 -37t1 -25.5v-43q0 -33 -16.5 -41t-36.5 -8q-6 0 -28.5 2t-31.5 2q-8 0 -33.5 -2t-33.5 -2q-6 0 -26.5 1t-26.5 1t-27 -2t-29 -2q-37 0 -43 20.5t-6 34.5z" />
<glyph unicode="G" horiz-adv-x="894" d="M29 678q0 35 3 84t7 96q2 35 4 56.5t5 39t8 35t14 45.5q14 47 25 81t36 81q4 8 19.5 27.5t32 40t29.5 37t15 18.5q45 49 106.5 76.5t96.5 38.5q6 2 26.5 5t45 7t50.5 7t44 3q27 0 66.5 -3t58.5 -7q49 -10 66.5 -14.5t29.5 -20.5q4 -6 7 -13t4 -25.5t2 -54.5t1 -99 q0 -23 -1 -48.5t-7 -35.5q-4 -8 -22.5 -20.5t-34.5 -12.5q-8 0 -22.5 5t-26.5 9q-23 6 -52.5 9t-39.5 3q-31 0 -71 -7t-67 -23q-10 -6 -25.5 -22.5t-30.5 -37t-29.5 -44t-20.5 -48.5q-10 -37 -11 -76t-3 -77q0 -6 -2.5 -24.5t-3.5 -39t-2 -40t-1 -27.5q0 -33 3.5 -76 t11.5 -86t20.5 -81t30.5 -63q16 -18 36.5 -30.5t43.5 -12.5q14 0 22.5 6.5t12.5 10.5q10 12 13 25.5t3 35.5q0 16 -1 30.5t-3 31.5v67q-2 16 -3 37t-7 33q-4 10 -10.5 12t-34.5 2q-31 0 -36 11.5t-3 27.5q-2 41 -2 74v82v32t2 39q4 35 17 46.5t30 11.5q4 0 20.5 -1t22.5 -1 h31.5t48 -1t44 -1h21.5h28.5t29.5 2q8 0 16 1t18 1q51 0 62.5 -33t11.5 -80q0 -6 -1 -23.5t-1 -36t-1 -36t-1 -23.5q0 -8 1 -28.5t1 -43t1 -44t1 -29.5v-178v-34t-1 -51.5t-1 -52v-34.5q0 -6 1 -19.5t1 -30t1 -31t1 -20.5q0 -25 -6 -45t-31.5 -35.5t-76 -23.5t-136.5 -8 q-176 0 -277.5 37.5t-166.5 126.5q-76 102 -106.5 237t-30.5 289z" />
<glyph unicode="H" horiz-adv-x="894" d="M51 428v17.5t1 27.5t1 26.5v18.5v66v18t1 26.5t1 27v18.5q0 47 -2 93t-2 93q0 16 1 57t5 89q4 49 4 97v83v50.5t-2 49.5q0 10 -2 39t-2 39q0 29 8.5 45t19.5 23.5t23.5 8.5t22.5 1q6 0 27.5 -1t27.5 -1t22.5 1t36 1t37 1t25.5 1q29 0 44.5 -7t22.5 -16.5t8 -20.5t1 -20 v-48t-1 -71.5t-2 -70.5t-1 -45q0 -8 -2 -36t-2 -38q0 -8 2 -34.5t2 -37.5q0 -4 -1 -16t-1 -16q0 -43 47 -43l10 1t21.5 2t21.5 2t12 1q18 6 21.5 20.5t3.5 26.5q0 4 1 13t1 20v24.5v40v40v26.5v225q0 27 9 54.5t63 27.5q4 0 15 -1t26 -1q12 -2 24.5 -3t16.5 -1t17 1t30 3 q16 2 29.5 3t17.5 1q29 0 45 -7t24.5 -19.5t10.5 -28t2 -29.5q0 -10 -1 -19.5t-1 -19.5q-4 -59 -5 -95t-1 -71q0 -37 1 -73.5t1 -73.5q0 -20 1 -57t1 -74v-67v-32v-36.5t-1 -57.5t-2 -57.5t-1 -38.5v-43t1 -66.5t1 -67.5v-44v-28.5t-1 -43t-1 -44v-30.5v-35.5t2 -35.5l6 -68 q0 -33 -7.5 -50.5t-18.5 -26.5t-26.5 -11t-31.5 -2q-23 0 -48.5 2t-49.5 2q-4 0 -15.5 -1t-26 -2t-26.5 -2t-16 -1q-45 0 -56.5 26.5t-11.5 88.5q0 8 1 28.5t3 44t3 45t1 31.5q0 8 -1 37t-1 39v37q0 8 1 30.5t2 47t2 46t1 31.5q0 4 -5 28t-5 26q-8 18 -27.5 21t-27.5 3 q-29 0 -46.5 -2t-25.5 -10t-10 -21.5t-2 -37.5q0 -8 -2 -34t-2 -34q0 -10 1 -21.5t1 -23.5q4 -39 6 -56.5t2 -37.5q0 -10 -1 -33t-2 -47.5t-2 -48t-1 -31.5q0 -6 1 -21.5t2 -34t2 -34t1 -21.5q0 -23 -11.5 -42t-45.5 -19q-8 0 -38 2t-40 2q-6 0 -22.5 -1t-35 -1t-35 -1 t-22.5 -1q-47 0 -61.5 17.5t-14.5 43.5v60v34.5t1 52t1 53.5v36v43t-2 43q0 12 -1 24.5t-1 24.5z" />
<glyph unicode="I" horiz-adv-x="425" d="M41 76v4q0 10 1 38.5t1 60.5t1 60.5t1 41.5v53v59v59.5v51.5q0 14 1 50t3 77t3 77.5t1 53.5q0 8 -1 27.5t-1 43t-1 44t-1 28.5q0 6 1 21.5t2 32t2 32t1 21.5v35.5t-1 54t-1 55.5v37q0 8 1 37t1 39q0 6 -1 19.5t-1 28.5t-1 28.5t-1 19.5q0 45 13.5 62.5t52.5 17.5 q6 0 19.5 -1t28.5 -1t29.5 -1t20.5 -1t22.5 1t36 1t37 1t23.5 1q18 0 27.5 -7t14.5 -17.5t6 -20.5t1 -15q0 -10 -1 -19t-3 -19q-2 -18 -3 -38t-1 -38v-103.5t-2 -103.5q0 -27 1 -63.5t1 -63.5q0 -4 -1 -16.5t-1 -25.5t-1 -24.5t-1 -17.5v-28.5t1 -43t1 -44v-29.5t-1 -31 t-1 -47.5t-1 -47t-1 -30.5v-23.5t1 -38t1 -38v-23.5q0 -12 -1 -45t-2 -69.5t-2 -70.5t-1 -48q0 -23 1 -44.5t1 -43.5q2 -6 3 -27t1 -27q0 -12 -9.5 -30.5t-39.5 -22.5q-6 -2 -33 -1t-37 1h-30.5t-49.5 -1t-50.5 -1h-31.5q-37 0 -43 28.5t-6 47.5z" />
<glyph unicode="J" horiz-adv-x="512" d="M10 43q0 4 1 20.5t1 20.5v49q0 8 1 38t1 40q0 4 -1 26.5t-1 28.5q0 35 14.5 49.5t22.5 16.5q4 2 37 2q12 0 33.5 5t25.5 36q0 2 1 23.5t2.5 48t1.5 47.5v22q0 47 -2.5 92t-2.5 92v390q0 31 -1 72.5t-3 82.5t-4 73t-4 42q0 8 -1 16t-1 17q0 29 14.5 40t30.5 11 q2 0 11.5 -1t11.5 -1h86q23 0 45 1t45 1q47 0 67.5 -8.5t20.5 -59.5v-29.5v-45v-46v-30.5t1 -29.5t1 -46.5t1 -47.5t1 -30.5v-17.5t-1 -27.5t-1 -27.5v-19.5v-20.5t1 -32t1 -32.5v-22q0 -4 -1 -21t-1 -24q0 -6 2 -31.5t2 -33.5v-33v-20.5t1 -30.5t1 -31.5v-21.5v-103 q0 -10 -1 -37.5t-2 -58.5t-2 -58.5t-1 -39.5v-20.5t1 -31t1 -31v-20.5q0 -20 -4 -54t-23 -67q-20 -37 -63 -67.5t-94 -36.5h-33t-73 -1t-75.5 -1h-42.5q-25 0 -37 14.5t-12 30.5z" />
<glyph unicode="K" horiz-adv-x="854" d="M53 63v7q0 35 1 84t3 84v27.5t-1 41t-1 41v27.5q0 59 1 119.5t1 119.5v55.5t-1 87.5t-1 88v58v30.5t1 47.5t1 47.5v32.5q0 29 -1 59.5t-1 59.5v21.5v32.5v33.5v22.5v18.5t-1 30t-1 28.5v19q0 43 20.5 50.5t30.5 7.5q8 0 27 -1t41 -1q23 -2 42 -3t28 -1h21t22 2q8 2 15 3 t17 1q18 0 36 -12.5t18 -47.5l-4 -32q-2 -12 -2 -23.5v-13.5q-2 -18 -2.5 -36.5t-0.5 -39.5v-19.5t1.5 -27.5t1.5 -27.5v-19.5t-2.5 -24.5t-2.5 -24.5q0 -10 4.5 -18.5t8.5 -8.5q2 0 6 7t8 16.5t7 18.5t5 13q23 66 46.5 131.5t46.5 130.5q8 20 20 39t51 19h16.5t28.5 -2 q14 0 26.5 -1t16.5 -1q6 0 21.5 1t33 3t34 3t22.5 1q12 0 32.5 -5t20.5 -36q0 -10 -4 -22.5t-12 -32.5q-12 -29 -23.5 -57.5t-21.5 -57.5q-16 -43 -30.5 -81t-45.5 -101q-8 -16 -16.5 -35t-16.5 -35q-8 -20 -13 -38.5t-14 -39.5q-14 -35 -18 -48t-4 -25q0 -23 7 -41.5 t26 -59.5q14 -31 24.5 -62.5t20.5 -64.5q10 -29 17 -59.5t18 -61.5q8 -20 14 -38.5t14 -38.5q10 -29 19.5 -57.5t17.5 -57.5q12 -41 22.5 -81t26.5 -81q8 -18 16.5 -40.5t8.5 -35.5q0 -16 -8 -32q-10 -16 -21.5 -19.5t-21.5 -3.5q-4 0 -16.5 1t-26 1t-25.5 1t-18 1h-27.5 t-34 -1t-31 -2t-18.5 -1q-10 -2 -18.5 -3t-16.5 -1q-29 0 -40 21.5t-15 31.5q-2 6 -6 21.5t-9.5 34t-9.5 36t-6 23.5q-8 25 -15 49.5t-15 50.5q-6 25 -16.5 67t-18.5 83t-15.5 71.5t-7.5 32.5q-4 16 -8 20.5t-6 4.5q-10 0 -11 -11.5t-1 -15.5v-63q0 -4 1 -30t2 -57.5 t2 -65.5t1 -54v-68q0 -6 2 -23.5t4 -36t3 -35.5t1 -24q0 -12 -3 -27.5t-22 -27.5q-16 -8 -24 -8q-4 0 -19.5 1t-19.5 1q-6 0 -18.5 1t-27 1t-26.5 1t-18 1t-20.5 -1t-31 -1t-29.5 -1t-20 -1q-37 0 -43 24.5t-6 40.5z" />
<glyph unicode="L" horiz-adv-x="641" d="M55 430v25.5t1 42t1 43v28.5v41t-1 82t-1 86v58q0 6 2 25.5t2 25.5q0 4 -1 13t-1 13q0 6 1 25.5t1 26.5q0 8 -1 36.5t-1 38.5q0 12 1 47t2 74t2 74t1 49v22.5t-2 24.5q0 6 -2 31t-2 31q0 41 17.5 49t31.5 8q10 0 18.5 -1t18.5 -3q18 -2 38 -3t38 -1q16 0 34.5 1t35.5 3 q10 0 18 1t19 1q37 0 48 -17.5t11 -31.5q0 -4 -1 -22.5t-1 -24.5q-4 -35 -5 -74t-1 -68q0 -14 1 -51t2 -79t2 -79.5t1 -52.5q0 -8 -1 -28.5t-1 -44t-1 -45t-1 -29.5v-22.5t1 -34t1 -34v-22.5v-50t-1 -77t-1 -79v-52q0 -47 10 -83t64 -36q2 0 27.5 1t41.5 3q2 0 10.5 1 t17.5 2t16 2.5t9 1.5q41 0 53.5 -28t12.5 -63q0 -4 -1 -16t-1 -25.5t-1 -24.5t-1 -18q0 -8 2 -34.5t2 -36.5q0 -76 -80 -76q-4 0 -16.5 1t-26.5 1t-26.5 1t-18.5 1q-27 0 -53.5 -2t-52.5 -2q-6 0 -19.5 1t-29 1t-29 1t-19.5 1t-25.5 -1t-41 -2t-41 -2t-27.5 -1q-23 0 -37 7 t-21 16.5t-11.5 17.5t-4.5 12q-4 10 -4 37v39q0 2 1 17.5t1 19.5v127q0 8 -1 27.5t-1 41t-1 42t-1 28.5z" />
<glyph unicode="M" horiz-adv-x="1150" d="M53 1319q0 41 1 58.5t9 33.5q4 8 15.5 21.5t32.5 13.5q6 0 22.5 -1t34.5 -1t35.5 -1t23.5 -1t23.5 1t37 1t38 1t24.5 1q10 0 26.5 -3t26.5 -22q4 -6 10.5 -29.5t8.5 -29.5q4 -10 13 -37t11 -37q8 -23 17.5 -42t15.5 -42q2 -4 6 -19.5t9.5 -32.5t10.5 -31.5t5 -16.5 q2 -6 3 -13.5t3 -13.5l12 -37q4 -6 9.5 -29.5t7.5 -31.5q4 -14 9 -17.5t7 -3.5q8 0 18.5 26t14.5 40q8 33 11 42t9 26q6 12 16.5 40.5t22 60.5t20.5 60.5t13 40.5q4 18 9 38l10 40q10 31 22 52.5t47 21.5h27.5t45 -1t45 -1h32.5h20t30.5 1t32 1h21.5q18 0 43 -7t25 -48 q0 -4 -1 -7.5t-1 -7.5q0 -10 -1 -35.5t-2 -53t-2.5 -51.5t-1.5 -30q0 -8 1.5 -30.5t1.5 -48t1 -48t1 -32.5v-35t1 -53.5t1 -55v-37.5v-80q0 -16 -1 -43.5t-1 -54v-47v-23.5q0 -10 1 -37.5t1 -58t1 -59.5t1 -41q0 -10 -1 -33.5t-2 -50.5t-2 -51.5t-1 -34.5v-51q0 -6 2 -22.5 t3 -35t2 -35t1 -22.5q0 -41 -12.5 -63.5t-53.5 -22.5h-21.5t-32.5 1t-32.5 1h-21.5q-10 0 -41 -1t-41 -1q-29 0 -45.5 9t-23.5 20.5t-8 24t-1 18.5q0 8 2 33.5t2 35.5q2 16 2 32.5v33.5v110q0 8 1 33t1 52.5t1 52t1 34.5q0 8 -2 38t-2 40q0 2 1 23.5t1 46.5v47.5v26.5v28 q0 8 -8 9q-10 0 -13 -5.5t-8 -23.5q0 -6 -4 -19q-4 -6 -5 -13t-3 -13q0 -6 -5 -19.5t-10 -30t-10.5 -31.5t-7.5 -22q-20 -59 -43 -108q-16 -33 -28 -64q-16 -33 -24.5 -46t-24.5 -13q-20 0 -37 12.5t-31 46.5q-6 16 -11 35t-12 35q-8 25 -19 48.5t-22 47.5q-8 23 -14 45.5 t-14 44.5q-20 66 -25.5 79.5t-11.5 13.5q-4 0 -9 -5.5t-5 -15.5q0 -4 2 -17.5t2 -17.5t-1 -17t-1 -18q0 -12 1 -24t1 -23q2 -14 3 -36.5l2 -45t1 -44v-31.5v-95q0 -6 1 -24.5t1 -39t1 -38.5t1 -27v-19t-1 -29.5t-1 -30v-19.5t1 -18.5t1 -26.5t1 -26.5t1 -18.5 q0 -10 -7 -28.5t-50 -18.5q-4 0 -25.5 2t-24.5 2q-16 2 -34.5 3t-46.5 1q-18 0 -44 -2t-45 -2q-31 0 -41 15.5t-10 45.5v60.5t1 94.5t1 95v64v69.5t-1 109.5t-1 109.5v73.5v38t1 58.5t1 58.5v40v27.5t-1 42t-1 43v28.5v21.5t1 33t1 33v21.5q0 8 -1 27.5t-1 41t-1 42t-1 28.5 z" />
<glyph unicode="N" horiz-adv-x="980" d="M51 63q0 6 1 24.5t1 40.5t1 40t1 27v145v32.5t-1 51.5t-1 51.5v34.5v54v70t1 69.5t1 54.5q0 2 1 16t1 29.5t1 29t1 17.5q0 41 -2 81t-2 81q0 10 1 35.5t1 55.5t1 56.5t1 36.5t-1 35.5t-2 55.5t-2 56.5t-1 36.5q0 49 39 56q4 2 23.5 2h25.5h54q8 0 27.5 1t41 1t40 1 t22.5 1q29 0 48 -12.5t42 -69.5q2 -8 9 -28.5t14 -45t13.5 -47t8.5 -31.5q10 -31 21.5 -60.5t21.5 -57.5q10 -31 17 -63t18 -62q2 -10 10 -38t16 -58.5t15.5 -57.5t9.5 -39q2 -16 10 -24l6 -7q2 0 3 7.5t2 16.5t1 16v10q0 6 -1 25.5t-2 45t-3 52t-2 44.5q-2 29 -3 59t-1 58 v22.5t1 35t1 35v22.5q0 31 -3 63.5t-7 79.5q0 10 -1 26.5t-1 31.5q0 47 39 47q6 0 26.5 -1t26.5 -1h72h43t43 4q8 2 15 3t17 1q23 0 37.5 -11.5t14.5 -39.5v-101q0 -29 -1 -70.5t-2 -88t-1 -89.5v-73v-28.5t1 -44.5t1 -46.5v-30.5q0 -12 -1 -44t-2 -67.5t-2.5 -67.5 t-1.5 -46q0 -53 3.5 -104.5t3.5 -104.5q0 -35 -1 -69.5t-1 -69.5q0 -8 1 -31.5t1 -49.5t1 -49.5t1 -33.5q0 -53 -16.5 -68.5t-41.5 -15.5h-13t-15 2q-18 2 -36 2h-34h-48.5t-37.5 -4q-8 0 -19.5 -2t-15.5 -2q-31 0 -46 29.5t-42 113.5q-12 41 -29.5 99.5t-29.5 99.5 q-14 39 -23 70q-4 16 -9 31.5t-9 31.5q-6 23 -13.5 42t-13.5 42q-4 10 -12 40t-17.5 60.5t-16.5 54.5l-7 25q-4 0 -6 -20.5t-2 -36.5q0 -20 2 -31q2 -55 3 -108.5t1 -94.5v-30.5t-1 -48t-1 -49v-31.5v-31.5t1 -31t3 -43t6 -66.5q0 -10 1 -28.5t1 -29.5q0 -23 -7 -35 t-16.5 -17t-19.5 -6t-18 -1h-24.5t-40 1t-40 1h-26.5h-16.5t-26 -1t-25.5 -1h-18q-43 0 -50.5 24.5t-7.5 42.5z" />
<glyph unicode="O" horiz-adv-x="894" d="M45 717v16t1 26.5t1 27v18.5v20.5t-1 31.5t-1 32.5v21.5q0 35 2 84t6 99.5t10.5 96.5t16.5 73q12 37 33.5 63.5t45 46t44 31.5t33.5 18q12 6 29.5 14.5t42 14.5t59 10t86.5 4q41 0 96 -6t94 -22q29 -10 64.5 -36t58.5 -54q27 -39 43 -81t24.5 -85t10.5 -85t4 -83v-86 t2 -86q2 -78 4 -154t2 -153q0 -166 -26.5 -281t-112.5 -186q-59 -47 -128 -66.5t-161 -19.5q-111 0 -177.5 34.5t-100.5 73.5q-47 53 -59.5 92t-22.5 82q-6 29 -9.5 47.5t-5.5 36t-2 40v63.5q0 14 -1 52t-2 80t-2 79.5t-1 54.5zM369 852q0 -37 1 -77t1 -78v-68v-51t1 -74 t2 -72t3 -45q2 -10 6 -23.5t11 -27.5t20.5 -23.5t31.5 -9.5q43 0 62.5 33t19.5 80q0 8 -1 28.5t-1 44t-1 44t-1 30.5q0 12 1 46t1 72t1 71.5t1 48.5v60.5t-1 69.5t-2 70.5t-3 61.5q0 12 -2 30.5t-10 37t-22.5 31t-41.5 12.5q-4 0 -29.5 -7.5t-37.5 -48.5q-4 -14 -6 -40.5 t-3 -56.5t-1 -58.5v-42.5v-68z" />
<glyph unicode="P" horiz-adv-x="894" d="M53 49q0 12 3 25.5t5 25.5v64q0 6 -1 20.5t-1 29.5t-1 29.5t-1 20.5v19.5t1 30t1 30.5v21v225q0 8 -1 33.5t-1 33.5v20.5t1 31t1 32v21.5v104q0 4 -1 16.5t-1 26t-1 25.5t-1 18q0 18 1 38t3 38q0 8 1 36t1 58.5t1 57t1 34.5q0 6 -1 27t-2 43.5t-2 43t-1 28.5 q0 35 10.5 57.5t65.5 22.5q8 0 35 -1t37 -1t39.5 1t63.5 3t64.5 3t43.5 1q68 0 111.5 -6t74.5 -15.5t52.5 -23t41.5 -27.5q43 -29 64.5 -57.5t32.5 -46.5l7 -16q7 -15 15 -34.5t15.5 -39t9.5 -27.5q2 -12 7 -44t10 -72t8 -81t3 -67q0 -6 -1 -19.5t-2 -29t-2 -29.5t-1 -21 q0 -18 -2 -30.5t-10 -42.5q-6 -25 -9 -49.5t-14 -47.5q-16 -39 -52 -85t-64 -74q-20 -23 -51 -35t-59 -20.5t-48.5 -10.5t-22.5 -2q-6 0 -25.5 2t-25.5 2q-61 0 -79.5 -30.5t-18.5 -67.5q0 -6 1 -31.5t2 -54.5t2 -54.5t1 -31.5q2 -10 4 -35t2 -31t-1 -16t-8 -20.5 t-21.5 -17.5t-40.5 -7q-4 0 -15.5 1t-25.5 3q-12 0 -24.5 1t-16.5 1t-9.5 -1t-9.5 -1q-6 0 -21.5 -1t-32.5 -1t-32.5 -1t-21.5 -1t-16.5 1t-19.5 6t-16.5 15.5t-7.5 30.5zM375 1018q0 -10 1 -38t1 -59.5t1 -59t1 -40.5q0 -10 1 -26.5t6 -33t17.5 -28.5t34.5 -12 q31 0 51.5 18.5t31.5 44t15.5 53t4.5 48.5q0 2 -1 17.5t-1 32.5t-1 31.5t-1 16.5q0 4 -3.5 14.5t-6.5 22.5t-5 23.5t-4 17.5q-10 23 -30.5 47.5t-55.5 24.5q-2 0 -11 -1.5t-19.5 -7.5t-18.5 -18t-8 -35v-53z" />
<glyph unicode="Q" horiz-adv-x="937" d="M45 823q0 186 9 309t57 189q16 23 50 51.5t68 46.5q27 12 62 21.5t69.5 14.5t68.5 7t60 2q88 0 145.5 -18.5t94.5 -46t56.5 -57t31.5 -54.5q39 -74 48 -166t9 -233q0 -14 1.5 -51t1.5 -78t1 -79t1 -54q0 -66 -1 -113t-3.5 -84t-5.5 -69.5t-7 -69.5q20 10 33 10 q6 0 21.5 -8t15.5 -47v-27q0 -10 -1 -27.5t-2 -38t-1 -38v-27.5q0 -4 1 -23.5t1 -23.5q0 -23 -11.5 -36t-39.5 -13q-2 0 -13.5 1t-32 7t-47 20.5t-59.5 40.5q-16 -12 -37.5 -26.5t-54.5 -26.5t-79 -20t-112 -8q-68 0 -134 16t-120 57q-45 35 -75.5 83t-46.5 128 q-16 86 -19.5 232.5t-3.5 326.5zM373 487.5q0 -26.5 2 -54t4 -53.5t6 -38q4 -6 15.5 -23.5t33.5 -17.5q8 0 8 4q0 6 -5 14.5t-9 12.5q-18 27 -21.5 36t-3.5 15q0 29 26 41t42 12q18 0 27.5 -7t21.5 -23q8 -10 16.5 -21.5t10.5 -11.5q-2 55 -2 110.5v110.5v61t1 95.5t1 95.5 v63v44t-1 60.5t-2 58.5t-3 38q-8 29 -26.5 44t-53.5 15q-29 0 -49.5 -9t-30.5 -40q-2 -6 -4 -26.5t-3 -44t-1 -45v-29.5q0 -10 1 -43t1 -43v-69.5t-1 -109t-1 -109.5v-73v-40.5z" />
<glyph unicode="R" horiz-adv-x="937" d="M61 72v22q0 16 1 27.5t1 25v31v47.5q0 8 1.5 31t1.5 47.5t1 47t1 32.5v18.5v19.5t-1 28.5t-1 46.5q-1 52 -1 113v63q1 98 1 178l4 393v40t1 52.5t2 49t5 28.5q10 27 38.5 32t49.5 5h21.5t33 -1t32.5 -1h21h5q6 0 23 1t37.5 2t38 2t23.5 1q41 2 79 3t77 1q18 0 47 -2 t61.5 -14t69.5 -38t72 -75q27 -35 41 -65.5t21.5 -66.5t9.5 -81t4 -108q0 -8 1 -27.5t2 -41t2 -42t1 -29.5q0 -25 -5 -63.5t-18.5 -80.5t-38 -84t-61.5 -75q-18 -16 -24.5 -22t-6.5 -17q0 -10 6.5 -20t12.5 -21q4 -10 8 -18t8 -18q10 -23 16.5 -38.5t12.5 -32t13 -35.5 t19 -52q16 -43 35 -85t35 -83q6 -14 10 -27.5t4 -29.5q0 -18 -15 -40t-60 -22q-6 0 -20.5 1t-31 1t-32 1t-21.5 1t-20.5 -1t-31.5 -2t-32.5 -2t-21.5 -1q-39 0 -48.5 17.5t-17.5 52.5q-2 14 -8 33.5t-12 38t-11 31.5l-6 13q-10 23 -18 45.5t-19 45.5q-16 37 -24 73 q-10 37 -19.5 61.5t-31.5 24.5q-16 0 -22.5 -8t-6.5 -12q-2 -6 -3 -24.5t-2 -41t-1 -43v-28.5q0 -23 1 -40.5t1 -27.5q0 -6 1 -25.5t3 -41t3 -41t1 -27.5q0 -6 -1 -19.5t-7 -27t-18.5 -23.5t-34.5 -10q-6 0 -21.5 1t-32 2l-33 2t-22.5 1q-12 0 -23.5 -1t-23.5 -3 q-6 0 -27.5 -3t-27.5 -3q-25 0 -40.5 18.5t-15.5 59.5zM379 893q0 -23 1 -44.5t7 -37.5t20.5 -27.5t41.5 -11.5q14 0 32.5 4t36 16.5t29.5 34t12 56.5v15t-2 17v29t-1 43.5t-2 44t-3 29.5q-4 35 -16.5 54.5t-26.5 28.5t-29.5 10t-27.5 1q-47 0 -59.5 -13t-12.5 -40 q0 -10 2 -40t2 -40q0 -33 -2 -64.5t-2 -64.5z" />
<glyph unicode="S" horiz-adv-x="724" d="M25 1049q0 51 3 86.5t9 62.5t13 45.5t18 34.5q6 14 19 31.5t27.5 34t25 27.5t12.5 13q20 16 92.5 44t183.5 28q14 0 39 -1t50.5 -2t49 -5t33.5 -10q14 -8 21.5 -17.5t10.5 -26t4 -41t1 -63.5v-100q0 -6 -1 -19.5t-9 -23.5q-10 -14 -29.5 -24.5t-34.5 -10.5q-8 0 -14 2 t-23 10q-16 8 -40.5 14.5t-53.5 6.5q-92 0 -92 -82q0 -29 10 -45.5t33 -38.5q10 -10 21.5 -22.5t21.5 -22.5q4 -4 14.5 -15.5t22.5 -25.5t23.5 -26.5t17.5 -16.5q20 -18 32.5 -29.5t22.5 -22t19.5 -24.5t25.5 -35q12 -18 19.5 -29.5t13.5 -23.5t13 -27.5t18 -40.5 q8 -23 15 -43t13 -47.5t9.5 -63.5t3.5 -87q0 -18 -2 -51t-13.5 -73t-35 -83t-66.5 -82q-33 -29 -72 -55.5t-80 -36.5q-47 -12 -79.5 -15.5t-61.5 -3.5q-23 0 -40 1.5t-36.5 4.5t-42 8t-55.5 11q-47 10 -71.5 24.5t-24.5 57.5v102q0 8 -1 32t-1 32q0 4 2 22.5t2 24.5 q2 12 2 23.5t4 21.5q6 10 28.5 22.5t34.5 12.5q8 0 13.5 -3t21.5 -14q8 -4 15.5 -7t15.5 -7q25 -12 50.5 -20.5t53.5 -8.5q37 0 58.5 14.5t32 32t12.5 34t2 20.5q0 37 -23.5 65.5t-66.5 69.5l-20.5 20.5l-20.5 20.5q-14 14 -25.5 28.5t-21.5 30.5q-14 16 -27.5 29.5 t-26.5 30.5q-23 27 -33 45t-24 47q-12 25 -23.5 48.5t-19.5 51t-13 62t-5 82.5z" />
<glyph unicode="T" horiz-adv-x="681" d="M8 1229q0 8 2 35.5t2 38.5q0 8 -1 35.5t-1 37.5q0 12 3 29.5t20 28.5q12 8 40.5 10t45.5 2q8 0 35.5 -1t38.5 -1h16t26.5 1t26.5 2t19 1h104q14 0 28.5 -1t30.5 -1h16.5t16.5 2h144q35 0 41 -32t8 -66v-31t1 -47.5t1 -48v-31.5q0 -82 -62 -82q-4 0 -22.5 2t-22.5 2 q-41 0 -54 -7t-13 -40v-37.5t2 -40.5q0 -6 1 -26.5t2 -43t2 -42t1 -27.5t-1 -28.5t-1 -44t-1 -44t-1 -28.5q0 -12 1 -42t2 -65t2 -66.5t1 -44.5q0 -12 -1 -41.5t-1 -63.5t-1 -64.5t-1 -43.5q0 -35 1 -67.5t1 -67.5q0 -8 1 -35.5t1 -35.5q0 -6 -1 -18.5t-7 -24t-18.5 -20.5 t-35.5 -9q-8 0 -15 1t-17 3q-16 2 -29.5 2h-30.5h-24q-8 0 -35 -1t-33 -3q-10 0 -18 -2t-19 -2q-20 0 -35.5 14.5t-15.5 32.5q0 10 2 14q4 20 4 39t2 56v83t-1 94t-1 94v83v35.5t-1 54.5t-1 54.5v35.5q0 35 1 71t1 70v150q0 16 1 41.5t1 42.5q0 41 -18.5 47t-40.5 6h-29 q-8 -2 -14 -3t-14 -1q-12 0 -29 7t-23 18q0 2 -1 16t-2 31.5t-2 31t-1 17.5z" />
<glyph unicode="U" horiz-adv-x="894" d="M41 694q0 39 2 77t2 77q0 8 1 27.5t1 41t1 42t1 28.5q0 6 -1 26.5t-1 28.5q0 18 2 37t2 39v15.5t-2 35.5q-2 23 -2 43.5v53.5q0 6 -1 20t-1 30.5t-1 31t-1 20.5q0 29 7 45.5t17.5 24.5t18.5 10t12 2q6 0 25.5 -1t41 -1t41 -1t27.5 -1t36 2t36 2q18 0 44 -9t26 -50 q0 -47 -2 -113t-2 -113v-30.5t1 -47t1 -47v-30.5q0 -12 -1 -44t-2 -69t-2 -69.5t-1 -47.5q0 -8 1 -27.5t2 -41t2 -42t1 -28.5q0 -25 -1 -59.5t-1 -61.5v-23.5t-1 -38t-1 -38v-25.5q0 -41 15 -63.5t58 -22.5q41 0 63.5 17.5t22.5 68.5v107q0 10 -1 30.5t-1 34.5q0 4 -1 24.5 t-1 44v45v30.5q0 6 1 21.5t1 33.5t1 33.5t1 21.5q0 12 -1 41t-1 62.5t-1 64.5t-1 43v35t1 56.5t1 56v37.5q0 6 -1 21t-1 32.5t-1 33t-1 21.5v35q0 4 -1 20.5t-1 22.5q0 29 20.5 39t45.5 10h20.5t31.5 -1t32.5 -1h21.5q10 0 41 1t41 1q6 0 18.5 -1t24.5 -8t22.5 -22.5 t10.5 -44.5q0 -6 -2 -32.5t-2 -34.5t1 -30t2 -45.5t2 -46t1 -30.5v-20.5t-1 -30.5t-1 -31.5v-21.5t1 -23.5t1 -38t1 -38t1 -25.5t-1 -28.5t-2 -43t-2 -44t-1 -30.5q0 -8 1 -28.5t1 -44t1 -45t1 -29.5q0 -10 -1 -36t-2 -54.5t-2 -55t-1 -36.5q0 -6 1 -23.5t1 -37t1 -38 t1 -24.5q0 -66 -32 -139.5t-113 -133.5q-57 -43 -113.5 -59t-134.5 -16q-70 0 -118 7t-84 19t-60.5 28.5t-44.5 37.5q-37 33 -56.5 66.5t-29 67.5t-12.5 67.5t-3 68.5v77t-2 77q0 10 -1 37.5t-2 59.5t-2 59.5t-1 39.5z" />
<glyph unicode="V" horiz-adv-x="894" d="M-2 1403q0 31 19.5 36t31.5 5q10 0 42 -2t42 -2q6 0 24.5 1t38 2t38 2t26.5 1q43 0 55.5 -19.5t18.5 -48.5q2 -12 8 -50t11 -79t9.5 -75.5t4.5 -43.5q4 -29 8 -54t8 -54q4 -31 6 -63.5t4 -65.5q2 -16 7.5 -62.5t10.5 -97.5t10 -98t7 -66q0 -8 3 -34.5t3 -30.5 q0 -8 2 -23.5t13 -15.5q6 0 9 9t7 46q0 2 2 24.5t4 49.5t5 49.5t3 28.5q2 18 7.5 68.5t11.5 106.5t12 106.5t8 70.5q0 6 1 20.5t2 31t2 30.5t1 20q2 16 4 30.5t7 31.5q6 31 6 63.5t4 63.5q2 41 5 66.5t12 40t27.5 19.5t49.5 5q6 0 24.5 -1t38 -2t38 -2t26.5 -1h15.5t23.5 2 h39q47 0 47 -58q0 -12 -2 -23t-10 -40q-6 -23 -11.5 -61.5t-10.5 -77.5t-9 -70t-4 -39q-2 -16 -3 -31.5t-3 -31.5q0 -4 -8.5 -47t-17.5 -96.5t-17.5 -99.5t-10.5 -54q-4 -20 -12 -75.5t-17.5 -117t-18.5 -118t-13 -78.5q-6 -27 -12 -52.5t-11 -54.5q-2 -6 -5 -25.5t-6 -42 t-6 -43t-5 -28.5q-4 -25 -16.5 -53.5t-53.5 -28.5q-12 2 -20 2h-15.5t-9.5 2q-35 2 -62.5 2h-49.5h-105q-6 0 -25.5 -1t-25.5 -1q-31 0 -40 19.5t-13 39.5q-2 6 -6.5 26.5t-8.5 43.5t-9 43.5t-7 28.5q-12 66 -27.5 132t-27.5 132q-8 41 -15.5 83t-13.5 83t-13.5 79t-15.5 76 q-14 68 -28.5 135.5t-24.5 135.5q-8 53 -12 106.5t-15 106.5q-6 39 -10 61.5t-6 36.5t-3 21.5t-1 13.5z" />
<glyph unicode="W" horiz-adv-x="1323" d="M-2 1378q0 4 1 13.5t5 19.5t13.5 18.5t25.5 8.5q12 0 20 -2q16 -2 33 -2h33q35 0 52.5 1t23.5 1q10 2 22.5 3t22.5 1q51 0 65.5 -17.5t18.5 -62.5q2 -29 4 -46.5t4 -34.5t5 -36.5t9 -52.5q14 -78 27.5 -157t26.5 -156q6 -39 11 -77t9 -79q2 -16 3 -29.5t5 -27.5 q2 -10 2 -13.5v-13.5q0 -12 9 -12q12 0 14 7t2 17q0 2 10 45t21.5 96.5t21.5 100.5t10 53q-6 37 -13 75t-11 75q-4 31 -8 61.5t-9 58.5q-2 10 -6 40t-9 61t-9 55.5t-4 28.5q0 18 14 28.5t31 10.5q16 0 24 -2q14 -2 27.5 -3t28.5 -1q10 0 31.5 1t46.5 3q25 0 47 1t32 1 q39 0 52.5 -16.5t17.5 -53.5q6 -55 16.5 -146.5t20.5 -179.5t18 -156.5t8 -80.5q4 -25 6.5 -60.5t6.5 -60.5q2 -10 2 -14v-21q0 -12 4 -20t8 -8t5 6t3 10q2 8 6.5 42t7.5 73t6 74.5t5 50.5q4 37 10 72.5t10 72.5q0 8 2 32.5t4.5 51.5t4.5 50.5t4 33.5q4 29 7 72t5 92 q0 23 7 49.5t48 26.5h23q31 -4 70.5 -4.5t72.5 -0.5q6 0 32 1t36 1q39 0 45 -18t6 -31q0 -6 -2 -21.5t-4 -30.5t-4 -28l-2 -14q-4 -27 -9.5 -52.5t-9.5 -49.5q-4 -20 -6 -39t-4 -37q-4 -29 -6 -48.5t-5 -44t-9.5 -58t-16.5 -91.5q-6 -37 -12 -74.5t-12 -74.5 q-6 -35 -12.5 -70t-16.5 -70q-2 -10 -4 -18t-4 -18q-6 -29 -12.5 -64t-12.5 -71.5t-12 -71.5t-12 -62q-4 -16 -8.5 -32.5t-8.5 -32.5q-4 -18 -7 -35.5t-7 -36.5q-6 -41 -10.5 -68.5t-11.5 -43t-19 -21.5t-33 -6q-6 0 -21.5 1t-31.5 3q-18 0 -33.5 1t-21.5 1q-8 0 -25.5 -1 t-38.5 -1q-20 -2 -36.5 -3t-24.5 -1q-35 0 -45.5 15.5t-14.5 29.5t-6 30.5t-10 69.5q-12 80 -31 152q-10 41 -18 76.5t-8 46.5q-2 23 -7 22q-10 0 -11 -8t-1 -14l-5 -32t-11 -70t-12.5 -72.5t-8.5 -42.5q-2 -14 -3 -28.5t-3 -29.5q-4 -16 -6 -33.5t-6 -35.5 q-4 -23 -13.5 -48.5t-46.5 -25.5h-12q-25 4 -39 4h-43h-56t-69 -4q-6 0 -12 -1t-10 -1q-35 0 -45.5 20.5t-14.5 30.5q-4 16 -8 52t-8 55q-2 14 -10 52t-17.5 81t-17.5 81t-10 54q-8 43 -17.5 95t-18.5 107.5t-17.5 108.5t-16.5 96q-12 74 -28.5 147t-28.5 146q-2 10 -7.5 49 t-10.5 83t-9 82t-4 44z" />
<glyph unicode="X" horiz-adv-x="894" d="M0 35q0 16 7 37.5t13 38.5q12 35 26.5 67.5t29.5 67.5q12 31 23.5 62.5t25.5 62.5q8 18 15 36.5t18 36.5q6 16 13 34t13 36q16 41 32.5 79t33.5 79q4 12 9 24.5t11 24.5q10 23 12.5 29t2.5 16t-4.5 23.5t-18.5 52.5q-10 25 -20.5 49t-20.5 49q-4 10 -12 30.5t-16.5 42 t-14.5 38t-6 18.5q-20 53 -32.5 86t-23 57.5t-19.5 46t-23 54.5q-8 18 -20.5 50t-12.5 42q0 31 20.5 36t32.5 5h16.5t28.5 -2q14 0 27.5 -1t17.5 -1q6 0 23.5 1t37 2t38 2t26.5 1q43 0 56.5 -14.5t23.5 -42.5q4 -18 13.5 -45t19.5 -50q14 -33 25.5 -67.5t11.5 -50.5 q0 -4 2 -17.5t12 -13.5q4 0 4 14q2 10 4 22.5t4 22.5q0 6 5.5 24.5t11.5 40t12 41t8 25.5q4 10 6 18.5t4 16.5q10 29 21.5 49.5t52.5 20.5q6 0 20.5 -1t31 -1t32 -1t21.5 -1h20t31.5 1t34 1h22.5q23 0 44.5 -4t21.5 -29q0 -8 -10.5 -37t-23.5 -62.5t-25.5 -65.5t-18.5 -44 q-12 -27 -23.5 -52.5t-21.5 -51.5q-16 -35 -28.5 -69t-28.5 -69q-12 -31 -25.5 -60.5t-26.5 -59.5q-12 -29 -19 -44.5t-10 -23.5t-3 -12v-8q0 -6 1 -13.5t5 -17.5t12 -28.5t23 -49.5q25 -53 51 -118.5t48.5 -124t38 -99.5t15.5 -43l31 -86q8 -18 15 -35.5t16 -36.5 q4 -10 7 -24.5t3 -22.5q0 -37 -22.5 -43t-37.5 -6h-98q-8 0 -26.5 -1t-39 -1t-39 -1t-24.5 -1q-39 0 -51 19.5t-21 43.5q-2 6 -8 23.5t-14 37t-14.5 37t-8.5 25.5q-4 16 -9 35t-11 35q-8 20 -9 28.5t-5 30.5q-2 4 -6.5 20.5t-8.5 16.5q-2 0 -4 -9t-5 -20.5t-5 -20.5t-2 -11 q-2 -10 -2 -19.5t-2 -19.5t-4 -18.5t-7 -18.5q-2 -6 -8 -30.5t-13 -51.5t-13.5 -48.5t-6.5 -23.5q-4 -20 -14 -40.5t-45 -20.5q-4 0 -30.5 2t-34.5 2t-37 2t-37 2q-12 0 -24.5 -1t-22.5 -1q-4 0 -15.5 -1t-23.5 -1t-22 -1l-11 -1q-10 0 -27.5 6t-17.5 31z" />
<glyph unicode="Y" horiz-adv-x="854" d="M-6 1391q0 29 15.5 39t31.5 10q6 0 20.5 -1t30.5 -1q16 -2 30.5 -3t20.5 -1q8 0 27.5 1t42.5 3q23 0 41 1t27 1q37 0 47 -20.5t18 -51.5q4 -18 5 -36.5t5 -37.5q4 -12 6.5 -24.5t4.5 -24.5q12 -47 20 -90t12 -72q0 -6 3.5 -20t6.5 -29.5t7 -28t6 -12.5t6 15q2 8 7 29.5 t9.5 46t8.5 47t6 30.5q8 35 16 71t12 71q2 16 2 32.5t3 32.5q2 23 12 48.5t59 25.5q6 0 23.5 -1t36 -2t36 -2t23.5 -1t21.5 1t31.5 1q16 2 31.5 2h21.5q16 0 40 -5t24 -38q0 -14 -6 -39q-6 -16 -13.5 -34.5t-13.5 -35.5q-4 -16 -7 -32.5t-7 -32.5q-6 -27 -14.5 -52.5 t-18.5 -52.5q-12 -35 -24.5 -70.5t-22.5 -70.5q-16 -53 -28.5 -108.5t-30.5 -108.5q-8 -23 -15.5 -43.5t-15.5 -40.5q-20 -55 -30.5 -87t-15.5 -53.5t-6 -40t-1 -46.5q-2 -41 -3 -79t-1 -77v-22.5t1 -29t2 -48t5 -80.5q0 -6 2 -30t2 -30q0 -4 -1 -13t-7.5 -18.5t-19.5 -16.5 t-38 -7q-6 0 -20.5 1t-30.5 1t-31.5 1t-21.5 1t-23.5 -1t-37 -3t-35 -3t-19.5 -1q-10 0 -31.5 11t-21.5 52q0 8 3 37t3 37t-1 27.5t-1 42t-1 43t-1 28.5q0 12 1 42t3 65t3 65.5t1 42.5q0 33 -6 62q-4 12 -18.5 58t-28.5 83q-2 2 -6 15.5t-10.5 30t-11.5 31.5t-7 24 q-12 45 -17 60t-16 42q-6 18 -20.5 60t-30.5 91.5t-31.5 99.5t-23.5 87q-6 23 -12.5 46t-14.5 46q-10 29 -12 41.5t-2 26.5z" />
<glyph unicode="Z" d="M18 219q0 20 1 32.5t4.5 24t9.5 23.5t16 35q10 20 16.5 39.5t14.5 40.5q25 59 39 94t23.5 57.5t17.5 39t18 38.5q12 23 19.5 38t14.5 31.5t16.5 39t23.5 59.5q35 92 86 180q18 35 27.5 51.5t15.5 34.5q4 16 8 25q10 20 10 24q0 10 -4 12.5t-8 2.5q-2 0 -8 -1t-8 -1 q-6 0 -23.5 1t-38 1t-38 1t-25.5 1q-6 0 -19.5 -1t-28 -2t-27.5 -2t-19 -1h-39q-18 0 -39 6t-21 41v19.5t1 29.5t1 29.5v19.5v18.5t-1 27.5t-1 27.5v18.5q0 47 23.5 58.5t46.5 11.5q4 0 15.5 -1t24.5 -1t24.5 -1t17.5 -1h16t25.5 1t26 1h18.5q10 0 36.5 -1t57.5 -1t58.5 -1 t39.5 -1h95.5t39.5 2q14 0 26.5 1t25.5 1h55q41 0 49 -26.5t10 -88.5v-13t1 -23.5t1 -23v-12.5q0 -25 -5 -38t-17 -35q-10 -23 -24.5 -56.5t-26.5 -62.5q-8 -20 -20.5 -50t-26 -60.5t-26.5 -59.5t-22 -47q-12 -25 -24 -48.5t-23 -45.5q-6 -12 -18 -44t-27.5 -69t-28 -69.5 t-18.5 -47.5q-10 -18 -17 -36.5t-16 -39.5q-2 -6 -7 -20t-11 -29.5t-11 -28t-7 -14.5l-7.5 -15t-1.5 -7q0 -12 15 -8h51q4 0 16.5 1t25.5 1t24.5 1t17.5 1h67q6 0 20.5 1t32 2t33 2t21.5 1q39 0 52.5 -19.5t13.5 -40.5q0 -8 -1.5 -15t-1.5 -15q0 -4 -1 -16.5t-1 -26v-26.5 v-19q0 -8 1 -35t1 -37q0 -8 -1 -21.5t-7 -26.5t-20.5 -23.5t-38.5 -10.5q-6 0 -13.5 1t-15.5 1q-16 2 -33.5 2h-46.5h-23.5t-38 -1t-37.5 -1h-26q-6 0 -22 1t-34.5 1t-36 1t-23.5 1q-10 0 -35 -1t-53.5 -1t-54 -1t-35.5 -1h-52q-4 0 -25.5 -1t-27.5 -1q-25 0 -38 7t-20 17.5 t-8.5 21.5t-1.5 18q0 29 -1 75.5t-1 77.5z" />
<glyph unicode="[" horiz-adv-x="512" d="M66 -31q0 10 1 40t3 63.5t4 64.5t2 43q2 39 1 76t1 76q2 55 3 101t1 94v103.5v133.5q0 14 1 52t1 81t1 82t1 55q0 27 -1 60.5t-3 66.5t-3 59.5t-3 36.5q-4 23 -6 45.5t-2 45.5q0 49 22.5 73.5t56.5 24.5q16 0 34 -2t34 -4q20 -2 43 -3t55 -1q20 0 40 1t40 5q12 2 23.5 4 t23.5 2q6 0 16.5 -1t21.5 -7t19.5 -19.5t8.5 -38.5q0 -8 -1 -33.5t-1 -35.5q0 -6 1 -29.5t1 -30.5q0 -49 -21.5 -57t-50.5 -10q-41 -2 -50 -41t-7 -109v-305q0 -23 1 -78t1 -118.5t1 -121t1 -81.5v-86q0 -6 -1 -19.5t-1 -29t-1 -28.5t-1 -19q0 -18 8 -34t27 -22q6 -2 13 -2 t15 -2q14 -4 35 -15.5t29 -29.5q4 -10 4 -21.5t-2 -52.5q0 -8 1 -35.5t1 -37.5q0 -27 -12.5 -41.5t-27.5 -21.5t-30.5 -8t-21.5 -1q-10 0 -19.5 1t-19.5 1q-23 2 -47.5 3t-48.5 1q-18 0 -38 -1t-38 -3q-8 0 -16.5 -1t-16.5 -1q-10 0 -31.5 3t-46.5 26q-6 6 -11 12t-9 18.5 t-6 32t-2 51.5z" />
<glyph unicode="]" horiz-adv-x="512" d="M0 23q0 49 23.5 57t46.5 8t35 11.5t17 27.5t6 34.5t1 33.5v178v37.5t1 58.5t1 57.5v38.5q0 80 -2 161t-2 163v36.5t1 67.5t2 69t1 40q0 6 1 11t1 11q0 4 -5 27t-40 31q-16 2 -31.5 6t-28 12t-20.5 22.5t-8 37.5v106q0 8 1 22.5t10 28t26.5 22.5t52.5 9q12 0 24.5 -1 t24.5 -1q18 -2 37 -3t35 -1q37 0 57.5 1t32.5 3h35q10 0 25.5 -2t33.5 -12q31 -18 39 -46t8 -92q0 -10 -1 -37.5t-3 -58.5t-4 -58.5t-2 -39.5q0 -16 -1 -58.5t-2 -90.5t-2 -92t-1 -62v-80.5t-1 -122t-1 -122.5v-83q0 -39 -2 -93t-2 -93l4 -82q2 -31 3 -57.5t1 -28.5 q0 -6 2 -21.5t4 -32t3 -32t1 -21.5q0 -8 -1 -22.5t-9 -30.5q-10 -27 -28.5 -37t-47.5 -10q-10 0 -21.5 1t-21.5 3q-72 6 -114 6h-40t-38 -4q-25 -6 -51 -6q-35 0 -50.5 17.5t-15.5 41.5v15.5t1 25t1 25.5v18q0 4 -1 24.5t-1 27.5z" />
<glyph unicode="_" horiz-adv-x="1024" d="M-20 -154h1064v-102h-1064v102z" />
<glyph unicode="`" horiz-adv-x="425" d="M20 1425q0 16 12.5 20.5t16.5 4.5t17.5 -1t17.5 -1h17.5t27.5 -1t27.5 -1h19.5t20.5 1t32 1t34 1t22.5 1q29 0 39 -8t18 -35q2 -10 10 -30.5t16.5 -43t15.5 -41t9 -22.5q4 -10 7 -15.5t3 -11.5q0 -16 -20 -24q-4 0 -9 -1t-13.5 -1t-21.5 1t-38 1h-82q-10 0 -15 4t-24 22 l-24.5 24.5t-43 45t-42 45t-21.5 22.5q-12 10 -20.5 19.5t-8.5 23.5z" />
<glyph unicode="a" horiz-adv-x="768" d="M14 387q0 217 74 313q25 33 53.5 52.5t56 31t52 14.5t39.5 3q35 0 54 -6.5t58 -24.5q8 -4 17 -4q8 0 18 8t10 25q0 14 -4 33.5t-12 29.5q-8 12 -29.5 23.5t-87.5 11.5q-41 0 -74.5 -8t-56.5 -21q-16 -10 -22 -12t-13 -2q-14 0 -32.5 11.5t-22.5 25.5q-2 4 -3 18.5 t-1 20.5q0 4 1 23.5t1 25.5q0 16 -1 31.5t-1 31.5q0 25 10.5 41.5t55.5 30.5q61 20 94 23.5t65 3.5q10 0 42 1t42 1q18 0 51 -3t70 -10.5t73 -19.5t62 -31q20 -14 36 -31.5t25 -44t13 -64.5t4 -95v-19.5t-1 -30t-1 -30.5v-21v-24.5t1 -39t1 -38.5v-25q0 -45 -1 -89t-1 -89 v-149v-21.5t1 -33t1 -34v-22.5t-1 -20.5t-1 -30.5t-1 -30.5t-1 -20.5v-31q0 -29 -17.5 -38t-35.5 -9h-20.5t-31 1t-30.5 1h-21q-14 2 -28.5 1t-28.5 -3q-8 0 -15 -1t-16 -1q-23 0 -25.5 8t-2.5 25q0 23 -13 22q-4 0 -18 -12t-18 -16q-16 -14 -45 -24.5t-72 -10.5 q-53 0 -87 11t-57 28q-43 27 -68.5 72.5t-39.5 98t-18.5 103.5t-4.5 86zM299 367q0 -123 68 -123q18 0 30.5 9t19.5 21.5t10 23.5t3 13t1 24.5t1 49.5v50.5v31.5q0 41 -21 61.5t-44 20.5q-10 0 -25.5 -8.5t-28.5 -30.5q-10 -23 -12 -42t-2 -62v-39z" />
<glyph unicode="b" d="M36 92q1 27 3 35v217q0 8 -1 28.5t-1 44t-1 44t-1 31.5q0 8 1 28.5t1 45t1 46t1 29.5q0 12 -1 45t-1 70t-1 69.5t-1 46.5q0 12 1 45t1 70t1 70t1 47v227q0 4 -1 15.5t-2 23.5t-1 22v11q0 16 7 31.5t44 15.5q6 0 20.5 -1t31 -2t30.5 -2t20 -1q12 0 24.5 1t23.5 3 q23 2 35 3t16 1q25 0 41 -13.5t16 -43.5q0 -6 -1 -19.5t-2 -29t-2 -28.5t-1 -20q0 -6 1 -24.5t1 -37.5t1 -37.5t1 -24.5v-29q-2 -4 -2 -18.5v-18.5t2 -10t12 -6q8 0 12.5 3t14.5 9q33 27 69.5 36t71.5 9q59 0 107.5 -23.5t82 -85t52 -169t18.5 -275.5q0 -10 -2 -33.5 t-3 -51.5t-3 -52.5t-2 -34.5q-4 -92 -10 -159.5t-35 -127.5q-10 -20 -28.5 -45.5t-45 -49.5t-63.5 -40t-84 -16q-43 0 -76 12t-51 25q-4 2 -14.5 11t-14.5 9q-6 0 -10 -12q-4 -6 -4 -12.5t-4 -10.5q-4 -10 -13.5 -11t-13.5 -1q-6 0 -18.5 1t-27.5 1t-27.5 1t-18.5 1 q-31 0 -50.5 -1t-33.5 -3q-8 0 -15.5 -1t-13.5 -1q-65 0 -65 63q0 8 1 35zM338 614q0 -16 1 -53t2 -77t3 -73.5t6 -43.5q16 -47 53 -48q29 0 40.5 19.5t15.5 36.5q2 6 4 33.5t4 62.5t4 67.5t2 49.5q0 27 -1 59.5t-2 64t-5 59.5t-10 42q-6 16 -22 30.5t-32 14.5 q-14 0 -24 -10t-15 -17q-16 -23 -18 -45t-2 -55q0 -6 -1 -23.5t-1 -36t-1 -34.5t-1 -23z" />
<glyph unicode="c" horiz-adv-x="555" d="M35 453.5v117.5q0 68 2 113t6 80t10 63.5t15 61.5q12 49 31.5 97t54 86t92 61.5t143.5 23.5h84q53 0 62 -41v-35v-30.5t1 -47t1 -48v-31.5q0 -45 -17.5 -61.5t-46.5 -16.5q-10 0 -17 1t-18 1q-35 0 -57 -29q-20 -29 -28.5 -88t-8.5 -170q0 -10 1 -30.5t2 -42t2 -42 t1 -28.5q4 -37 24.5 -66.5t71.5 -29.5q4 0 21.5 2t24.5 2q25 0 36 -16.5t11 -45.5q0 -6 -1 -24.5t-2 -40t-2.5 -40t-1.5 -26.5t1.5 -32.5t1.5 -32.5q0 -29 -11.5 -44.5t-26 -22.5t-29.5 -8t-24 -1q-16 0 -33.5 2t-35.5 2q-4 0 -14.5 -1t-14.5 -1q-49 0 -86 11t-63.5 29.5 t-46 39t-33.5 39.5q-23 33 -32 54t-17 50q-12 43 -19.5 78t-10.5 73t-3 85.5z" />
<glyph unicode="d" d="M33 584q0 25 1 60.5t3 71.5t4 62.5t2 32.5q8 106 40 172t72 102.5t82 49t72 12.5q35 0 61.5 -7t35.5 -12q23 -10 27.5 -12t8.5 -2q18 0 22.5 11.5t4.5 31.5v113q0 6 -1 22.5t-1 35t-1 35.5t-1 23q0 63 57 64q10 0 21.5 -1t21.5 -3q14 -2 28.5 -3t31.5 -1q6 0 20 1t30.5 2 t32 2t21.5 1q18 0 37.5 -9t19.5 -46q0 -16 -2 -25q0 -2 -2 -39t-4 -94t-4 -131t-2 -150v-44.5t-1 -69.5t-1 -71v-48q0 -10 1 -37t1 -56.5t1 -56t1 -36.5v-56.5t-1 -85.5t-1 -86v-57q0 -10 1 -40t1 -62.5t1 -61.5t1 -41q0 -37 -23.5 -43t-39.5 -6q-6 0 -20.5 1t-32 1t-33 1 t-21.5 1q-8 0 -36.5 -2t-39.5 -2q-29 0 -32.5 10t-3.5 23q0 12 -6.5 18t-10.5 6q-8 0 -20 -12q-18 -16 -54 -36.5t-104 -20.5q-39 0 -68.5 10t-51 24.5t-36 29.5t-20.5 24q-29 35 -45.5 81t-25.5 93t-12 87t-3 62q0 6 -1 32t-1 56.5t-1 59t-1 41.5zM334 446q0 -25 2 -53 t9 -53t20.5 -41t35.5 -16q47 0 57.5 48t10.5 167v20t-1 30.5t-1 32v21.5q0 23 1 43.5t1 42.5q0 66 -14.5 104.5t-53.5 38.5q-25 0 -38 -16t-19 -37.5t-7 -42t-1 -28.5v-152q0 -29 -1 -55.5t-1 -53.5z" />
<glyph unicode="e" d="M37 571q0 6 1 34t3 59.5t4 60.5t2 37q14 195 105.5 295t255.5 100q37 0 73.5 -4t72.5 -18.5t68.5 -41t63.5 -69.5q53 -78 65.5 -152.5t12.5 -136.5q0 -10 -1 -45t-2 -73.5t-2 -71.5t-1 -37q-2 -4 -7.5 -14.5t-13.5 -20.5t-21.5 -18.5t-29.5 -8.5q-6 0 -27.5 2.5 t-27.5 2.5t-20.5 -1t-31 -2.5t-30.5 -2.5t-21 -1q-8 0 -28.5 1t-44 1t-45 1.5t-29.5 1.5q-14 0 -31.5 -6.5t-17.5 -45.5t22 -67q29 -41 68 -49.5t67 -8.5q29 0 47.5 1t34 5.5t33 12.5t43.5 20q10 4 17.5 6t17.5 2q20 0 39.5 -14t19.5 -37q0 -2 -1 -14t-1 -28.5t-1 -31 t-1 -20.5v-84q0 -16 -3 -26.5t-17 -20.5q-20 -16 -82 -33.5t-168 -17.5q-96 0 -184 26.5t-154 116.5q-33 43 -51.5 89t-27.5 99.5t-11 115t-2 132.5zM330 748q0 -10 2 -33t18 -29q8 -4 37 -4h39q27 0 40 10t13 47q0 33 -1 61.5t-5 45.5q-14 41 -37.5 48t-32.5 7 q-29 0 -43 -16.5t-21 -40t-8 -50t-1 -46.5z" />
<glyph unicode="f" horiz-adv-x="512" d="M8 856q0 10 1 41t1 41v16.5t-1 25.5t-1 24.5v17.5q0 8 3 24.5t24 16.5h18q18 0 21.5 10t3.5 21q0 6 -1 23.5t-1 37t-1 36.5t-1 26q0 31 3 68.5t21.5 73.5t58.5 60.5t113 28.5h17.5t29 -1t29.5 -1h21q6 0 28.5 1t30.5 1q53 0 62.5 -24.5t9.5 -71.5q0 -10 1 -41t1 -41v-47 q-2 -35 -18.5 -42t-22.5 -7t-26.5 4t-26.5 4q-16 0 -30 -13.5t-14 -42.5q0 -43 5.5 -50t27.5 -7q4 0 23.5 1t25.5 1q43 0 50.5 -22.5t7.5 -34.5q0 -8 -1 -34t-1 -36v-17.5t1 -28.5t1 -29.5v-20.5q0 -16 -3 -27.5t-20 -15.5q-4 -2 -19.5 -1t-19.5 1q-41 0 -48 -15.5t-7 -25.5 v-88q0 -10 1 -48t2 -82t3 -83t2 -49q2 -12 3 -24.5t1 -27.5q0 -8 -1 -39.5t-1 -41.5v-25.5t-1 -41t-1 -40v-27.5v-17t2 -34l4 -49q0 -25 -13 -35t-17 -12q-8 -2 -29 -2h-37q-8 0 -35.5 1t-38.5 1q-4 0 -16 -1t-25.5 -1t-25.5 -1t-19 -1q-29 0 -49 6t-20 35q0 8 2 28.5t3 43 t3 44t2 29.5q0 10 -1 38t-2 58.5t-2 57t-1 39.5q0 8 1 33.5t1 55.5t1 56.5t1 36.5q0 8 -1 27.5t-1 41t-1 42t-1 28.5v49v8.5t2 12.5q0 8 2 16q0 10 -7 17.5t-18 7.5q-6 0 -11 -1t-9 -1q-23 0 -26 13t-3 38z" />
<glyph unicode="g" horiz-adv-x="768" d="M23 625v25.5t1 41t1 41v27.5q0 45 6 90q4 39 14 83t29 81q25 51 59.5 80.5t67 44t56.5 18.5t28 4q31 0 68.5 -14t54.5 -37q6 -10 10 -15t10 -5q4 0 12 14q2 10 2 16t4 15q4 12 12.5 14t16.5 2q10 0 20.5 -1t20.5 -3t25.5 -2h38.5q4 0 17 1t28 1q16 2 29.5 2h17.5 q16 0 37.5 -7t21.5 -50v-37t-1 -56.5t-1 -57.5v-38q0 -53 1 -107.5t1 -107.5v-49t-2 -74q-2 -29 -3 -58.5t-1 -57.5v-16.5t1 -28t2 -30t1 -18.5v-32.5t1 -42t1 -42v-32.5v-19q0 -12 -1 -33.5t-3 -44t-4 -44t-4 -31.5q-10 -37 -40 -73t-79 -63.5t-117.5 -44t-158.5 -16.5 q-43 0 -93.5 4t-76.5 8q-23 4 -45.5 13.5t-26.5 38.5v20.5t-1 41t-1 44v27.5q0 33 12 55.5t45 22.5q4 0 28.5 -8.5t43.5 -14.5q12 -4 39.5 -10t50.5 -6q35 0 78 13t55 40q4 8 6 32.5t2 30.5q0 12 -5 18.5t-9 6.5t-7 -3l-7 -7q-6 -6 -15 -8q-20 -10 -33.5 -17.5t-24.5 -11.5 t-23.5 -5t-26.5 -1q-29 0 -51.5 6t-34.5 10q-39 16 -59.5 33.5t-43.5 54.5q-20 29 -32.5 53.5t-19.5 50t-11 57.5t-8 75q-6 61 -6 123zM313 645q0 -98 12.5 -148.5t45.5 -50.5q12 0 20 9q10 6 18.5 18t12.5 47q0 12 1 39t1 56.5v57v44.5q0 10 -1 33.5t-6 48t-16.5 44 t-31.5 19.5q-10 0 -18.5 -6t-12.5 -12q-10 -16 -16.5 -44t-8.5 -46v-109z" />
<glyph unicode="h" d="M37 59v30t1 45.5t1 45v31.5v39t-1 60.5t-1 61v42.5q0 53 1 125.5t1 126.5v30.5t1 48t1 48v32.5q0 6 -1 24.5t-1 40t-1 41t-1 27.5q0 12 1 46t2 72t2 73t1 49v76q0 6 -1 22.5t-1 36t-1 36.5t-1 24q0 6 1 16t5 20.5t14.5 18.5t28.5 8q8 0 36 -2t38 -2q6 0 25.5 1t41 3t41 3 t27.5 1q29 0 40 -16.5t11 -36.5q0 -8 -2 -39t-2 -41v-19.5t1 -28.5t1 -28.5v-19.5v-19.5t-1 -29t-1 -28.5v-19q0 -37 16 -37q6 0 9.5 2t15.5 14q8 8 50 27.5t97 19.5q12 0 37 -3t52.5 -10t56.5 -21.5t49 -39.5q29 -33 40 -73.5t11 -106.5q0 -8 -1 -27.5t-1 -41t-1 -41 t-1 -27.5v-85t-1 -97t-1 -97.5v-87.5q0 -8 1 -27.5t1 -43t1 -44t1 -28.5v-21.5t-1 -34t-1 -34.5v-23v-16t1 -26.5t1 -26.5v-19q0 -23 -7 -35t-17.5 -17t-19.5 -6t-15 -1t-21.5 1t-34 1t-35 1t-22.5 1q-4 0 -16.5 -1t-26.5 -1t-26.5 -1t-18.5 -1q-23 0 -34 3t-16 15.5t-5 35 t2 61.5v19t-1 28.5t-1 29v19.5v16.5t1 26.5t1 26.5v18.5q0 10 -1 39t-1 61.5t-1 61t-1 41.5v101.5t4 101.5q0 2 1 13t1 25.5t1 25.5t1 13q0 29 -5 45.5t-13.5 23.5t-16.5 8t-16 1q-25 0 -38 -8t-19.5 -21.5t-8.5 -29t-2 -29.5q-2 -45 -2 -65.5v-49.5v-25.5t1 -41t1 -40 v-26.5q2 -43 2 -99v-99q0 -8 -1 -27.5t-1 -43.5t-1 -44.5t-1 -28.5q0 -20 1 -40.5t3 -39.5q0 -8 3 -31.5t3 -29.5q0 -8 -6 -25.5t-39 -17.5q-6 0 -20.5 1t-30.5 1t-30.5 1t-20.5 1t-20.5 -1t-31 -2t-31.5 -2t-22 -1q-29 0 -47 9t-20 54z" />
<glyph unicode="i" horiz-adv-x="382" d="M29 74v17t2 36q0 12 1 23.5t1 29v45v74.5v24.5t1 39t1 39v26.5v27.5t-1 43t-1 44v28.5t1 30t2 44.5t2 44t1 29.5v19.5t-1 29.5t-1 30.5v20.5v28.5t1 44t1 45v32.5v36.5t-2 34.5q0 6 -1 27t-1 29t3 20t21 23q16 8 35 8q8 0 38 -2t40 -2q6 0 24.5 1t39 1t39 1t26.5 1 q31 0 41 -17.5t10 -42.5v-14t-2 -33t-3 -51t-1 -51q0 -10 1 -37t1 -57.5t1 -58t1 -40.5q0 -10 -1 -33.5t-1 -50t-1 -51t-1 -35.5q0 -43 2 -86t2 -83q0 -8 -1 -31t-2 -48.5t-2 -49t-1 -31.5q0 -10 1 -34t3 -51.5t3 -52t1 -34.5q0 -4 -1 -15.5t-6 -23.5t-15.5 -21.5 t-30.5 -9.5q-8 0 -32.5 2t-33.5 2q-8 0 -27.5 -1t-41 -2t-41 -2t-27.5 -1q-35 0 -51 14.5t-16 57.5zM39 1401q0 57 57 57h15.5t17.5 -2q12 -2 25.5 -2h25.5h42t61 2q4 0 14 1t14 1q23 0 28 -19.5t7 -29.5q0 -6 -1 -27.5t-1 -29.5q0 -6 2 -31t2 -33q0 -23 -13 -32t-34 -9 h-16.5t-25.5 1t-25.5 1h-18.5t-19.5 -1t-29.5 -1t-30.5 -1t-20.5 -1q-4 0 -16.5 -1t-16.5 -1q-31 0 -36 30t-5 54q0 8 -1 36t-1 38z" />
<glyph unicode="j" horiz-adv-x="425" d="M0 -100q0 8 1 27.5t1 42t1 43t1 28.5v26.5t-2 26.5q-2 6 -2 13.5v13.5q0 29 13.5 34t43.5 5q16 0 27.5 8t11.5 35v54.5t-2 53.5q-2 12 -2 24.5t-2 24.5v132q0 8 1 27.5t1 43t1 43t1 27.5q0 10 -1 35.5t-1 54.5t-1 54.5t-1 35.5q0 8 1 27.5t1 42t1 43t1 28.5t-1 27.5 t-3 41t-3 42t-1 29.5q0 16 11.5 32.5t41.5 16.5h14.5t20.5 -2q10 0 20.5 -1t14.5 -1q10 0 36.5 1t55.5 1q4 2 21.5 4t21.5 2q18 0 29.5 -8.5t15.5 -19.5t5 -22.5t1 -17.5v-28.5t-1 -44t-1 -46v-30.5v-21.5t1 -33t1 -34v-22.5v-33.5t-1 -50t-1 -50v-34.5q0 -8 1 -28.5t1 -44 t1 -45t1 -29.5t-1 -30.5t-1 -48.5t-1 -49.5t-1 -31.5v-49t1 -75t1 -75.5v-50.5q0 -45 -5 -74.5t-15 -60.5q-16 -47 -47 -80t-78 -43q-6 -2 -26.5 -3t-43 -2t-42 -2t-27.5 -1q-41 0 -76 14.5t-35 57.5zM88 1370.5v18.5q0 29 8 46t39 17q8 0 34 -1t34 -1h47h23.5t23.5 2 q10 2 19.5 3t19.5 1q23 0 39 -9t16 -38q0 -6 -1 -26.5t-1 -26.5t2 -31t2 -33q0 -35 -23.5 -41t-37.5 -6h-19.5t-29 1t-29.5 1h-21q-6 0 -19 -1t-28.5 -1t-30 -1t-20.5 -1q-35 0 -40 18.5t-5 36.5v17.5t-1 28t-1 27z" />
<glyph unicode="k" horiz-adv-x="768" d="M27 1389q0 39 19.5 46t29.5 7h28.5h45h46h31.5h19.5t19.5 2q6 0 12.5 1t14.5 1q39 0 45 -35q2 -8 1 -35.5t-1 -36.5q0 -12 -1 -41.5t-1 -63.5t-1 -63.5t-1 -42.5v-311q0 -14 2 -14q6 0 30.5 35.5t41.5 91.5q6 23 8 40t4 33.5t2 35v42.5q0 35 15.5 47.5t37.5 12.5 q8 0 15.5 -1t17.5 -3q23 -4 45 -4h55h17.5t29 1t29.5 1h21q14 0 22 -6.5t11 -14.5t4 -15t1 -9q0 -10 -6 -50.5t-14 -70.5q-6 -25 -20.5 -68t-33 -89t-38 -88t-33.5 -62q-12 -16 -14 -22.5t-2 -16.5t4 -27q2 -8 10 -30.5t18.5 -47t18.5 -47t12 -31.5q10 -29 19.5 -55.5 t19.5 -54.5q8 -23 17.5 -46.5t17.5 -45.5q2 -8 8 -28t13.5 -42.5t12.5 -42t9 -27.5q8 -23 10 -33t2 -20q0 -35 -24.5 -41t-36.5 -6q-6 0 -19.5 1t-30 1t-29.5 1t-20 1q-6 0 -22.5 -1t-34.5 -2t-33.5 -2t-19.5 -1q-18 0 -29.5 7t-15.5 13t-13.5 41t-18.5 77t-17.5 81 t-12.5 53q-4 16 -8 29.5t-8 30.5q-14 47 -25.5 72.5t-13.5 25.5q-4 0 -6 -8t-2 -17q0 -4 1 -13t1 -13v-25.5t1 -33t1 -33v-21.5t-1 -20.5t-1 -30.5t-1 -31.5t-1 -21.5t1 -19.5t3 -30t3 -31t1 -20.5q0 -14 -7 -37.5t-46 -23.5q-8 0 -37 2t-39 2q-6 0 -24.5 -1t-38 -2t-38 -2 t-26.5 -1q-23 0 -34 7t-16 17.5t-6 19.5t-1 13q0 10 3 42t5 42v13.5t-1 24.5t-1 24.5v15.5v36.5v56.5t1 56.5t1 38.5v84t-1 95.5t-1 95.5v84v33.5t-2 35.5q0 8 -1 15.5t-1 17.5q0 6 1 27.5t1 30.5v159q0 12 -1 45t-1 71t-1 71.5t-1 48.5q0 16 -1 36.5t-1 37.5z" />
<glyph unicode="l" horiz-adv-x="382" d="M35 55q0 6 1 26.5t2 43t2 40t1 19.5q0 8 -1 27.5t-1 41t-1 41t-1 28.5v38.5t1 60.5t1 61.5v41.5v46t-1 72t-1 73v49q0 8 1 33.5t1 53.5t1 53.5t1 35.5v22.5t-1 34t-1 34v22.5v46t1 70.5t1 70.5v48q0 6 -1 18.5t-1 28t-1 28.5t-1 19q0 70 67 70q4 0 16.5 -1t27 -2t26.5 -2 t19 -1q4 0 17 1t30 1q16 2 29.5 2h17.5q47 0 56 -23.5t9 -50.5q0 -6 -1 -23.5t-2 -37t-2 -37.5t-1 -25v-159q0 -12 -1 -42t-1 -64t-1 -65.5t-1 -43.5q0 -29 1 -58.5t1 -58.5q0 -10 -1 -35t-1 -52.5t-1 -52t-1 -34.5q0 -8 1 -30.5t1 -48.5t1 -48.5t1 -32.5q0 -45 -2 -90 t-2 -92q0 -10 1 -33t2 -49.5t2 -50t1 -33.5q0 -41 -9 -61.5t-56 -20.5q-8 0 -36 2t-38 2h-39t-45 -2q-6 -2 -13.5 -2h-13.5q-61 0 -61 57z" />
<glyph unicode="m" horiz-adv-x="1193" d="M37 61q0 8 1 14.5t1 14.5q6 57 6 115q0 10 -1 38.5t-2 60.5t-2 59.5t-1 39.5q0 66 1 130.5t3 130.5v20t-1 30.5t-1 31v20.5t1 24.5t1 39t1 39t1 24.5q0 27 -1 52.5t-3 51.5q0 8 -2 37t-2 39q0 23 8 35t18.5 17t22.5 6.5t18 1.5t32 -1.5t34 -1.5h14.5h27.5t31.5 1.5 t26.5 3.5q6 0 12.5 1t14.5 1q27 0 31 -12.5t4 -30.5q0 -12 6 -19.5t10 -7.5t9 3t24 20q16 10 55 31.5t99 21.5q61 0 101 -20.5t56 -30.5q4 -4 15.5 -13.5t15.5 -9.5q2 0 3 1t11 9q4 4 8.5 6t8.5 7q53 29 89 42t89 13q84 0 124 -27.5t52 -42.5q18 -20 28.5 -46.5t16.5 -54.5 t7 -52.5t1 -42.5q0 -8 -1 -31t-1 -48.5t-1 -48t-1 -32.5v-42t1 -63.5t1 -65.5v-44v-37t-1 -56.5t-1 -57v-38.5v-23.5t1 -36.5t1 -36.5v-23.5t1 -22.5t1 -35t1 -36t1 -23.5q0 -37 -9 -59.5t-50 -22.5q-6 0 -19.5 1t-29 2t-28.5 2t-19 1t-20.5 -1t-32 -2t-33 -2t-21.5 -1 q-41 0 -48 25.5t-7 60.5q0 6 1 24.5t1 39t1 39t1 26.5q0 29 -1 57.5t-1 57.5q0 37 2 72.5t2 72.5v18.5t-1 26.5t-1 27.5v19.5v217q0 10 -2 28.5t-4 23.5q-2 6 -9.5 16t-27.5 10q-18 0 -29.5 -10t-17.5 -26.5t-8 -36t-2 -35.5v-21.5t2 -21.5v-41t1 -56.5t1 -56.5v-43 q0 -6 -1 -22.5t-1 -35t-1 -36t-1 -23.5v-135q0 -6 1 -21.5t1 -34t1 -34.5t1 -23q0 -16 1 -40.5t1 -40.5q0 -37 -13.5 -52.5t-66.5 -15.5h-21.5t-33 1t-33 1h-21.5q-8 0 -32.5 -1t-32.5 -1q-39 0 -50.5 20.5t-11.5 57.5q0 10 1 36.5t2 56.5t2 56.5t1 38.5v33t-1 52.5t-1 53 v35.5q0 37 1 83t2.5 93.5t2.5 93.5t1 83q0 71 -44 71h-1q-35 0 -48 -39q-10 -23 -11 -43v-9q0 -20 3 -58v-42t-1 -65t-1 -66.5v-43.5v-84v-45.5t2 -44.5q0 -8 -1 -39t-1 -41q0 -6 1 -21.5t2 -32t2 -32t1 -21.5q0 -72 -7 -105.5t-48 -33.5q-6 0 -18.5 1t-26.5 1t-26.5 1 t-18.5 1t-21.5 -1t-34 -1t-34 -1t-21.5 -1t-17 1t-20.5 7t-16.5 19.5t-7 37.5z" />
<glyph unicode="n" horiz-adv-x="768" d="M37 1079q0 39 21.5 47.5t37.5 8.5q8 0 40 -1t42 -1h17q10 0 40.5 2t40.5 2q6 0 21.5 -2t21.5 -15q4 -6 2 -13t3 -15q4 -12 14 -13l9 5q9 6 19.5 12t20.5 12t14 8q20 10 49 18.5t54 8.5q66 0 113 -29t69 -63q16 -29 28.5 -65t12.5 -118q0 -29 -1 -59.5t-1 -58.5v-20.5 t1 -31t1 -31v-20.5v-18.5t-1 -27.5t-1 -27.5v-18.5q0 -8 1 -30.5t2 -47t2 -48t1 -32.5q0 -10 -1 -36.5t-1 -57.5t-1 -58.5t-1 -37.5q0 -8 1 -27.5t1 -41t1 -41t1 -27.5q0 -53 -25.5 -62.5t-64.5 -9.5q-8 0 -34.5 1t-37.5 1q-20 0 -39.5 -1t-42.5 -1q-8 0 -19 1t-20.5 7 t-16.5 18.5t-7 34.5q0 10 1 36t1 54.5t1 54t1 36.5q0 10 -1 37.5t-1 58.5t-1 57.5t-1 38.5q0 14 1 53t1 83t1 83t1 56q0 78 -5 112.5t-36 34.5q-47 0 -47 -106v-44t1 -67t1 -67.5v-45.5q0 -8 -1 -27.5t-1 -41t-1 -42t-1 -28.5q0 -10 1 -33.5t3 -51.5t3 -52.5t1 -34.5 q0 -8 -2 -35.5t-2 -38.5q0 -6 2 -26.5t2 -28.5q0 -57 -19.5 -70.5t-47.5 -13.5q-6 0 -19.5 1t-29 1t-30 1t-20.5 1q-4 0 -16 -1t-25.5 -2t-26 -2t-18.5 -1q-25 0 -40 16.5t-15 46.5v95q0 12 1 46t1 71.5t1 71.5t1 48q0 8 -1 32t-1 49.5t-1 49t-1 33.5q0 8 1 30.5t1 49.5 t1 49.5t1 32.5q0 14 -1 54t-1 85t-1 86t-1 57q0 8 -1 38t-1 40z" />
<glyph unicode="o" d="M33 600v39q0 74 2 125t8 90t15.5 69.5t23.5 61.5q27 51 57.5 81t40.5 36q35 23 97.5 42t144.5 19q74 0 128 -20.5t92 -49t60.5 -61.5t32.5 -57q23 -51 31 -150.5t8 -273.5q0 -117 -5 -188.5t-14.5 -114.5t-20.5 -66.5t-23 -44.5q-16 -29 -41 -55.5t-62 -48t-87 -34.5 t-118 -13t-133 18.5t-114 65.5q-41 37 -54.5 63.5t-25.5 61.5q-8 25 -14.5 42t-9.5 32.5t-6 34t-5 44.5q-4 37 -5 85t-2 91t-1 76zM340 406q0 -23 1 -44.5t6 -40t16.5 -29.5t33.5 -11q27 0 41.5 13t21.5 32.5t8 40t1 36.5q0 14 -1 50t-2 76t-2 76t-1 52v19.5t1 29t1 29v19.5 q0 18 -2 38.5t-8 37t-19.5 27.5t-36.5 11q-47 0 -55 -47q-5 -31 -5 -83q0 -26 1 -56v-276z" />
<glyph unicode="p" d="M41 -109q0 6 1 12.5t3 14.5q2 23 3 48.5t1 53.5q0 12 -1 44t-1 68t-1 68.5t-1 45.5v76v20t-1 30.5t-1 32v21.5q0 8 1 39t1 41v17.5t-1 27.5t-1 27.5v19.5q0 8 1 33.5t1 54.5t1 55.5t1 36.5v39t-1 60.5t-1 59.5v40q0 8 -2 36.5t-2 37.5q0 45 7 70.5t48 25.5q6 0 22.5 -1 t35 -1t36 -1t23.5 -1q8 0 34.5 2t37.5 2q29 0 37 -21q4 -4 4 -10t4 -12q0 -14 10 -14q6 0 10 8l17 16q14 12 46.5 29.5t80.5 17.5q61 0 105 -20.5t75 -49t49 -61.5t27 -57q2 -8 6 -26.5t8 -39t7 -40t3 -27.5q2 -20 3 -67.5t2 -97.5t2 -91t1 -47q0 -20 -1 -61.5t-4 -90.5 t-11 -99t-21 -87q-8 -20 -24 -57.5t-25 -49.5q-35 -53 -91 -73.5t-99 -20.5q-41 0 -70.5 7t-46.5 18q-18 10 -29 10q-14 0 -16 -13.5t-2 -17.5t2 -20.5t5 -36t5 -38t2 -24.5q0 -18 -13 -29.5t-32 -11.5q-16 0 -24 2q-16 2 -38 3t-56 1h-20.5t-32 -1t-32 -1h-20.5 q-27 0 -37 14.5t-10 30.5zM342 434q0 -20 2 -42.5t9 -42t21.5 -32t37.5 -12.5q31 0 47 28.5t16 74.5v256q0 25 -1 51t-3 53q0 12 -2 29.5t-8 33t-19.5 25.5t-33.5 10t-33 -12q-23 -18 -27 -39.5t-4 -38.5v-51v-78v-79v-52v-15.5t-1 -24.5t-1 -24.5v-17.5z" />
<glyph unicode="q" d="M33 578q0 55 3 110t7 111q10 106 24.5 152t24.5 65q8 14 25.5 38.5t45 48t64.5 40t84 16.5q2 0 15.5 -1t32 -4t39 -10t36.5 -20q2 -2 8.5 -8t13.5 -12t12 -11.5t7 -5.5q6 0 10 15q4 8 4 13t3 11q6 12 17 15.5t21 3.5t39 -2t37 -2q6 0 21.5 1t33 1t33 1t21.5 1 q45 0 52 -25.5t7 -50.5v-45q-2 -23 -3 -62.5t-1 -81.5v-76v-42v-31q0 -6 1 -22.5t1 -35t1 -34.5t1 -23v-19v-29.5t-1 -31t-1 -20.5q0 -10 1 -37.5t1 -38.5v-18t-1 -27.5t-1 -28v-18.5v-23.5v-38v-38v-25.5q0 -10 -1 -38.5t-1 -61.5t-1 -61.5t-1 -41.5q0 -18 1 -50.5t5 -55.5 q0 -6 1 -12t1 -13q0 -25 -15.5 -35t-37.5 -10q-6 0 -20.5 1t-32 1t-32.5 1t-22 1h-18q-6 0 -18.5 -1t-27.5 -3t-27.5 -3t-18.5 -1q-31 0 -39 15.5t-8 29.5q0 6 2 23.5t5 37t5 36t2 22.5q0 10 -4 19.5t-14 9.5q-8 0 -29 -13q-23 -10 -52.5 -17t-60.5 -7q-47 0 -82.5 13.5 t-58.5 27.5q-10 6 -23.5 18.5t-31.5 40.5q-20 33 -35.5 69t-27 90t-16.5 131t-5 192zM340 436q0 -35 1 -53t5 -29q10 -35 29.5 -43t27.5 -8q23 0 39.5 15.5t22.5 37.5q2 8 4 17.5t3 27t1 45v74.5v23.5t-1 38t-1 38v23.5v19.5t1 30t1 30.5v20q0 59 -12 82q-10 23 -25.5 32 t-29.5 9q-12 0 -28 -9t-26 -32q-4 -12 -7 -32.5t-4 -61.5t-1 -111.5v-183.5z" />
<glyph unicode="r" horiz-adv-x="512" d="M33 324q0 8 1 31.5t1 49t1 49t1 33.5v342q0 14 -1 49t-1 75t-1 76t-1 50q0 8 1 18.5t7 19.5t18.5 15.5t34.5 6.5h80h17.5t27.5 1t27.5 1h19.5q20 0 35.5 -4t20.5 -31q2 -4 1 -15.5t-1 -15.5t1 -16t1 -26.5t1 -27t1 -18.5q8 23 20 51.5t27.5 53t36 41t47.5 16.5q6 0 13 -1 t11 -5q18 -10 19 -45q0 -16 -2 -25q-2 -20 -2 -47v-37v-61.5t2 -61.5q0 -10 2 -39.5t2 -40.5q0 -8 -4 -25.5t-31 -17.5q-4 0 -15.5 3.5t-15.5 3.5q-6 0 -20.5 -6.5t-29.5 -25t-26.5 -53t-11.5 -92.5v-104v-24.5t-1 -39t-1 -40v-27.5v-17.5t2 -39.5v-20.5t-1 -31t-1 -32 v-21.5q0 -8 1 -16t1 -17q2 -8 5 -34.5t3 -34.5q0 -47 -17 -60.5t-40 -13.5q-10 0 -40 2t-40 2q-6 0 -22.5 -1t-36 -2t-37 -2t-23.5 -1q-41 0 -52 15.5t-11 39.5v125q0 8 -1 28.5t-1 43t-1 44t-1 30.5z" />
<glyph unicode="s" horiz-adv-x="641" d="M18 258q0 25 16.5 41t37.5 16q8 0 12 -2q10 -2 21.5 -7t21.5 -9q4 -2 17.5 -4t27.5 -3t25.5 -2t15.5 -1q23 0 51.5 13t28.5 48q0 33 -17.5 53.5t-31.5 32.5q-12 12 -24.5 22.5t-26.5 22.5q-18 16 -48 50t-53 75q-39 78 -48 121t-9 84q0 55 10 99t21 63q0 2 5 10t11 18.5 t12 20.5t10 16q23 33 54.5 55.5t66.5 36t71 18.5t69 5h18q27 -2 52.5 -4t53.5 -4q35 -4 60.5 -10.5t32.5 -40.5q2 -6 2 -19.5v-29t-1 -29t-1 -19.5t1 -18t1 -26.5t1 -27t1 -16.5q0 -35 -23.5 -48t-38.5 -13q-8 0 -17 3t-32 13q-27 10 -51 10q-29 0 -49.5 -12t-20.5 -41 q0 -27 26 -56.5t64 -68.5q47 -47 78 -80.5t56 -87.5q18 -39 30.5 -77.5t12.5 -110.5q0 -102 -27 -162q-25 -51 -39 -70.5t-37 -39.5q-47 -45 -100 -63.5t-142 -18.5q-43 0 -69.5 1t-45 3t-32.5 5t-33 7q-31 8 -53.5 20.5t-22.5 53.5v20.5t1.5 30.5t1.5 31.5v21.5v27.5 t-3 27.5q0 6 -1 12.5t-1 12.5z" />
<glyph unicode="t" horiz-adv-x="468" d="M-2 846v17.5t1 28.5t1 28.5v19.5v113q0 4 2 12t16 12q4 2 14.5 1t14.5 -1q18 0 21.5 9.5t1.5 19.5q-2 8 -1 39t1 41v30.5t-2 30.5q-2 12 -3.5 23.5t-1.5 21.5q0 31 13.5 55.5t42.5 24.5q6 0 20.5 -1t30.5 -1t30.5 -1t20.5 -1q4 0 16.5 1t25.5 1t25.5 1t18.5 1 q25 0 42.5 -11t19.5 -42q2 -6 1 -27.5t-1 -27.5t1 -31t1 -33q0 -4 -1 -17.5t-1 -28.5t-1 -28.5t-1 -19.5q0 -18 3 -23.5t15 -5.5q4 -2 19.5 -1t19.5 1q23 0 28 -11t7 -22q0 -8 -1 -33.5t-1 -35.5q0 -6 1 -25.5t1 -41t1 -42t1 -28.5q0 -29 -11.5 -33t-19.5 -4q-4 0 -19.5 1 t-17.5 1q-8 0 -15 -6t-7 -23v-35v-15t1 -24.5t1 -24.5v-18v-22.5t-1 -35.5t-1 -36.5v-25.5v-101v-16t1 -26.5t1 -27v-18.5v-20q0 -12 9 -19.5t13 -9.5q2 0 11.5 1t13.5 1t20.5 -8t16.5 -49v-17.5t-1 -29t-1 -28.5v-19v-19.5t1 -28t1 -28v-19.5q0 -29 -13.5 -40t-27.5 -11 h-13q-10 2 -28.5 2h-28.5q-6 0 -22.5 -1t-36 -2t-37 -2t-23.5 -1q-86 0 -125 48t-39 153q0 8 1.5 27.5t1.5 42t1 43t1 28.5v43v65.5v67.5v45v33t1 51.5t1 50v33.5q0 6 1 25.5t1 25.5q0 16 -10.5 18.5t-30.5 2.5q-23 0 -28 13t-5 30z" />
<glyph unicode="u" d="M29 1051q0 8 1 23.5t6 29.5t17.5 25.5t34.5 11.5q10 0 31 -4h13t23.5 -1t23.5 -1h16q4 0 17 1t28 3q16 0 29.5 1t17.5 1q10 0 30.5 -7.5t20.5 -48.5v-17t-1 -27.5t-1 -28v-19.5q0 -10 1 -36.5t2 -57.5t2 -58.5t1 -39.5q0 -10 -1 -33t-2 -49.5t-2 -50t-1 -33.5v-40v-62.5 t1 -62.5t1 -42v-16.5t-1 -25.5t-1 -25.5v-18.5q0 -20 12 -37.5t51 -17.5q35 0 51.5 26.5t16.5 100.5q0 6 -1 24.5t-1 38t-1 37.5t-1 27v123v117.5t-2 117.5q0 8 -1 31.5t-1 50.5t-1 50.5t-1 33.5q0 25 7 49.5t50 24.5q2 0 24.5 -2t24.5 -2q10 -2 21.5 -2h21.5q47 0 56 2 q4 0 23.5 3t23.5 3q39 0 51 -17.5t12 -36.5q0 -4 -1 -21t-1 -22v-15t-1 -29.5t-1 -34v-27.5v-20.5t1 -32t1 -32.5v-22q0 -10 1 -36.5t1 -57v-59.5v-43q0 -12 -1 -47t-2 -75t-2 -77t-1 -51q0 -6 1 -24.5t1 -38t1 -38t1 -26.5t-1 -35.5t-1 -38.5q0 -6 1 -21.5t2 -32.5t2 -32.5 t1 -21.5q0 -41 -13 -57.5t-44 -16.5q-4 0 -16.5 1t-27 1t-26.5 1t-18 1q-35 0 -55.5 -2t-26.5 -2q-8 -2 -15.5 -3t-17.5 -1q-25 0 -33 8t-10 12t-1 10.5t-1 12.5q-4 14 -8 14t-8 -4t-9 -8q-4 -4 -8 -6t-8 -6q-25 -14 -44 -22.5t-36.5 -12.5t-38 -5t-47.5 -1q-41 0 -69.5 5 t-57.5 21q-37 20 -57.5 49t-29.5 59t-11 54.5t-2 38.5v22.5t1 35t1 36v23.5q0 8 -1 27.5t-1 41t-1 42t-1 28.5v50t1 78t1 79v53v106.5t-2 106.5q0 23 -2 52.5t-2 52.5z" />
<glyph unicode="v" horiz-adv-x="768" d="M4 1094q0 29 18.5 36t30.5 7q6 0 26.5 -2t26.5 -2h66q4 0 16.5 1t25.5 2t24.5 2t17.5 1q49 0 57.5 -20.5t10.5 -67.5q0 -20 1 -35t2 -33t4 -47t9 -74q4 -29 5 -57.5t3 -56.5q2 -35 3 -68t7 -68q4 -39 9.5 -63.5t13.5 -24.5q2 0 4 5.5t6 25.5q8 31 12.5 70t8.5 98 q0 2 2 29.5t5 60.5t6 59.5t3 28.5q4 16 6 29.5t6 30.5q4 18 5 42.5t4 77.5q0 14 6 36t41 22q4 0 18 -1t30.5 -2t31 -2t20.5 -1t22.5 1t34.5 1q18 2 35 2h25q35 0 41 -17.5t6 -25.5q0 -2 -1 -16.5t-5 -37.5q-6 -23 -11.5 -47t-9.5 -47q-2 -20 -4 -40.5t-6 -41.5 q-4 -29 -17.5 -91t-26.5 -126.5t-24.5 -117t-13.5 -58.5q-4 -16 -8 -30.5t-8 -30.5q-8 -39 -13.5 -78t-15.5 -76q-4 -27 -10 -51.5t-11 -48.5q-2 -10 -3 -20.5t-3 -20.5q-6 -39 -10 -61.5t-13 -34t-25.5 -14.5t-43.5 -3h-23.5t-37 1t-37 1h-25.5h-22.5t-34.5 -1t-34.5 -1 h-22.5q-23 0 -31 8t-10 13q-4 6 -7.5 16t-7.5 45q-4 20 -8 39.5t-8 40.5q-4 25 -7 50.5t-7 49.5q-6 29 -12.5 58.5t-12.5 60.5q-6 20 -14.5 61t-16.5 85t-15 83t-9 58q-4 20 -5 39.5t-6 38.5q-4 35 -11 65.5t-13 65.5q-6 33 -10.5 66.5t-10.5 66.5q-10 47 -12 59t-2 23z" />
<glyph unicode="w" horiz-adv-x="1150" d="M-2 1098q0 29 17.5 35t43.5 8h80h18.5t27 1t26.5 1h18q49 0 58.5 -19.5t11.5 -40.5q0 -18 5 -68t12.5 -112.5t14.5 -125t13 -103.5l25 -191q4 -29 8 -54.5t8 -53.5l18 82q2 6 4.5 21.5t5.5 32.5t6 32.5t5 21.5q8 35 18.5 67t12.5 66v4q0 25 -6 50q-4 29 -9.5 54t-9.5 52 q-2 12 -6 42t-8 63.5t-9.5 63.5t-7.5 42q-2 10 -4 18.5t-2 16.5q0 25 12.5 30t24.5 5q18 0 29 -2h82h15t23.5 1t23.5 1h18q27 0 41 -5.5t21 -14.5t9 -20.5t2 -23.5q2 -29 2 -56.5v-55.5q0 -16 1 -35t1 -35q2 -29 5.5 -55.5t5.5 -55.5q2 -33 3 -64.5t3 -66.5q2 -29 6 -66.5 t8 -77.5t8 -77t8 -65q4 14 5.5 27.5t3.5 27.5q4 23 4 45t4 45q2 16 3 30.5t5 28.5q2 25 9 95.5t15.5 150.5t15.5 148.5t7 87.5q0 31 4 48t13.5 25.5t24.5 9.5t38 1q6 0 23.5 -1t37 -1t37 -1.5t25.5 -1.5q6 0 30.5 1.5t32.5 1.5q16 0 36 -7.5t20 -42.5q0 -10 -2 -21l-4 -22 q-6 -29 -12.5 -56.5t-12.5 -55.5q-10 -66 -19.5 -129.5t-19.5 -126.5q-6 -47 -15.5 -92t-17.5 -93q-4 -29 -9 -57.5t-9 -56.5q-6 -29 -13.5 -58.5t-11.5 -58.5q-6 -37 -11 -75t-13 -75q-4 -16 -6 -29.5t-7 -29.5q-6 -31 -16 -40t-39 -9q-8 0 -31.5 1t-49 2t-49 2t-34.5 1 q-8 0 -36.5 -2t-36.5 -2q-35 0 -44.5 14.5t-17.5 55.5q-8 37 -15 82t-12 81q-4 41 -7 52.5t-7 27.5q-6 -23 -12 -44t-10 -44q-4 -20 -9.5 -38.5t-9.5 -36.5t-9 -38t-9 -38q-8 -29 -19.5 -51.5t-50.5 -22.5q-16 0 -24 2h-19.5t-28 1t-25.5 1h-13q-6 0 -21.5 -1t-34 -2t-34 -2 t-21.5 -1q-39 0 -49 24.5t-21 88.5q-4 35 -10 70.5t-10 72.5l-25 141q-8 59 -15 121t-18 121q-4 29 -10 56.5t-10 56.5q-8 47 -12 95t-11 95q-2 8 -5 33.5t-7 52.5t-7 48.5t-3 23.5z" />
<glyph unicode="x" d="M6 35q0 16 5 29.5t16 29.5q12 25 23 50.5t22 50.5q2 6 9 21t13 33.5t12.5 34t10.5 21.5q10 23 21.5 45.5t21.5 44.5q4 12 10 24.5t10 24.5q10 27 27.5 62t36.5 65q4 10 8 18.5t4 12.5q0 14 -10 29q-2 6 -8.5 20.5t-13.5 31.5t-14 32.5t-9 21.5q-8 16 -16.5 30.5 t-16.5 31.5q-4 6 -11 24.5t-15.5 40t-16.5 40t-10 26.5q-12 27 -25.5 52t-23.5 52q-14 27 -17.5 40t-3.5 22q0 29 20.5 33t36.5 4h99q6 0 27.5 1t29.5 1h53q29 0 39 -13.5t17 -31.5q2 -6 7 -24.5t9 -38t9 -38t7 -26.5q4 -12 8.5 -23.5t8.5 -24.5q6 -25 16 -24q2 0 4 4t6 20 q6 29 8.5 37.5t10.5 28.5q6 16 11 32.5t9 33.5q12 49 22.5 67.5t45.5 18.5h31q16 0 30.5 1t30.5 1h25q8 0 29.5 1t29.5 1q14 0 38.5 -6.5t24.5 -38.5q0 -10 -8 -31q-10 -27 -18 -51.5t-19 -51.5q-6 -16 -11 -33.5t-13 -33.5q-6 -16 -14.5 -30.5t-16.5 -31.5q-10 -23 -18 -43 t-19 -43q-8 -20 -16 -38.5t-19 -38.5q-16 -37 -20 -46.5t-4 -17.5q0 -12 8 -33q2 -8 11.5 -28.5t18.5 -44t18 -45t14 -29.5q10 -31 21 -62.5t22 -62.5q10 -23 18 -42t16 -42q12 -31 25.5 -62.5t26.5 -60.5q4 -14 9 -29.5t5 -25.5q0 -27 -17.5 -32t-29.5 -5h-20.5t-31 1 t-32 1h-21.5h-21.5t-32.5 -1t-32.5 -1h-21.5q-31 0 -44.5 17.5t-13.5 19.5q-4 6 -9 31.5t-9 33.5q-4 12 -8 23.5t-8 21.5q-4 14 -8.5 27.5t-8.5 30.5q-2 4 -6 16t-8 26.5t-9 25t-7 10.5q-4 0 -7.5 -11.5t-7.5 -26t-7 -27.5t-5 -17l-9 -22.5t-10 -22.5q-10 -29 -16 -52 q-14 -53 -23.5 -74.5t-37.5 -27.5h-199q-4 0 -18.5 -1t-18.5 -1q-10 0 -25.5 5t-15.5 32z" />
<glyph unicode="y" d="M-2 1100q0 31 25.5 36t42.5 5q8 0 38.5 -1t40.5 -1q8 0 31 1t45.5 2t42 2t21.5 1q43 0 50 -21.5t9 -50.5q0 -35 1 -55.5t2 -33.5t3 -23.5t4 -24.5q2 -12 4 -23.5t4 -23.5q4 -27 5.5 -53.5t5.5 -55.5q0 -10 3 -30.5t6 -42t5 -40t4 -22.5q6 -33 7 -42t1 -19q0 -27 11 -27 q4 0 7 11.5t5 15.5q8 35 12 56.5t7 37.5t4 30.5t1 36.5q0 16 1.5 27.5t2.5 21t2 20.5t5 30q4 29 7 58.5t3 58.5q0 12 1 24t1 23q4 78 10 106.5t33 28.5q4 0 18.5 -1t18.5 -1q12 0 27.5 -1t31.5 -1q41 0 55.5 1t20.5 3q6 0 25.5 3t23.5 3q27 0 46.5 -7t19.5 -34 q-4 -23 -4 -30t-2 -29q-4 -27 -9.5 -53.5t-11.5 -55.5q-10 -43 -16 -87t-15 -89q-4 -23 -9 -44.5t-15 -53.5q-6 -20 -9 -41t-10 -41q-4 -16 -8 -32.5t-8 -33.5q-8 -39 -11 -52t-9 -38q-4 -16 -14.5 -56t-22 -85t-21.5 -85.5t-14 -56.5q-4 -14 -11.5 -37.5t-14.5 -48t-14 -47 t-11 -32.5q-20 -51 -48 -81t-62 -45.5t-75 -19.5t-88 -4q-35 0 -75.5 3t-73.5 11q-10 4 -29.5 13.5t-28.5 31.5q-4 6 -4 24.5v90.5q0 10 -1 42t-1 42q0 49 16.5 58.5t32.5 9.5q14 0 31 -9q4 -4 9 -7t12 -7q10 -8 28 -8q25 0 33 14.5t8 28.5q0 2 -2 13.5t-5 24.5t-6 25.5 t-3 16.5q-8 33 -16.5 63.5t-18.5 63.5q-6 25 -11 48t-11 48q-8 29 -16.5 59.5t-18.5 59.5q-8 29 -15.5 54.5t-13.5 53.5q0 4 -3 16.5t-7 26t-7 25.5t-3 18q-4 10 -4.5 23.5t-4.5 26.5l-6 30q-4 10 -5 22.5t-5 22.5q0 4 -7 31t-15.5 59.5t-14.5 61.5t-6 39z" />
<glyph unicode="z" horiz-adv-x="681" d="M25 92v19.5t1 29t1 28.5v19q0 23 4 35.5t16 38.5q2 6 9 23.5t14.5 37t13.5 37t10 23.5q10 20 18.5 38.5t16.5 39.5q8 23 15.5 43t15.5 41q8 20 20.5 46.5t22.5 43.5q14 25 28.5 54.5t25.5 55t18.5 47t7.5 31.5q0 25 -29 25q-4 0 -21.5 -1t-21.5 -1q-6 0 -29.5 2t-29.5 2 t-28 -5t-28 -5q-18 0 -33.5 12t-15.5 43q0 6 1 13t1 14q4 20 4 44.5v47.5q0 6 -2 30.5t-2 32.5q0 43 27.5 50.5t60.5 7.5q4 0 16.5 -1t27 -1t26.5 -1.5t18 -1.5h17.5t28 1.5t27.5 1.5h19h68q10 0 41 1t41 1q8 0 31.5 -1t31.5 -1q6 0 31 1t33 1q37 0 44 -24t7 -95 q0 -33 -1 -52.5t-4 -35t-10 -31.5t-20 -41q-23 -41 -37 -85t-30 -87q-12 -27 -24.5 -51.5t-24.5 -50.5q-14 -35 -25.5 -69t-26.5 -69q-10 -25 -21 -57.5t-11 -44.5q0 -16 12 -23.5t27 -7.5h24q4 0 21.5 -1t21.5 -1h25.5t29.5 4q2 0 15.5 2t15.5 2q8 0 22.5 -4t22.5 -24 q2 -6 3 -20.5t2 -31t2 -30.5t1 -21q0 -8 -1 -34.5t-1 -34.5q0 -6 1 -27.5t1 -30.5q0 -43 -23.5 -50t-45.5 -7q-8 0 -29.5 1t-46.5 2t-47.5 2t-30.5 1q-23 0 -42 -1t-42 -1h-93t-93 -2q-18 -2 -35.5 -2h-34.5q-25 0 -39 3t-20 12.5t-7 27.5t-1 47z" />
<glyph unicode="{" horiz-adv-x="724" d="M0 608v78q0 10 2 27.5t14 31.5q10 10 22.5 14.5t41.5 8.5q45 8 70.5 35.5t39.5 60.5q10 27 12.5 42.5t2.5 54.5q0 4 2 21t2 24v20v30.5v31v20.5v25.5t2 38l4 41t8 34.5q16 39 29.5 56.5t26.5 31.5q14 14 34.5 32.5t45 35t55 28t67.5 15.5h16.5h26h24.5h17q8 0 39 1t41 1 q29 0 45.5 -7t23.5 -18.5t8 -26t1 -28.5l2 -59q0 -10 -1 -16.5t-5 -18.5q-10 -37 -25.5 -44t-50.5 -11q-16 0 -31 -7q-20 -4 -27 -9t-24 -21q-6 -4 -13 -8.5t-11 -10.5q-8 -8 -11 -16q-6 -10 -9 -18.5t-5 -19.5t-2 -26.5v-42.5q0 -25 -2 -49t-2 -51q-2 -31 -2 -61.5 t-10 -59.5q0 -2 -8.5 -18.5t-21.5 -38t-30.5 -42t-38.5 -32.5q-12 -8 -25.5 -12t-25.5 -10q-29 -14 -39 -17.5t-29 -7.5v-2q12 -2 24.5 -4t25.5 -6q8 -4 16 -7.5t16 -7.5q10 -4 18.5 -6t16.5 -6q2 0 12.5 -10t24.5 -24.5t27.5 -32t19.5 -35.5q4 -12 7 -25.5t8 -25.5 q10 -33 13 -48.5t3 -48.5q0 -6 -1 -29.5t-1 -29.5q0 -16 1 -30.5t3 -31.5q2 -23 2 -47t6 -47q23 -78 98 -84q4 -2 20.5 -1t20.5 1q37 0 51.5 -16.5t14.5 -30.5q0 -2 -1 -10t-1 -12q0 -6 1 -12.5t1 -12.5v-10t1 -18.5t1 -20.5v-12q0 -39 -16.5 -56.5t-85.5 -17.5h-26.5t-39 1 t-38 2t-25.5 3l-43 12q-12 4 -24.5 5t-23.5 6q-10 4 -48 22.5t-83 71.5q-10 12 -17 20t-11 16.5t-8.5 19.5t-10.5 28q-10 31 -13 45t-3 55q0 8 1 32.5t1 33.5q0 4 -1 16t-1 26.5t-1 27t-1 18.5v53q0 61 -28.5 112.5t-86.5 65.5q-12 4 -25.5 6t-25.5 8q-31 14 -36 39t-5 39z " />
<glyph unicode="}" horiz-adv-x="724" d="M-6 -37q0 14 4 32.5t8 22.5q10 23 24.5 27t47.5 8q4 0 24.5 3t30.5 12q8 4 14.5 11t12.5 11q6 6 12 10t10 11q20 18 23.5 45.5t3.5 76.5q0 16 1 32t3 32q0 8 1 15t1 16q0 4 -1 21.5t-1 21.5q0 51 12 82l9 17q8 17 22 38.5t31.5 43t38.5 34.5q10 6 22 10t25 10 q31 14 41 17.5t28 7.5v2l-24 4t-23 6q-4 0 -37 14q-16 6 -36 15q-4 2 -14.5 12t-24 24.5t-24.5 31t-17 30.5q-4 10 -6.5 22.5t-6.5 22.5q-12 39 -16 57.5t-4 49.5q0 6 2 28.5t2 30.5q0 10 -2 43t-2 43q0 57 -15.5 88t-37 45t-46 16.5t-42.5 2.5q-43 0 -55.5 15t-14.5 19 q0 4 1 17.5t1 17.5q0 6 -1 12.5t-1 12.5q-2 12 -2 30.5v32.5q0 47 23.5 59.5t86.5 12.5q18 0 39 -1t39.5 -2t30.5 -3l12 -2q10 -2 20.5 -4t20.5 -6t22.5 -5.5t22.5 -5.5q16 -4 45 -20.5t39 -24.5q20 -16 48 -49t38 -57q4 -8 5 -15.5t6 -15.5q10 -31 12 -43t2 -39 q0 -10 -1 -43t-1 -43q0 -8 3 -35.5t3 -38.5q0 -6 -1 -29.5t-1 -31.5q0 -43 6 -62.5t23 -44.5q10 -23 27.5 -42t58.5 -29q12 -4 24.5 -5t22.5 -8q2 0 10 -5t16.5 -14t14.5 -23.5t6 -36.5q0 -10 -1 -22.5t-1 -23.5v-34q0 -8 -2 -26.5t-15 -31.5q-10 -10 -22 -14t-41 -8 q-35 -6 -58.5 -26.5t-38 -44t-21.5 -46t-7 -35.5v-47q0 -8 -2 -31.5t-2 -31.5v-16.5t1 -27t1 -26.5v-18q0 -53 -7 -91t-20.5 -66t-31 -47.5t-35.5 -35.5q-25 -23 -48.5 -40t-49 -28.5t-57.5 -17.5t-73 -6q-6 0 -24.5 2t-22.5 2q-8 0 -33.5 -2t-33.5 -2q-37 0 -52.5 14 t-19.5 19q-4 10 -5 20t-1 47q0 4 -1 20.5t-1 20.5z" />
<glyph unicode="&#xa1;" horiz-adv-x="425" d="M27 53q0 8 2 28.5t4 43t5 44t3 30.5q2 25 5 86t7 131.5t7 133t6 89.5l18 160q4 33 6 64.5t2 64.5q0 49 8.5 74.5t49.5 25.5q6 0 23 -1t36.5 -1t37 -1t25.5 -1q16 0 39 -5t23 -34v-19.5t-1 -28.5t-1 -26.5v-13.5t1 -21.5t2 -44l2 -49t1 -32.5q4 -55 10 -109.5t10 -108.5 q4 -53 4 -107t5 -108q2 -31 4 -60.5t2 -59.5q0 -8 -1 -35t-1 -35t3 -37t3 -39q0 -31 -22.5 -39t-61.5 -8q-4 0 -17.5 1t-28 1t-27.5 1t-19 1t-19.5 -1t-30 -2t-29.5 -2t-20 -1q-8 0 -20 1t-24.5 5t-21.5 15.5t-9 29.5zM55 1397q0 23 7.5 35t17.5 17t20.5 6t16.5 1 q12 0 23.5 -1t21.5 -3q16 -2 29.5 -2h29.5h17.5t28 1t26.5 1h18q49 0 57.5 -13.5t8.5 -47.5q0 -4 -1 -16.5t-1 -27t-1 -26.5t-1 -18q0 -8 1 -30t1 -46.5t1 -47t1 -30.5q0 -16 -10.5 -32.5t-38.5 -16.5q-4 0 -18.5 1t-30 1t-29.5 1t-21 1q-6 0 -23.5 -1t-36.5 -1t-36.5 -1 t-23.5 -1q-18 0 -29.5 7t-16 17.5t-5.5 20.5t-1 14q0 8 1 34t1 34v88q0 8 -2 39.5t-2 42.5z" />
<glyph unicode="&#xa2;" horiz-adv-x="555" d="M47 578q0 111 9.5 191.5t35.5 164.5q29 90 72 139t119 72q2 39 2 77v74q0 16 4 28.5t20 16.5q4 0 12.5 -1t12.5 -1h33q4 0 13 1t13 1t15.5 -4t11.5 -24v-29.5v-46.5v-47.5v-30.5h50t17 -4q12 -4 21.5 -15.5t9.5 -27.5v-170q0 -29 -4 -50.5t-20 -33.5q-10 -8 -19.5 -9 t-36.5 -1q-31 0 -48 -22.5t-26.5 -58.5t-12.5 -81t-3 -90q0 -74 2 -118t6 -68.5t9.5 -34.5t11.5 -19q20 -33 55 -32q10 0 19.5 1t19.5 1q18 0 27.5 -8.5t13.5 -18.5t5 -20.5t1 -14.5q0 -6 -1 -20.5t-2 -29.5t-2 -29.5t-1 -20.5v-19.5t1 -29t1 -28.5v-19q0 -29 -11 -43.5 t-26.5 -21.5t-32 -8t-26.5 -1v-22.5t-1 -35t-1 -36v-23.5q0 -4 1 -16.5t1 -16.5q0 -23 -11.5 -30t-21.5 -7q-4 0 -26.5 2.5t-30.5 2.5q-2 0 -10.5 -1t-10.5 -1q-20 0 -23 14t-1 22v31t-1 48.5t-1 48v32.5q-31 8 -67 26.5t-87 86.5q-27 35 -38 65.5t-21 89.5 q-6 29 -10.5 51.5t-6.5 53.5t-3 77t-1 122z" />
<glyph unicode="&#xa3;" horiz-adv-x="894" d="M31 25q0 6 3 42.5t13 71.5q18 59 52 95t59 49q8 4 15 8t15 8q4 4 9.5 7t9.5 7q6 10 10 41t4 54q0 35 -7 83t-17 84q-2 8 -3 16.5t-4 16.5q-4 16 -5 21.5t-9 5.5q-4 0 -13 -1t-13 -1h-37q-4 0 -17.5 -1t-17.5 -1q-25 0 -28 20.5t-1 32.5v21.5t-1 34t-1 35v22.5 q0 23 12.5 25.5t40.5 2.5q2 0 12.5 -1t14.5 -1q10 0 10 8q0 2 -3 15.5t-3 15.5q-2 6 -5 24.5t-5 41t-4 47t-2 45.5q0 82 22.5 154.5t68.5 128t117 88t169 32.5q20 0 56 -4t77 -16t82 -38t71 -69q18 -25 29.5 -52t19 -53t10.5 -46.5t3 -28.5q0 -10 -8.5 -23.5t-34.5 -13.5 h-113q-6 0 -31.5 -1t-34.5 -1q-6 0 -16 2t-20 15q-4 4 -6.5 11t-6.5 13q-20 37 -75 37q-41 0 -72 -31.5t-31 -93.5q0 -14 2 -38.5t5 -49t6.5 -44t5.5 -26.5q2 -6 3 -11t1 -11q2 -16 7 -21.5t34 -3.5q6 2 31.5 1t33.5 -1h19.5h29h28.5h19q4 0 22.5 1t25.5 1q10 0 19 -6t9 -26 q0 -6 -2 -28t-2 -30t3 -38.5t3 -41.5q0 -16 -12 -21t-20 -5q-6 0 -20.5 1t-31 1t-32 1t-21.5 1q-10 0 -41 -1t-41 -1q-12 0 -12 -6q0 -2 2 -11.5t4 -13.5q0 -4 3 -17.5t5 -30.5t4 -35.5t2 -33.5q0 -53 -13 -100t-24 -61q-10 -12 -11 -15.5t-1 -7.5q0 -8 3 -9t20 -5 q10 -2 17 -6.5t15 -8.5q43 -23 76 -22q35 0 50.5 12t21.5 23q6 10 10 21t10 24q8 14 13.5 17t11.5 3q4 0 6 -1t6 -1q6 0 25.5 -1t34.5 -1q6 0 20 1t31.5 1t33 1t21.5 1q8 0 18.5 -6t10.5 -25q0 -78 -23.5 -133t-36.5 -71q-29 -45 -61.5 -70t-64 -37t-57 -15t-36.5 -3 q-18 0 -44.5 3t-61.5 13q-25 6 -49.5 15.5t-46.5 17.5q-12 4 -25.5 8t-30.5 4q-25 0 -35 -8t-14 -18q-2 -4 -2 -8.5t-2 -8.5q-8 -12 -23 -12q-4 0 -14 1t-14 1h-17q-8 0 -35.5 1t-35.5 1q-6 0 -21.5 -1t-32 -1t-30.5 -1l-13 -1q-10 0 -21 6t-11 23z" />
<glyph unicode="&#xa5;" horiz-adv-x="854" d="M-8 1391q0 29 16.5 39t38.5 10q8 0 16.5 -1t16.5 -1q16 -2 32.5 -3t32.5 -1q8 0 28 1t42.5 2t41.5 2t26 1q35 0 46 -19.5t15 -52.5q4 -18 6 -36.5t6 -37.5q4 -31 12.5 -60.5t14.5 -57.5q2 -6 4 -19.5t5 -28t5 -28t2 -17.5q4 -27 11.5 -57.5t11.5 -30.5q2 0 6 13 q2 4 6 25.5t9.5 49t10.5 52t7 34.5q8 43 14 69t9 44t4 34.5t4 41.5q0 14 2 29.5t9 27.5t21.5 19.5t38.5 7.5q6 0 23.5 -1t37 -2t37 -2t23.5 -1t22.5 1t34.5 1q18 2 36 2h24q31 0 41 -13.5t10 -29.5q0 -6 -2 -20.5t-12 -39.5q-10 -29 -14.5 -41t-10.5 -41q-4 -23 -10 -44 t-12 -44q-4 -12 -14.5 -41.5t-23 -63.5t-22.5 -64.5t-14 -43.5q-4 -23 -11.5 -55.5t-7.5 -36.5q0 -10 10.5 -13t16.5 -3q4 0 18.5 3t18.5 3q23 0 27 -14.5t4 -44.5v-19q0 -6 2 -26.5t2 -26.5q0 -25 -12.5 -29t-20.5 -4q-6 0 -25.5 1t-25.5 1q-8 0 -32 -1t-30 -5 q-4 -2 -9 -14.5t-10 -25.5t-10.5 -26.5t-7.5 -19.5l-5 -10t-3 -10q0 -18 58 -19q4 0 16 1t25.5 1t24.5 1t18 1q29 0 37 -18.5t8 -20.5t-1 -7t-1 -7q-2 -8 -3 -21v-40q0 -18 -9 -34t-46 -16q-8 0 -32.5 2t-32.5 2h-43q-39 0 -45.5 -11t-1.5 -44q2 -8 1 -34.5t-1 -37.5 q0 -35 2 -71.5t6 -73.5q0 -16 2 -37.5t2 -38.5q0 -23 -8.5 -34t-18.5 -16t-20.5 -6t-16.5 -1t-21.5 1t-33.5 1t-33.5 1t-21.5 1h-30.5t-29.5 -2q-18 -2 -30.5 -3t-16.5 -1q-55 0 -55 57q0 8 1 37t1 39v22.5t-1 35t-1 36v23.5v20.5t1 30.5t1 31.5v21.5v17q0 6 2 12 q0 10 -8 16t-19 6h-21t-31.5 -1t-32 -1h-21.5q-41 0 -51.5 11.5t-12.5 21.5q0 2 -1 14.5t-1 24.5v23v12q0 41 21.5 48t62.5 7q10 0 41 -2t41 -2q8 0 16.5 3t8.5 11q0 6 -6 17q0 2 -4 13t-8.5 22.5t-8.5 21.5t-4 14q-4 20 -12 27q-4 4 -26.5 4h-28.5t-26 -2t-26 -2 q-45 0 -45 37q0 4 1 15.5t1 15.5q0 6 -1 30.5t-1 32.5q0 20 12.5 25.5t22.5 5.5q6 0 11 -1t10 -1q4 0 12 1t12 1q10 0 15 6q2 4 2 8t-3.5 13.5t-6.5 19.5t-7 18.5t-4 10.5q-8 18 -20.5 55t-26.5 81t-27.5 90t-23.5 83q-10 45 -25 92q-10 27 -13 38t-3 28z" />
<glyph unicode="&#xa8;" horiz-adv-x="425" d="M-70 1403q0 37 21.5 43t32.5 6q8 0 36.5 -2t38.5 -2q8 0 37 1t39 1q35 0 41 -17.5t6 -58.5q0 -4 1 -24.5t1 -26.5q-2 -14 -2 -25q0 -10 -1 -18t-1 -10q-2 -4 -11 -17.5t-30 -13.5q-4 0 -15 1t-15 1q-10 0 -43 -1t-43 -1h-35q-41 0 -47.5 19.5t-6.5 48.5q0 6 -1 19 t-1 28.5t-1 29t-1 19.5zM248 1409q0 31 14 36t25 5h26.5t40 -1t41 -1h27.5q4 0 19.5 1t21.5 1q27 0 31 -14.5t4 -32.5q0 -6 -1 -29.5t-1 -30.5q0 -12 1 -25t1 -26q0 -27 -13.5 -38t-50.5 -13q-6 0 -24.5 -1t-40 -1t-40 -1t-24.5 -1q-41 0 -47 12.5t-6 36.5v17.5t-1 34 t-1 32.5v16q0 4 -1 10.5t-1 12.5z" />
<glyph unicode="&#xa9;" horiz-adv-x="1705" d="M125 723q0 156 58.5 290t158.5 231t232.5 152.5t279.5 55.5q158 0 291 -58.5t230.5 -157.5t152.5 -231.5t55 -279.5q0 -152 -56.5 -285t-154.5 -232t-231 -156.5t-289 -57.5q-141 0 -273.5 53t-232.5 149.5t-160.5 230.5t-60.5 296zM190 723q0 -139 52.5 -261t142.5 -211 t211 -140.5t258 -51.5q141 0 262 52.5t210 142.5t140.5 211t51.5 258t-50.5 258t-139.5 211t-209 142t-261 52t-263 -52t-212 -142t-141.5 -211t-51.5 -258zM358 723q0 104 35 197.5t100.5 164t161 111.5t215.5 41q84 0 149.5 -18.5t114 -45t82 -57.5t56.5 -53l-178 -172 q-47 45 -99.5 72.5t-126.5 27.5q-68 0 -117 -23.5t-79.5 -60.5t-45 -85t-14.5 -97q0 -119 70 -191.5t190 -72.5q45 0 81 10t63.5 24.5t46 30t31.5 27.5l178 -164q-98 -102 -198.5 -137t-203.5 -35q-127 0 -222 41t-159.5 110.5t-97.5 161t-33 193.5z" />
<glyph unicode="&#xaa;" horiz-adv-x="598" d="M63 979q0 55 9.5 109.5t38.5 89.5q35 45 73.5 55t55.5 10q23 0 36 -4t35 -14q4 -4 8 -4q10 0 12.5 7t2.5 11q0 35 -19.5 46t-58.5 11q-33 0 -59 -8q-6 -2 -23.5 -10t-21.5 -8q-12 0 -21.5 6t-13.5 10q-4 6 -5 16.5t-1 45.5q2 4 1 21.5t-1 23.5q0 16 7 27.5t36 19.5 q41 12 61.5 14t30.5 2q8 0 31.5 1t31.5 1l21 -1q22 -1 52 -7t60.5 -18.5t49.5 -34.5q8 -10 18 -35t10 -94q0 -4 -1 -24.5t-1 -26.5v-15.5t1 -24t1 -23.5v-17q0 -47 -1 -110.5t-1 -111.5q0 -6 1 -32.5t1 -34.5q0 -12 -1 -25.5t-1 -21.5v-37q0 -4 -4 -18.5t-33 -14.5 q-8 0 -32.5 1t-32.5 1q-6 0 -27.5 -2t-28.5 -2q-4 0 -9 1t-9 9q-2 2 -2 13.5t-4 11.5q-2 0 -8 -6q-16 -18 -40 -25.5t-48 -7.5q-20 0 -49 5t-58 28q-20 18 -33.5 43.5t-21.5 55.5t-11.5 61.5t-3.5 60.5zM250 967q0 -31 8 -52.5t31 -21.5q14 0 22 8t11.5 20.5t3.5 23.5v18v65 q0 25 -12.5 37t-24.5 12q-8 0 -19.5 -8t-17.5 -31q-2 -8 -2 -27.5v-43.5z" />
<glyph unicode="&#xab;" horiz-adv-x="641" d="M20 713q0 16 7.5 23t23.5 24q6 6 32 30.5t56.5 54t57 56.5t34.5 35q10 10 21.5 20.5t19.5 10.5q12 0 13 -21q0 -10 -2 -14v-14.5t-1 -26.5t-1 -27.5v-15.5v-18.5t1 -32t1 -31.5v-18q2 -6 2 -13.5v-13.5q0 -18 -6.5 -26.5t-20.5 -22.5q-16 -16 -39.5 -38.5t-46.5 -45.5 q6 -10 10 -15.5t19 -17.5q6 -6 25.5 -26.5t25.5 -26.5q23 -20 29 -29.5t6 -28.5q0 -6 -1 -12t-1 -12q-2 -23 -2 -57.5v-36.5v-31.5t2 -32.5q0 -6 2 -23.5t2 -23.5q0 -10 -4 -14t-9 -4q-8 0 -24 16l-27 27l-53.5 53.5l-58.5 58.5q-4 4 -14.5 15.5t-21.5 23.5t-20.5 21.5 l-11.5 11.5q-16 14 -19 21.5t-3 29.5v19.5t1 28t1 27.5v19q0 8 -1 28.5t-1 43.5t-1.5 43.5t-1.5 28.5zM344 698q0 14 16 29q23 23 36.5 37t21.5 22.5t14 12.5t12 10q10 8 12.5 12t12.5 15q4 6 19.5 20t32 30.5t30.5 31t18 18.5q12 16 23 16q10 0 12 -8t2 -12t-1 -8t-1 -9 q0 -6 -1 -19t-2 -27.5t-1 -28v-17.5v-18t2 -19q0 -8 2 -33.5t2 -35.5q0 -16 -6 -24.5t-22 -24.5l-13.5 -13.5l-27 -27t-29 -28.5t-19.5 -17q12 -16 39 -45t52 -50q16 -14 23 -22t7 -31q0 -6 -1 -20.5t-1 -31.5t-1 -33.5t-1 -22.5v-31.5t2 -32.5v-12t2 -17q0 -10 2 -20 q0 -10 -7 -13t-11 -3q-6 0 -17.5 10t-21.5 20q-8 8 -34.5 36t-57.5 58.5t-55.5 55l-26.5 26.5q-16 14 -24.5 24.5t-8.5 29.5q0 4 1 19.5t1 19.5v28.5t-1 43t-1 44v29.5q-2 8 -3 30.5t-1 26.5z" />
<glyph unicode="&#xad;" horiz-adv-x="468" d="M14 479.5v28.5v23.5v37v37v25.5q0 41 8.5 64.5t38.5 23.5q8 0 32 -1t32 -1h57h30.5t31.5 -2q14 0 28.5 -1t28.5 -1q6 0 22.5 1t34 2t31.5 2l14 1q18 0 37 -13.5t19 -39.5q0 -4 -1 -15.5t-1 -25t-1 -24.5t-1 -17v-72q0 -29 -3 -48.5t-22 -29.5q-10 -6 -22.5 -7t-63.5 -1 q-20 2 -49 1t-49 -1q-4 0 -23.5 2t-23.5 2t-22.5 -1t-24.5 -1q-10 0 -20.5 1t-20.5 1q-6 0 -25.5 -2t-24.5 -2q-18 0 -28 7t-14.5 19.5t-4.5 27z" />
<glyph unicode="&#xae;" horiz-adv-x="1705" d="M125 723q0 158 58.5 291t157.5 230t231.5 152.5t279.5 55.5q158 0 292 -58.5t231.5 -157.5t152.5 -231.5t55 -279.5q0 -152 -56.5 -285t-154.5 -232t-232 -156.5t-290 -57.5q-141 0 -272.5 53t-231.5 149.5t-160.5 230.5t-60.5 296zM190 723q0 -139 52.5 -261t142.5 -211 t210 -140.5t257 -51.5q141 0 263 52.5t211 142.5t140.5 211t51.5 260q0 135 -50.5 256t-139.5 211t-210 142t-262 52t-262 -52t-211 -142t-141.5 -211t-51.5 -258zM512 262v938h334q61 0 117.5 -3t103.5 -19q90 -29 128 -97.5t38 -134.5q0 -53 -17.5 -89t-42 -60.5t-53 -40 t-51.5 -25.5q20 -12 36.5 -25.5t29 -32t21.5 -47t18 -71.5q14 -98 29.5 -163.5t49.5 -129.5h-258q-23 43 -32 92t-19 111q-10 70 -18 107.5t-28.5 56t-57.5 22.5t-103 4v-393h-225zM737 834h99q51 0 80.5 3t50.5 15q23 12 32 35.5t9 46.5t-10.5 47.5t-39.5 36.5q-10 4 -20 6 t-26.5 3t-42 1h-64.5h-68v-194z" />
<glyph unicode="&#xaf;" horiz-adv-x="425" d="M-33 1294q2 6 1 30t-1 30q0 45 18.5 53t30.5 8q6 0 30 -1t30 -1t21.5 1t34 1t34.5 1t22 1t31 -2t33 -2t27.5 1t41 3t42 3t28.5 1q68 0 68 -41v-47q0 -10 -1 -24.5t-5 -28.5t-15.5 -23.5t-29.5 -9.5q-4 0 -19.5 1t-19.5 1t-16.5 -1t-26 -1t-25.5 -1t-18 -1q-8 0 -37 1 t-39 1q-8 0 -27.5 -1t-43 -3t-44 -3t-29.5 -1q-16 0 -40.5 2t-38.5 12t-16.5 18.5t-0.5 22.5z" />
<glyph unicode="&#xb2;" horiz-adv-x="598" d="M37 690q0 20 5 27.5t26 23.5q6 6 13 12.5t13 12.5l25.5 25.5t34 37t31 36t20.5 24.5q6 10 12 19.5t12 19.5q10 14 18.5 27.5t18.5 25.5q10 16 18.5 30.5t16.5 30.5q6 12 13.5 24.5t11.5 31t7 44t3 64.5q0 6 -1 18.5t-5 24t-15.5 19.5t-29.5 8q-39 0 -51.5 -32t-12.5 -70 q0 -4 2 -20.5t2 -20.5t-6 -20.5t-37 -18.5h-80q-41 0 -47 13t-6 62q0 14 3 40t6 51.5t6.5 47t3.5 27.5q23 72 92 107q25 12 61.5 20t61.5 8q27 -2 52 -4t48 -10q8 -4 30.5 -13t28.5 -13q14 -8 32 -26t33 -46.5t25.5 -69.5t10.5 -96q0 -10 -1 -41t-5 -41q0 -4 -5 -16 q0 -12 -2 -21q-2 -8 -12 -38.5t-24 -53.5q-8 -16 -16.5 -31.5t-16.5 -31.5q-23 -47 -57.5 -90.5t-57.5 -65.5q-8 -4 -8 -8t7 -4h30q6 0 27.5 -1t27.5 -1q8 0 31.5 2t32.5 2q27 0 36 -10.5t9 -36.5q0 -6 -2 -30t-2 -30q0 -4 1 -19.5t1 -19.5q0 -23 -5.5 -41t-33.5 -18 q-6 0 -11.5 1t-11.5 1q-10 2 -25.5 3t-31 1h-26.5h-11h-19.5t-29 -1t-29.5 -1h-20q-31 0 -60.5 1t-60.5 1h-16.5t-27 -1t-26.5 -1h-18q-23 0 -30 11t-5 44q0 10 -1 42t-1 42z" />
<glyph unicode="&#xb3;" horiz-adv-x="598" d="M18 651q0 6 3.5 11.5t19.5 27.5q27 33 34 45.5t17 28.5q12 20 18.5 24.5t28.5 4.5q14 0 19.5 -4.5t17.5 -18.5q25 -31 70 -31q51 0 67.5 30t16.5 75q0 8 -2 23.5t-10.5 29.5t-26 25.5t-47.5 11.5q-6 0 -26.5 -2t-27.5 -2q-10 0 -26.5 7t-16.5 32q0 4 1.5 20.5t1.5 20.5 q0 8 -3.5 34.5t-3.5 34.5q0 33 20.5 40t24.5 7t19.5 -2t19.5 -2q41 0 71 22.5t30 59.5q0 29 -21.5 48.5t-52.5 19.5q-29 0 -55 -17q-10 -6 -12.5 -9t-8.5 -15q-4 -4 -8 -9t-16 -5t-19 6q-16 18 -31 34q-12 14 -23 26.5t-15 16.5q-12 12 -15.5 18.5t-3.5 20.5q0 12 3 18.5 t24 26.5q20 20 48 36t54.5 26t51 14t40.5 4h20.5t18.5 -2q4 0 15.5 -1t15.5 -3q18 -2 62 -16.5t81 -63.5q27 -35 37 -68.5t10 -86.5q0 -41 -16 -85t-72 -83l6 -6q27 -20 34 -27.5t22 -24.5q29 -37 37 -84t8 -75v-41.5t-2 -30.5t-6 -27.5t-13 -33.5q-8 -20 -14 -34t-13 -24 t-15.5 -18t-18.5 -21l-26.5 -26.5t-38 -24.5t-56.5 -17.5t-82 -7.5q-29 0 -50.5 2.5t-44 10.5t-50 22.5t-64.5 36.5q-18 10 -26.5 19.5t-8.5 27.5z" />
<glyph unicode="&#xb4;" horiz-adv-x="425" d="M23 1245q0 8 3 15.5t7 15.5q2 6 8 22.5t13 35t13.5 35.5t10.5 24q2 4 4 10l4 12q6 16 14.5 25.5t40.5 9.5q6 0 19.5 -1t29 -1t29.5 -1t21 -1h32q6 0 19.5 1t30 1t31 1t20.5 1q31 0 30 -25q0 -14 -8 -25t-35 -36q-10 -10 -17 -18.5t-17 -16.5q-16 -16 -36 -37.5t-24 -25.5 l-25.5 -25.5t-23.5 -21.5h-14.5h-27.5h-28.5h-19.5t-29.5 -1t-31.5 -1t-25.5 2.5t-17.5 25.5z" />
<glyph unicode="&#xb5;" d="M29 1051q0 8 1 22t6 28.5t17.5 26t34.5 11.5q10 0 31 -4h13t23.5 -1t23.5 -1h16q4 0 17 1t27.5 2t28 2t19.5 1q10 0 30.5 -7.5t20.5 -48.5v-17t-1 -27.5t-1 -28v-19.5q0 -10 1 -36.5t2 -57.5t2 -58.5t1 -39.5q0 -10 -1 -33t-2 -49.5t-2 -50t-1 -33.5v-40v-62.5t1 -62.5 t1 -42v-16.5t-1 -25.5t-1 -25.5v-18.5q0 -18 11 -36.5t52 -18.5q35 0 51.5 26.5t16.5 102.5q0 6 -1 23.5t-1 37t-1 37.5t-1 27v123v117.5t-2 117.5q0 8 -1 31.5t-1 50.5t-1 50.5t-1 33.5q0 25 7 49.5t50 24.5q2 0 24.5 -2t24.5 -2q10 -2 21.5 -2.5t21.5 -0.5q47 0 56 3 q4 0 23.5 3t23.5 3q39 0 51 -17.5t12 -36.5q0 -4 -1 -20t-1 -23v-15t-1 -29.5t-1 -34v-27.5v-20.5t1 -32t1 -32.5v-22q0 -10 1 -36.5t1 -57v-59.5v-43q0 -12 -1 -47t-2 -75t-2 -77t-1 -51q0 -6 1 -24.5t1 -38t1 -38t1 -26.5t-1 -35.5t-1 -36.5q0 -6 1 -21.5t2 -33.5t2 -33.5 t1 -21.5q0 -41 -13 -57.5t-44 -16.5q-4 0 -16.5 1t-27 1t-26.5 1t-18 1q-33 0 -53.5 -2t-28.5 -2q-8 -2 -16.5 -2h-16.5q-23 0 -32 7t-11 11q-2 6 -1 11.5t-1 11.5q-4 14 -8 14t-12 -12q-14 -18 -26.5 -30.5t-35.5 -12.5q-6 0 -13 1t-12 5q-6 6 -9 15.5t-9 13.5q-4 4 -12 4 q0 -20 1 -29.5t3 -36.5v-53q0 -4 2 -20.5t2 -20.5q0 -10 -9 -27.5t-44 -17.5q-8 0 -14.5 1t-14.5 1q-14 2 -27.5 3t-27.5 1q-6 0 -22.5 -1t-36 -2t-37 -2t-23.5 -1q-47 0 -47 49q0 6 1 24.5t3 38t3 38t1 24.5q0 16 -1 33.5t-1 34.5q0 10 -1 35.5t-2 54.5t-1 55.5v36.5 q0 23 -1 53.5t-2 62t-2 58.5t-1 41v52t1 81t1 82v55v103.5t-2 101.5q0 23 -2 52.5t-2 52.5z" />
<glyph unicode="&#xb7;" horiz-adv-x="382" d="M29 446q0 10 2 42t2 42v72t-2 60q0 8 -1 15t-1 13q0 27 9 41t38 14h16q10 -2 28.5 -2h72.5h25t26 2q12 0 24.5 1.5t24.5 1.5t19 -1.5t12 -3.5q4 -2 15 -13t11 -32q0 -4 -1 -6t-1 -6q0 -16 -1 -46t-1 -56v-20.5t1 -32t1 -33v-21.5q0 -39 -9 -61.5t-44 -20.5q-12 0 -29.5 1 t-37 1h-38h-30.5q-10 0 -40 -2t-40 -2q-18 0 -34.5 10.5t-16.5 42.5z" />
<glyph unicode="&#xb8;" horiz-adv-x="425" d="M90 -141q0 43 36 73.5t83 30.5q18 0 39.5 -7t40 -22.5t32 -41t13.5 -64.5t-15.5 -84t-50.5 -86q-12 -16 -26.5 -29.5t-28.5 -27.5q-8 -8 -18.5 -17.5t-22.5 -9.5q-8 0 -17.5 10t-16.5 24.5t-12 28t-5 17.5v2q0 4 12 17.5t23 23.5q14 18 14 33q0 16 -8 24t-19 15 q-8 4 -30.5 26.5t-22.5 63.5z" />
<glyph unicode="&#xb9;" horiz-adv-x="598" d="M59 1217q0 10 6.5 17t10.5 11l18.5 18.5l18.5 18.5t14 17.5t22.5 27.5t23.5 27.5t15 19.5q6 6 29 27.5t29 28.5q14 16 25.5 25t27.5 9q8 0 32.5 -2t33.5 -2h57q18 0 31.5 -6t13.5 -41v-33q-2 -29 -3 -61.5t-1 -61.5q0 -8 1 -33.5t1 -33.5v-16.5t-1 -26.5t-1 -26.5v-18.5 q0 -8 1 -36t1 -36t-1 -36.5t-1 -39.5v-24.5t1 -39t1 -38.5v-27q0 -4 -1 -16t-1 -26.5t-1 -27t-1 -18.5t1 -20.5t1 -31.5t1 -33.5t1 -22.5q0 -53 -6 -68.5t-47 -15.5h-16.5t-27 1t-26.5 1h-18h-56q-39 0 -39 49q0 14 1 28.5t3 28.5v133q0 20 1.5 77t2.5 119t2 119.5t1 82.5 q0 2 1 7t1 9t-6 4q-4 0 -20.5 -19.5t-20.5 -25.5q-14 -20 -21.5 -29.5t-17.5 -9.5t-16.5 6.5l-16.5 16.5q-4 4 -17.5 14t-23.5 21q-6 4 -14.5 14.5t-8.5 24.5z" />
<glyph unicode="&#xba;" horiz-adv-x="598" d="M61 1126q0 92 9.5 153.5t54.5 111.5q35 39 84 53t100 14q31 0 65 -8t64.5 -27.5t53 -51.5t30.5 -81q10 -53 11.5 -109.5t1.5 -111.5q0 -74 -3.5 -119t-9.5 -72.5t-13 -43t-15 -27.5q-8 -14 -22.5 -31.5t-37 -32t-55.5 -23.5t-80 -9q-82 0 -135 34q-20 12 -39 33t-29 43 q-10 23 -16 44.5t-10 54t-6.5 80.5t-2.5 126zM262 979q0 -29 4 -52.5t29 -23.5q31 0 36 26.5t5 47.5q0 8 -1 30.5t-1 47t-1 47t-1 33.5v61q0 29 -6 49.5t-31 20.5q-27 0 -31 -30t-2 -83v-174z" />
<glyph unicode="&#xbb;" horiz-adv-x="641" d="M23 948q0 10 6 14.5t10 4.5q12 0 24 -17q4 -4 25 -24.5t45.5 -45t45 -46t26.5 -27.5q31 -29 47 -45.5t24.5 -26.5t9.5 -15t1 -13q0 -6 -1 -27t-1 -27v-80q0 -6 1 -21t2 -31.5t2 -32t1 -21.5q0 -16 -4 -22.5t-21 -18.5l-33 -33l-14 -14t-21.5 -20.5t-22.5 -20.5t-15 -14 q-6 -6 -20.5 -21.5t-30 -31t-27.5 -28t-12 -14.5q-10 -10 -15.5 -15t-13.5 -5t-10 8t-2 12q0 6 4 19v16t1 26.5t1 25.5v12v30.5t-2 30.5q0 6 -3 30.5t-3 26.5q0 10 5.5 20.5t30.5 33.5q16 16 41 40.5t43 41.5q-27 29 -54 57.5t-42 38.5q-14 12 -20 21.5t-6 27.5q0 14 2 23 q2 23 2 39v28v40t-2 44q0 4 -2 22.5t-2 24.5zM348 946q0 20 14 21q4 0 8.5 -3t18.5 -18l43 -43t63.5 -64.5t59.5 -61t31 -32.5q16 -16 23 -25t7 -32q0 -8 -2 -36.5t-2 -39.5q0 -8 1 -30.5t1 -47t1 -44t1 -21.5q0 -14 -2 -26.5t-10 -22.5l-21.5 -21.5t-44 -42t-47 -44 t-28.5 -27.5q-8 -10 -15.5 -18.5t-17.5 -18.5q-12 -8 -18 -15q-8 -10 -15.5 -19t-19.5 -15q-8 -4 -12 -4q-8 0 -10.5 8t-2.5 14q0 10 2 14q2 16 2 48v40q0 53 -1 72t-1 29q-2 6 -2 22t4 23.5t19 19.5q8 6 14 13.5t12 13.5q4 2 13.5 11t19.5 19.5t19.5 19.5t13.5 13 q-31 33 -42 43.5t-26 26.5q-35 37 -42 47t-7 27q0 6 1 12t1 10q2 25 2 55.5v41.5v31.5t-2 31.5q0 4 -2 23.5t-2 21.5z" />
<glyph unicode="&#xbf;" horiz-adv-x="598" d="M47 326v18q2 35 13.5 76t25.5 78t27.5 66.5t19.5 41.5q10 23 20.5 42.5t18.5 39.5q16 45 21.5 90t5.5 92q0 18 -1 38t-1 38q0 25 6 50.5t41 25.5q4 0 21.5 -1t23.5 -1h90q12 0 27.5 -4t25.5 -29q0 -2 3 -17.5t5 -35t4 -42t2 -38.5q0 -41 -2 -75t-7 -67.5t-14 -73.5 t-24 -91q-14 -51 -22 -85t-8 -56q0 -43 23.5 -63.5t45.5 -20.5q6 0 11.5 1t11.5 3q10 4 19 8t20 6h4q14 0 23.5 -7t12.5 -16.5t4 -19.5t1 -14q0 -8 -1 -35t-1 -37v-24.5t1 -38t1 -38v-24.5q0 -25 -10.5 -47.5t-53.5 -32.5q-10 -2 -28.5 -5t-41 -5t-46 -3t-39.5 -1 q-35 0 -76 7t-84 30q-14 6 -32.5 19t-35.5 34q-37 43 -43 82t-6 94q0 8 -1 33.5t-1 34.5zM147 1155q0 10 1.5 37t2.5 56.5t2 56t1 38.5q0 4 -1 23t-1 23q0 37 23.5 46t29.5 9q6 2 25.5 1t25.5 -1h22.5h35h36h23.5q63 0 82.5 -7t19.5 -48q0 -6 -1 -22.5t-1 -35t-1 -35 t-1 -22.5v-23.5t1 -38t1 -38v-25.5q0 -25 -11 -41t-40 -16q-8 0 -32.5 2t-33.5 2h-49q-8 0 -33.5 1t-35.5 1q-4 0 -19.5 -1t-19.5 -1q-51 0 -52 59z" />
<glyph unicode="&#xc0;" horiz-adv-x="854" d="M-4 45q0 31 8 76t19 86q14 59 24 119.5t21 119.5q6 47 11 91.5t15 89.5q4 25 9.5 49t11.5 47q10 55 20 110.5t23 108.5q8 37 15 74t17 74q10 51 21.5 102t21.5 104l7 43q2 10 4 21.5t4 21.5q4 23 11 43.5t36 20.5q8 0 27.5 -1t42 -1t42 -1t27.5 -1t26.5 1t39 1t39 1 t26.5 1q20 0 34.5 -4t25.5 -27q4 -8 9 -36.5t9 -61.5t8 -63.5t8 -43.5q2 -14 5.5 -26.5t5.5 -26.5q4 -16 6 -32.5t6 -32.5q4 -29 10 -55.5t13 -55.5q14 -66 28.5 -149.5t26.5 -161.5t20 -136.5t11 -72.5q8 -59 16 -119.5t20 -120.5q4 -23 9.5 -47t9.5 -47q4 -10 8 -35.5 t4 -42.5q0 -49 -55 -49q-6 0 -19.5 1t-28 1t-27.5 1t-19 1t-23.5 -1t-36 -3t-35 -3t-22.5 -1q-53 0 -62.5 19.5t-9.5 52.5q0 8 -2 35.5t-2 35.5q0 16 -2 35t-10 35t-23.5 27.5t-42.5 11.5q-8 0 -14 -1l-18 -3q-16 -4 -24.5 -8.5t-19.5 -20.5q-6 -10 -9 -18.5t-4 -21.5 t-2 -36.5t-3 -66.5q0 -12 -2 -24.5t-9 -23t-21.5 -17.5t-41.5 -7q-4 0 -15 1t-24 3q-12 2 -24 2h-39h-30.5t-31.5 -2q-25 -4 -34 -4h-29q-33 0 -40 16.5t-7 28.5zM172 1772q0 16 11.5 21t19.5 5q4 0 8 -1t8 -1q6 0 18.5 -1t27 -1h27.5h19h13q25 0 58.5 2t57.5 2q31 0 40 -11 t20 -46q2 -6 8 -24.5t14 -38t14.5 -37t10.5 -23.5q8 -16 8 -27q0 -16 -13.5 -21t-29.5 -5q-8 -2 -32.5 0t-35.5 2q-8 0 -36.5 -1t-36.5 -1q-10 0 -15.5 4t-15.5 16q-8 12 -21 21q-6 6 -23 24.5t-37.5 40t-38 40t-25.5 26.5q-8 6 -15.5 14.5t-7.5 20.5zM375 594 q0 -20 16.5 -26.5t38.5 -6.5q16 0 35.5 5t19.5 34q0 6 -6 50t-13 95.5t-13.5 93.5t-6.5 46q0 35 -16 35q-2 0 -5 -12.5t-6 -27t-5 -27.5t-2 -15q-2 -14 -8.5 -52t-12.5 -78t-11 -74t-5 -40z" />
<glyph unicode="&#xc1;" horiz-adv-x="854" d="M-4 45q0 31 8 76t19 86q14 59 24 119.5t21 119.5q6 47 11 91.5t15 89.5q4 25 9.5 49t11.5 47q10 55 20 110.5t23 108.5q8 37 15 74t17 74q10 51 21.5 102t21.5 104l7 43q2 10 4 21.5t4 21.5q4 23 11 43.5t36 20.5q8 0 27.5 -1t42 -1t42 -1t27.5 -1t26.5 1t39 1t39 1 t26.5 1q20 0 34.5 -4t25.5 -27q4 -8 9 -36.5t9 -61.5t8 -63.5t8 -43.5q2 -14 5.5 -26.5t5.5 -26.5q4 -16 6 -32.5t6 -32.5q4 -29 10 -55.5t13 -55.5q14 -66 28.5 -149.5t26.5 -161.5t20 -136.5t11 -72.5q8 -59 16 -119.5t20 -120.5q4 -23 9.5 -47t9.5 -47q4 -10 8 -35.5 t4 -42.5q0 -49 -55 -49q-6 0 -19.5 1t-28 1t-27.5 1t-19 1t-23.5 -1t-36 -3t-35 -3t-22.5 -1q-53 0 -62.5 19.5t-9.5 52.5q0 8 -2 35.5t-2 35.5q0 16 -2 35t-10 35t-23.5 27.5t-42.5 11.5q-8 0 -14 -1l-18 -3q-16 -4 -24.5 -8.5t-19.5 -20.5q-6 -10 -9 -18.5t-4 -21.5 t-2 -36.5t-3 -66.5q0 -12 -2 -24.5t-9 -23t-21.5 -17.5t-41.5 -7q-4 0 -15 1t-24 3q-12 2 -24 2h-39h-30.5t-31.5 -2q-25 -4 -34 -4h-29q-33 0 -40 16.5t-7 28.5zM319 1593q0 4 9.5 29t20.5 53.5t21.5 54t12.5 33.5q6 16 14.5 24.5t36.5 8.5h27.5t42 -1t42 -1h27.5h42.5 t39.5 2q4 2 15 2q31 0 30 -24q0 -10 -6 -19.5t-32 -36.5q-8 -8 -28 -28.5t-40.5 -42t-38.5 -40t-23 -24.5q-8 -10 -12 -14t-12 -4h-18.5t-28 1t-28.5 1h-19q-4 0 -25.5 -1t-28.5 -1q-6 0 -23.5 2.5t-17.5 25.5zM375 594q0 -20 16.5 -26.5t38.5 -6.5q16 0 35.5 5t19.5 34 q0 6 -6 50t-13 95.5t-13.5 93.5t-6.5 46q0 35 -16 35q-2 0 -5 -12.5t-6 -27t-5 -27.5t-2 -15q-2 -14 -8.5 -52t-12.5 -78t-11 -74t-5 -40z" />
<glyph unicode="&#xc2;" horiz-adv-x="854" d="M-4 45q0 31 8 76t19 86q14 59 24 119.5t21 119.5q6 47 11 91.5t15 89.5q4 25 9.5 49t11.5 47q10 55 20 110.5t23 108.5q8 37 15 74t17 74q10 51 21.5 102t21.5 104l7 43q2 10 4 21.5t4 21.5q4 23 11 43.5t36 20.5q8 0 27.5 -1t42 -1t42 -1t27.5 -1t26.5 1t39 1t39 1 t26.5 1q20 0 34.5 -4t25.5 -27q4 -8 9 -36.5t9 -61.5t8 -63.5t8 -43.5q2 -14 5.5 -26.5t5.5 -26.5q4 -16 6 -32.5t6 -32.5q4 -29 10 -55.5t13 -55.5q14 -66 28.5 -149.5t26.5 -161.5t20 -136.5t11 -72.5q8 -59 16 -119.5t20 -120.5q4 -23 9.5 -47t9.5 -47q4 -10 8 -35.5 t4 -42.5q0 -49 -55 -49q-6 0 -19.5 1t-28 1t-27.5 1t-19 1t-23.5 -1t-36 -3t-35 -3t-22.5 -1q-53 0 -62.5 19.5t-9.5 52.5q0 8 -2 35.5t-2 35.5q0 16 -2 35t-10 35t-23.5 27.5t-42.5 11.5q-8 0 -14 -1l-18 -3q-16 -4 -24.5 -8.5t-19.5 -20.5q-6 -10 -9 -18.5t-4 -21.5 t-2 -36.5t-3 -66.5q0 -12 -2 -24.5t-9 -23t-21.5 -17.5t-41.5 -7q-4 0 -15 1t-24 3q-12 2 -24 2h-39h-30.5t-31.5 -2q-25 -4 -34 -4h-29q-33 0 -40 16.5t-7 28.5zM170 1593q0 8 3 13.5t17 21.5q18 20 25 35q2 6 11.5 18.5t20.5 27.5t20 27.5t14 18.5q8 12 20 25.5t31 13.5 q4 0 20.5 -1t20.5 -1q8 0 32.5 -1t34.5 -1q4 0 16.5 1t27 2t26.5 2t18 1q35 0 48.5 -15.5t23.5 -31.5q18 -29 40 -57.5t42 -55.5q6 -10 15.5 -23.5t9.5 -27.5q0 -12 -10.5 -17t-22.5 -5q-6 0 -27.5 1t-28.5 1q-8 0 -20 -1t-27 -1q-16 -2 -34 -2q-6 0 -13.5 -1t-13.5 -1 q-25 0 -36 20t-15 31q-2 6 -7.5 15t-17.5 9q-8 0 -13 -6t-9 -12q-4 -10 -5 -18.5t-6 -16.5q-2 -4 -8 -12t-20 -8q-4 0 -14.5 1t-23.5 1t-25.5 1t-18.5 1q-8 0 -37 -1t-37 -1q-16 0 -31.5 3.5t-15.5 26.5zM375 594q0 -20 16.5 -26.5t38.5 -6.5q16 0 35.5 5t19.5 34q0 6 -6 50 t-13 95.5t-13.5 93.5t-6.5 46q0 35 -16 35q-2 0 -5 -12.5t-6 -27t-5 -27.5t-2 -15q-2 -14 -8.5 -52t-12.5 -78t-11 -74t-5 -40z" />
<glyph unicode="&#xc3;" horiz-adv-x="854" d="M-4 45q0 31 8 76t19 86q14 59 24 119.5t21 119.5q6 47 11 91.5t15 89.5q4 25 9.5 49t11.5 47q10 55 20 110.5t23 108.5q8 37 15 74t17 74q10 51 21.5 102t21.5 104l7 43q2 10 4 21.5t4 21.5q4 23 11 43.5t36 20.5q8 0 27.5 -1t42 -1t42 -1t27.5 -1t26.5 1t39 1t39 1 t26.5 1q20 0 34.5 -4t25.5 -27q4 -8 9 -36.5t9 -61.5t8 -63.5t8 -43.5q2 -14 5.5 -26.5t5.5 -26.5q4 -16 6 -32.5t6 -32.5q4 -29 10 -55.5t13 -55.5q14 -66 28.5 -149.5t26.5 -161.5t20 -136.5t11 -72.5q8 -59 16 -119.5t20 -120.5q4 -23 9.5 -47t9.5 -47q4 -10 8 -35.5 t4 -42.5q0 -49 -55 -49q-6 0 -19.5 1t-28 1t-27.5 1t-19 1t-23.5 -1t-36 -3t-35 -3t-22.5 -1q-53 0 -62.5 19.5t-9.5 52.5q0 8 -2 35.5t-2 35.5q0 16 -2 35t-10 35t-23.5 27.5t-42.5 11.5q-8 0 -14 -1l-18 -3q-16 -4 -24.5 -8.5t-19.5 -20.5q-6 -10 -9 -18.5t-4 -21.5 t-2 -36.5t-3 -66.5q0 -12 -2 -24.5t-9 -23t-21.5 -17.5t-41.5 -7q-4 0 -15 1t-24 3q-12 2 -24 2h-39h-30.5t-31.5 -2q-25 -4 -34 -4h-29q-33 0 -40 16.5t-7 28.5zM98 1606q0 4 4 17t7 17q23 68 72.5 101t119.5 33q16 0 29.5 -1t29.5 -4q27 -4 51.5 -9t51.5 -9q6 0 33.5 -3 t33.5 -3q4 0 15.5 2t21.5 12q4 6 8.5 12.5t10.5 8.5h4q8 0 12 -2q25 -6 80 -13q41 -6 56.5 -10t15.5 -16q-4 -16 -11 -33q-6 -14 -14 -30.5t-18 -30.5q-43 -53 -92.5 -64.5t-77.5 -11.5q-27 0 -52.5 4t-50.5 10q-25 4 -54.5 10t-45.5 6t-29 -6q-10 -6 -17 -16t-18 -12h-4 q-2 0 -27.5 4t-33.5 6q-8 0 -32.5 5t-33.5 5q-18 2 -31.5 5t-13.5 16zM375 594q0 -20 16.5 -26.5t38.5 -6.5q16 0 35.5 5t19.5 34q0 6 -6 50t-13 95.5t-13.5 93.5t-6.5 46q0 35 -16 35q-2 0 -5 -12.5t-6 -27t-5 -27.5t-2 -15q-2 -14 -8.5 -52t-12.5 -78t-11 -74t-5 -40z" />
<glyph unicode="&#xc4;" horiz-adv-x="854" d="M-4 45q0 31 8 76t19 86q14 59 24 119.5t21 119.5q6 47 11 91.5t15 89.5q4 25 9.5 49t11.5 47q10 55 20 110.5t23 108.5q8 37 15 74t17 74q10 51 21.5 102t21.5 104l7 43q2 10 4 21.5t4 21.5q4 23 11 43.5t36 20.5q8 0 27.5 -1t42 -1t42 -1t27.5 -1t26.5 1t39 1t39 1 t26.5 1q20 0 34.5 -4t25.5 -27q4 -8 9 -36.5t9 -61.5t8 -63.5t8 -43.5q2 -14 5.5 -26.5t5.5 -26.5q4 -16 6 -32.5t6 -32.5q4 -29 10 -55.5t13 -55.5q14 -66 28.5 -149.5t26.5 -161.5t20 -136.5t11 -72.5q8 -59 16 -119.5t20 -120.5q4 -23 9.5 -47t9.5 -47q4 -10 8 -35.5 t4 -42.5q0 -49 -55 -49q-6 0 -19.5 1t-28 1t-27.5 1t-19 1t-23.5 -1t-36 -3t-35 -3t-22.5 -1q-53 0 -62.5 19.5t-9.5 52.5q0 8 -2 35.5t-2 35.5q0 16 -2 35t-10 35t-23.5 27.5t-42.5 11.5q-8 0 -14 -1l-18 -3q-16 -4 -24.5 -8.5t-19.5 -20.5q-6 -10 -9 -18.5t-4 -21.5 t-2 -36.5t-3 -66.5q0 -12 -2 -24.5t-9 -23t-21.5 -17.5t-41.5 -7q-4 0 -15 1t-24 3q-12 2 -24 2h-39h-30.5t-31.5 -2q-25 -4 -34 -4h-29q-33 0 -40 16.5t-7 28.5zM160 1726q0 35 21.5 41.5t33.5 6.5q8 0 32.5 -2.5t33.5 -2.5h16t26.5 1.5t26.5 1.5h19q4 0 14 -1.5t18 -9.5 t9.5 -20t1.5 -53q0 -4 1 -21.5t1 -24.5q0 -12 -2 -35.5t-13 -33.5q-8 -8 -17 -9t-36 -1h-26.5t-40 -1t-40 -1h-26.5q-31 0 -40 16t-9 25v32v36t-2 34q0 6 -1 11t-1 11zM375 594q0 -20 16.5 -26.5t38.5 -6.5q16 0 35.5 5t19.5 34q0 6 -6 50t-13 95.5t-13.5 93.5t-6.5 46 q0 35 -16 35q-2 0 -5 -12.5t-6 -27t-5 -27.5t-2 -15q-2 -14 -8.5 -52t-12.5 -78t-11 -74t-5 -40zM477 1729q0 29 13.5 37t37.5 8h23.5t37 -1t38 -1h26.5q4 0 18.5 1t18.5 1q23 0 28 -10.5t7 -18.5t1 -35t-1 -35q0 -6 1 -25.5t1 -25.5q0 -31 -9 -44t-50 -15q-4 0 -24.5 -1 t-46.5 -2t-47.5 -1h-27.5q-33 0 -39 24q-2 4 -2 25.5v29.5v11q0 8 -2 37.5t-2 40.5z" />
<glyph unicode="&#xc5;" horiz-adv-x="854" d="M-4 45q0 31 8 76t19 86q14 59 24 119.5t21 119.5q6 47 11 91.5t15 89.5q4 25 9.5 49t11.5 47q10 55 20 110.5t23 108.5q8 37 15 74t17 74q10 51 21.5 102t21.5 104l7 43q2 10 4 21.5t4 21.5q4 23 11 43.5t36 20.5q8 0 27.5 -1t42 -1t42 -1t27.5 -1t26.5 1t39 1t39 1 t26.5 1q20 0 34.5 -4t25.5 -27q4 -8 9 -36.5t9 -61.5t8 -63.5t8 -43.5q2 -14 5.5 -26.5t5.5 -26.5q4 -16 6 -32.5t6 -32.5q4 -29 10 -55.5t13 -55.5q14 -66 28.5 -149.5t26.5 -161.5t20 -136.5t11 -72.5q8 -59 16 -119.5t20 -120.5q4 -23 9.5 -47t9.5 -47q4 -10 8 -35.5 t4 -42.5q0 -49 -55 -49q-6 0 -19.5 1t-28 1t-27.5 1t-19 1t-23.5 -1t-36 -3t-35 -3t-22.5 -1q-53 0 -62.5 19.5t-9.5 52.5q0 8 -2 35.5t-2 35.5q0 16 -2 35t-10 35t-23.5 27.5t-42.5 11.5q-8 0 -14 -1l-18 -3q-16 -4 -24.5 -8.5t-19.5 -20.5q-6 -10 -9 -18.5t-4 -21.5 t-2 -36.5t-3 -66.5q0 -12 -2 -24.5t-9 -23t-21.5 -17.5t-41.5 -7q-4 0 -15 1t-24 3q-12 2 -24 2h-39h-30.5t-31.5 -2q-25 -4 -34 -4h-29q-33 0 -40 16.5t-7 28.5zM195 1679q0 55 23.5 94t58 65t75.5 37t78 11q61 0 106.5 -19.5t75 -50t45 -65.5t15.5 -65q0 -53 -22.5 -92.5 t-58.5 -66t-79 -39.5t-84 -13q-111 0 -172 61t-61 143zM317 1673q0 -35 32 -58.5t77 -23.5q37 0 59.5 10.5t34.5 25.5t16.5 30.5t4.5 25.5q0 25 -27 53.5t-88 28.5q-33 0 -71 -22.5t-38 -69.5zM375 594q0 -20 16.5 -26.5t38.5 -6.5q16 0 35.5 5t19.5 34q0 6 -6 50t-13 95.5 t-13.5 93.5t-6.5 46q0 35 -16 35q-2 0 -5 -12.5t-6 -27t-5 -27.5t-2 -15q-2 -14 -8.5 -52t-12.5 -78t-11 -74t-5 -40z" />
<glyph unicode="&#xc6;" horiz-adv-x="1110" d="M-2 49q0 20 3 43t5 31q8 39 16.5 77t18.5 76q14 76 25 154q4 18 5 37.5t5 40.5q2 18 11 66.5t19.5 102.5t20.5 103t14 70q4 25 7.5 41t6.5 30.5t7 32t10 43.5q14 57 25.5 105.5t19.5 92.5t15.5 88t15.5 93q8 41 18 55.5t56 14.5q4 0 17 -1t27.5 -1t28 -1t19.5 -1t22.5 1 t36 1t36.5 1t23 1q8 0 38 -1t40 -1h24.5t38 1t38 1h26.5t29.5 -1t46.5 -1t46.5 -1t31.5 -1q27 2 51.5 2h50.5q78 0 78 -78q0 -4 -1 -16.5t-1 -26.5t-1 -26.5t-1 -18.5q0 -8 1 -33.5t1 -36.5q0 -57 -29.5 -66t-95.5 -9q-33 0 -64.5 1t-64.5 1h-14t-20.5 1t-19.5 1h-11 t-14.5 -2t-12.5 -15l2 -20q2 -19 4 -42.5t5 -46t5 -30.5q0 -8 4 -25q0 -16 2 -26q2 -4 4.5 -10.5t6.5 -10.5q4 -2 10 -2h31q16 0 31.5 2t31.5 2q16 2 31.5 2h32.5h57q4 0 16.5 1t16.5 1q23 0 36 -19t13 -48v-19.5t-1 -29t-1 -29.5v-20q0 -45 -2 -75t-11.5 -47.5t-28 -24.5 t-52.5 -7q-6 0 -20.5 1t-31 2t-31 2t-20.5 1h-16t-19 2h-16q-10 0 -19.5 -5t-9.5 -24q0 -10 1 -19t3 -19q2 -33 5.5 -52.5t5.5 -34t4 -27.5t6 -32q10 -47 23.5 -55t35.5 -8q31 -2 72 -1t72 1q29 0 56.5 -8.5t27.5 -57.5q0 -16 -2 -36.5t-2 -37.5v-25.5v-41t-1 -40t-1 -26.5 q0 -20 -7.5 -31.5t-30 -17.5t-64.5 -7t-111 -1q-8 0 -31 1t-47.5 1t-47 1t-30.5 1h-31.5t-32.5 -2q-14 0 -27.5 -2t-27.5 -2q-49 0 -61.5 16.5t-14.5 38.5q-2 23 -3 44.5t-1 43.5q0 14 -2 31.5t-10 33t-24.5 27t-47.5 11.5q-6 0 -22.5 -1t-32.5 -12q-8 -6 -15.5 -12 t-13.5 -20.5t-9 -39t-3 -65.5q0 -35 -10 -63.5t-62 -28.5q-6 0 -20 1t-31.5 2t-34 2t-22.5 1t-20.5 -1t-32 -2t-33 -2t-21.5 -1q-23 0 -40 6t-17 43zM373 600q0 -33 21.5 -39t37.5 -6q18 0 39 6t21 41q0 16 -3 25q-4 16 -7 55t-7 83t-7 83t-5 55q-6 37 -6 45q0 10 -4.5 13.5 t-6.5 3.5q-6 0 -12 -15.5t-10 -34t-6 -36t-2 -21.5q-2 -12 -4 -23.5t-6 -23.5q-2 -6 -5.5 -23.5t-6.5 -38t-6 -38t-5 -25.5q-6 -29 -8 -46t-2 -40z" />
<glyph unicode="&#xc7;" horiz-adv-x="681" d="M47 713q0 35 1 62.5t2 53t2 52t3 59.5q4 53 8.5 95t12.5 78t21.5 71t35.5 73q18 35 36.5 57.5t36 40t36.5 30t39 24.5q27 16 66.5 32.5t123.5 16.5q2 0 21.5 -1t44 -2t48 -4t36.5 -7q2 0 11 -4t18 -12.5t17.5 -20.5t8.5 -29q0 -6 -1 -26.5t-1 -26.5v-28.5t1 -43t1 -44 v-29.5q0 -4 -1 -15.5t-6 -23t-17.5 -20.5t-33.5 -9q-10 0 -20 2l-20 4q-25 6 -50 6q-39 0 -75.5 -18.5t-53.5 -65.5q-8 -20 -12 -63t-7 -90t-4 -93t-1 -73q0 -66 2 -134.5t18 -121.5q12 -41 43 -75t90 -44q10 -2 34 -2h42q53 -4 63.5 -27.5t10.5 -46.5v-20t-1 -30.5t-1 -32 v-21.5q0 -4 1 -16.5t1 -25.5t1 -25.5t1 -18.5q0 -29 -20.5 -58.5t-79.5 -29.5h-33q-78 6 -142.5 13t-123.5 36q-27 12 -54.5 32.5t-74.5 82.5q-37 45 -57.5 107.5t-31 135t-13.5 152.5t-3 162zM303 -139q0 47 38 77.5t79 30.5q51 0 89 -37.5t38 -97.5q0 -29 -12.5 -75 t-51.5 -95q-2 -4 -14 -17.5t-27.5 -28.5t-32 -27.5t-24.5 -12.5q-10 0 -19.5 11.5t-17.5 25.5t-12 26.5t-4 16.5q0 12 16 25q20 16 27.5 25t7.5 24q0 16 -10.5 25.5t-22.5 19.5l-8 8t-16.5 20.5t-15.5 27t-7 28.5z" />
<glyph unicode="&#xc8;" horiz-adv-x="768" d="M49 1370q0 31 15.5 52.5t56.5 21.5h16.5t26.5 -2q14 0 27.5 -1t17.5 -1q10 0 37.5 1t59.5 3t60.5 3t41.5 1q8 0 29.5 -1t46 -1t46 -1t31.5 -1q16 0 34.5 1t37.5 1q59 0 73.5 -24.5t14.5 -71.5q0 -16 -1 -30.5t-1 -31.5q0 -6 1 -31.5t1 -33.5q0 -51 -18.5 -70.5 t-65.5 -19.5q-12 0 -25.5 1t-25.5 1h-35q-12 0 -24.5 1t-24.5 1q-10 0 -40 -1t-40 -1t-22.5 -3.5t-20.5 -19.5q-6 -10 -7 -22.5t1 -55.5q0 -8 -1 -30.5t-1 -30.5q0 -35 14 -48.5t61 -13.5h58.5t77.5 2q12 2 24 2h25q16 0 37.5 -4t36.5 -22q4 -6 7 -11.5t4 -18.5t1 -36.5 v-66.5q0 -8 1 -32t1 -32q0 -57 -22.5 -78.5t-71.5 -21.5q-6 0 -22.5 1t-36 2t-37 2t-23.5 1q-78 0 -98.5 -11.5t-24.5 -33.5q-2 -8 0 -37t2 -39q0 -6 -1 -29.5t-1 -31.5q0 -59 15.5 -72.5t54.5 -11.5h17t27.5 -1t27 -1h18.5t29.5 1t31.5 1q51 0 82 -3t45 -15.5t18.5 -37 t4.5 -67.5v-117q0 -25 -9.5 -55.5t-54.5 -38.5h-31.5h-57.5h-61.5h-39.5t-41 -1t-41 -1q-6 0 -21.5 1t-32 2l-33 2t-22.5 1q-10 0 -34.5 -1t-53 -2t-54.5 -2t-36 -1q-31 0 -52.5 18.5t-21.5 57.5q0 2 1 36.5t1 77.5t1 83t1 55q0 16 -1 61t-3 95t-3 95.5t-1 63.5v24.5t1 38 t1 38v26.5q0 43 -1 87t-1 87v29.5t1 45t1 45v32.5q0 6 -1 23.5t-1 38t-1 37.5t-1 26v75q0 10 -1 39t-1 39zM119 1772q0 16 11 21t20 5q4 0 8 -1t8 -1q6 0 18.5 -1t26.5 -1h27.5h19.5h12q25 0 58.5 2t58.5 2q31 0 40 -11t19 -46q2 -6 8.5 -24.5t14.5 -38t14 -37t11 -23.5 q8 -16 8 -27q0 -16 -13.5 -21t-29.5 -5q-8 -2 -33 0t-35 2q-8 0 -36.5 -1t-37.5 -1q-10 0 -15 4t-15 16q-8 12 -21 21q-6 6 -23.5 24.5t-38 40t-37.5 40t-26 26.5q-8 6 -15 14.5t-7 20.5z" />
<glyph unicode="&#xc9;" horiz-adv-x="768" d="M49 1370q0 31 15.5 52.5t56.5 21.5h16.5t26.5 -2q14 0 27.5 -1t17.5 -1q10 0 37.5 1t59.5 3t60.5 3t41.5 1q8 0 29.5 -1t46 -1t46 -1t31.5 -1q16 0 34.5 1t37.5 1q59 0 73.5 -24.5t14.5 -71.5q0 -16 -1 -30.5t-1 -31.5q0 -6 1 -31.5t1 -33.5q0 -51 -18.5 -70.5 t-65.5 -19.5q-12 0 -25.5 1t-25.5 1h-35q-12 0 -24.5 1t-24.5 1q-10 0 -40 -1t-40 -1t-22.5 -3.5t-20.5 -19.5q-6 -10 -7 -22.5t1 -55.5q0 -8 -1 -30.5t-1 -30.5q0 -35 14 -48.5t61 -13.5h58.5t77.5 2q12 2 24 2h25q16 0 37.5 -4t36.5 -22q4 -6 7 -11.5t4 -18.5t1 -36.5 v-66.5q0 -8 1 -32t1 -32q0 -57 -22.5 -78.5t-71.5 -21.5q-6 0 -22.5 1t-36 2t-37 2t-23.5 1q-78 0 -98.5 -11.5t-24.5 -33.5q-2 -8 0 -37t2 -39q0 -6 -1 -29.5t-1 -31.5q0 -59 15.5 -72.5t54.5 -11.5h17t27.5 -1t27 -1h18.5t29.5 1t31.5 1q51 0 82 -3t45 -15.5t18.5 -37 t4.5 -67.5v-117q0 -25 -9.5 -55.5t-54.5 -38.5h-31.5h-57.5h-61.5h-39.5t-41 -1t-41 -1q-6 0 -21.5 1t-32 2l-33 2t-22.5 1q-10 0 -34.5 -1t-53 -2t-54.5 -2t-36 -1q-31 0 -52.5 18.5t-21.5 57.5q0 2 1 36.5t1 77.5t1 83t1 55q0 16 -1 61t-3 95t-3 95.5t-1 63.5v24.5t1 38 t1 38v26.5q0 43 -1 87t-1 87v29.5t1 45t1 45v32.5q0 6 -1 23.5t-1 38t-1 37.5t-1 26v75q0 10 -1 39t-1 39zM266 1593q0 4 9.5 29t20.5 53.5t21.5 54t12.5 33.5q6 16 14 24.5t37 8.5h27.5t42 -1t42 -1h27.5h42.5t39.5 2q4 2 14 2q31 0 31 -24q0 -10 -6 -19.5t-33 -36.5 q-8 -8 -27.5 -28.5t-40 -42t-39 -40t-22.5 -24.5q-8 -10 -12 -14t-12 -4h-18.5t-28 1t-28.5 1h-20q-4 0 -25.5 -1t-27.5 -1t-23.5 2.5t-17.5 25.5z" />
<glyph unicode="&#xca;" horiz-adv-x="768" d="M49 1370q0 31 15.5 52.5t56.5 21.5h16.5t26.5 -2q14 0 27.5 -1t17.5 -1q10 0 37.5 1t59.5 3t60.5 3t41.5 1q8 0 29.5 -1t46 -1t46 -1t31.5 -1q16 0 34.5 1t37.5 1q59 0 73.5 -24.5t14.5 -71.5q0 -16 -1 -30.5t-1 -31.5q0 -6 1 -31.5t1 -33.5q0 -51 -18.5 -70.5 t-65.5 -19.5q-12 0 -25.5 1t-25.5 1h-35q-12 0 -24.5 1t-24.5 1q-10 0 -40 -1t-40 -1t-22.5 -3.5t-20.5 -19.5q-6 -10 -7 -22.5t1 -55.5q0 -8 -1 -30.5t-1 -30.5q0 -35 14 -48.5t61 -13.5h58.5t77.5 2q12 2 24 2h25q16 0 37.5 -4t36.5 -22q4 -6 7 -11.5t4 -18.5t1 -36.5 v-66.5q0 -8 1 -32t1 -32q0 -57 -22.5 -78.5t-71.5 -21.5q-6 0 -22.5 1t-36 2t-37 2t-23.5 1q-78 0 -98.5 -11.5t-24.5 -33.5q-2 -8 0 -37t2 -39q0 -6 -1 -29.5t-1 -31.5q0 -59 15.5 -72.5t54.5 -11.5h17t27.5 -1t27 -1h18.5t29.5 1t31.5 1q51 0 82 -3t45 -15.5t18.5 -37 t4.5 -67.5v-117q0 -25 -9.5 -55.5t-54.5 -38.5h-31.5h-57.5h-61.5h-39.5t-41 -1t-41 -1q-6 0 -21.5 1t-32 2l-33 2t-22.5 1q-10 0 -34.5 -1t-53 -2t-54.5 -2t-36 -1q-31 0 -52.5 18.5t-21.5 57.5q0 2 1 36.5t1 77.5t1 83t1 55q0 16 -1 61t-3 95t-3 95.5t-1 63.5v24.5t1 38 t1 38v26.5q0 43 -1 87t-1 87v29.5t1 45t1 45v32.5q0 6 -1 23.5t-1 38t-1 37.5t-1 26v75q0 10 -1 39t-1 39zM117 1593q0 8 3 13.5t17 21.5q18 20 25 35q2 6 11 18.5t20.5 27.5t20.5 27.5t13 18.5q8 12 20.5 25.5t31.5 13.5q4 0 20 -1t20 -1q8 0 33 -1t35 -1q4 0 16.5 1 t26.5 2t26.5 2t18.5 1q35 0 48.5 -15.5t23.5 -31.5q18 -29 39.5 -57.5t42.5 -55.5q6 -10 15 -23.5t9 -27.5q0 -12 -10 -17t-22 -5q-6 0 -28 1t-28 1q-8 0 -20.5 -1t-26.5 -1q-16 -2 -35 -2q-6 0 -13 -1t-13 -1q-25 0 -36 20t-15 31q-2 6 -7.5 15t-17.5 9q-8 0 -13.5 -6 t-9.5 -12q-4 -10 -5 -18.5t-5 -16.5q-2 -4 -8 -12t-21 -8q-4 0 -14 1t-23.5 1t-25.5 1t-18 1q-8 0 -37 -1t-37 -1q-16 0 -31.5 3.5t-15.5 26.5z" />
<glyph unicode="&#xcb;" horiz-adv-x="768" d="M49 1370q0 31 15.5 52.5t56.5 21.5h16.5t26.5 -2q14 0 27.5 -1t17.5 -1q10 0 37.5 1t59.5 3t60.5 3t41.5 1q8 0 29.5 -1t46 -1t46 -1t31.5 -1q16 0 34.5 1t37.5 1q59 0 73.5 -24.5t14.5 -71.5q0 -16 -1 -30.5t-1 -31.5q0 -6 1 -31.5t1 -33.5q0 -51 -18.5 -70.5 t-65.5 -19.5q-12 0 -25.5 1t-25.5 1h-35q-12 0 -24.5 1t-24.5 1q-10 0 -40 -1t-40 -1t-22.5 -3.5t-20.5 -19.5q-6 -10 -7 -22.5t1 -55.5q0 -8 -1 -30.5t-1 -30.5q0 -35 14 -48.5t61 -13.5h58.5t77.5 2q12 2 24 2h25q16 0 37.5 -4t36.5 -22q4 -6 7 -11.5t4 -18.5t1 -36.5 v-66.5q0 -8 1 -32t1 -32q0 -57 -22.5 -78.5t-71.5 -21.5q-6 0 -22.5 1t-36 2t-37 2t-23.5 1q-78 0 -98.5 -11.5t-24.5 -33.5q-2 -8 0 -37t2 -39q0 -6 -1 -29.5t-1 -31.5q0 -59 15.5 -72.5t54.5 -11.5h17t27.5 -1t27 -1h18.5t29.5 1t31.5 1q51 0 82 -3t45 -15.5t18.5 -37 t4.5 -67.5v-117q0 -25 -9.5 -55.5t-54.5 -38.5h-31.5h-57.5h-61.5h-39.5t-41 -1t-41 -1q-6 0 -21.5 1t-32 2l-33 2t-22.5 1q-10 0 -34.5 -1t-53 -2t-54.5 -2t-36 -1q-31 0 -52.5 18.5t-21.5 57.5q0 2 1 36.5t1 77.5t1 83t1 55q0 16 -1 61t-3 95t-3 95.5t-1 63.5v24.5t1 38 t1 38v26.5q0 43 -1 87t-1 87v29.5t1 45t1 45v32.5q0 6 -1 23.5t-1 38t-1 37.5t-1 26v75q0 10 -1 39t-1 39zM102 1726q0 35 21.5 41.5t34.5 6.5q8 0 32.5 -2.5t32.5 -2.5h16.5t27 1.5t26.5 1.5h18q4 0 14.5 -1.5t18.5 -9.5t9 -20t1 -53q0 -4 1 -21.5t1 -24.5q0 -12 -2 -35.5 t-12 -33.5q-8 -8 -17.5 -9t-35.5 -1h-26.5t-40 -1t-40 -1h-26.5q-31 0 -40.5 16t-9.5 25v32v36t-2 34q0 6 -1 11t-1 11zM420 1729q0 29 13 37t38 8h23.5t37 -1t38 -1h26.5q4 0 18.5 1t18.5 1q23 0 28 -10.5t7 -18.5t1 -35t-1 -35q0 -6 1 -25.5t1 -25.5q0 -31 -9.5 -44 t-50.5 -15q-4 0 -24.5 -1t-46 -2t-47 -1h-27.5q-33 0 -39 24q-2 4 -2 25.5v29.5v11q0 8 -2 37.5t-2 40.5z" />
<glyph unicode="&#xcc;" horiz-adv-x="425" d="M-51 1772q0 16 11 21t20 5q4 0 8 -1t8 -1q6 0 18.5 -1t26.5 -1h27.5h19.5h12q25 0 59 2t58 2q31 0 40 -11t19 -46q2 -6 8.5 -24.5t14.5 -38t14 -37t11 -23.5q8 -16 8 -27q0 -16 -13.5 -21t-29.5 -5q-8 -2 -33 0t-35 2q-8 0 -36.5 -1t-37.5 -1q-10 0 -15 4t-15 16 q-8 12 -21 21q-6 6 -23.5 24.5t-38 40t-37.5 40t-26 26.5q-8 6 -15 14.5t-7 20.5zM41 76v4q0 10 1 38.5t1 60.5t1 60.5t1 41.5v53v59v59.5v51.5q0 14 1 50t3 77t3 77.5t1 53.5q0 8 -1 27.5t-1 43t-1 44t-1 28.5q0 6 1 21.5t2 32t2 32t1 21.5v35.5t-1 54t-1 55.5v37q0 8 1 37 t1 39q0 6 -1 19.5t-1 28.5t-1 28.5t-1 19.5q0 45 13.5 62.5t52.5 17.5q6 0 19.5 -1t28.5 -1t29.5 -1t20.5 -1t22.5 1t36 1t37 1t23.5 1q18 0 27.5 -7t14.5 -17.5t6 -20.5t1 -15q0 -10 -1 -19t-3 -19q-2 -18 -3 -38t-1 -38v-103.5t-2 -103.5q0 -27 1 -63.5t1 -63.5 q0 -4 -1 -16.5t-1 -25.5t-1 -24.5t-1 -17.5v-28.5t1 -43t1 -44v-29.5t-1 -31t-1 -47.5t-1 -47t-1 -30.5v-23.5t1 -38t1 -38v-23.5q0 -12 -1 -45t-2 -69.5t-2 -70.5t-1 -48q0 -23 1 -44.5t1 -43.5q2 -6 3 -27t1 -27q0 -12 -9.5 -30.5t-39.5 -22.5q-6 -2 -33 -1t-37 1h-30.5 t-49.5 -1t-50.5 -1h-31.5q-37 0 -43 28.5t-6 47.5z" />
<glyph unicode="&#xcd;" horiz-adv-x="425" d="M41 76v4q0 10 1 38.5t1 60.5t1 60.5t1 41.5v53v59v59.5v51.5q0 14 1 50t3 77t3 77.5t1 53.5q0 8 -1 27.5t-1 43t-1 44t-1 28.5q0 6 1 21.5t2 32t2 32t1 21.5v35.5t-1 54t-1 55.5v37q0 8 1 37t1 39q0 6 -1 19.5t-1 28.5t-1 28.5t-1 19.5q0 45 13.5 62.5t52.5 17.5 q6 0 19.5 -1t28.5 -1t29.5 -1t20.5 -1t22.5 1t36 1t37 1t23.5 1q18 0 27.5 -7t14.5 -17.5t6 -20.5t1 -15q0 -10 -1 -19t-3 -19q-2 -18 -3 -38t-1 -38v-103.5t-2 -103.5q0 -27 1 -63.5t1 -63.5q0 -4 -1 -16.5t-1 -25.5t-1 -24.5t-1 -17.5v-28.5t1 -43t1 -44v-29.5t-1 -31 t-1 -47.5t-1 -47t-1 -30.5v-23.5t1 -38t1 -38v-23.5q0 -12 -1 -45t-2 -69.5t-2 -70.5t-1 -48q0 -23 1 -44.5t1 -43.5q2 -6 3 -27t1 -27q0 -12 -9.5 -30.5t-39.5 -22.5q-6 -2 -33 -1t-37 1h-30.5t-49.5 -1t-50.5 -1h-31.5q-37 0 -43 28.5t-6 47.5zM96 1593q0 4 9.5 29 t20.5 53.5t21.5 54t12.5 33.5q6 16 14 24.5t37 8.5h27.5t42 -1t42 -1h27.5h42.5t39.5 2q4 2 14 2q31 0 31 -24q0 -10 -6 -19.5t-33 -36.5q-8 -8 -27.5 -28.5t-40 -42t-39 -40t-22.5 -24.5q-8 -10 -12 -14t-12 -4h-18.5t-28 1t-28.5 1h-20q-4 0 -25.5 -1t-27.5 -1t-23.5 2.5 t-17.5 25.5z" />
<glyph unicode="&#xce;" horiz-adv-x="425" d="M-53 1593q0 8 3 13.5t17 21.5q18 20 25 35q2 6 11 18.5t20.5 27.5t20.5 27.5t13 18.5q8 12 20.5 25.5t31.5 13.5q4 0 20 -1t21 -1q8 0 32.5 -1t34.5 -1q4 0 16.5 1t26.5 2t26.5 2t18.5 1q35 0 48.5 -15.5t23.5 -31.5q18 -29 39.5 -57.5t42.5 -55.5q6 -10 15 -23.5 t9 -27.5q0 -12 -10 -17t-22 -5q-6 0 -28 1t-28 1q-8 0 -20.5 -1t-26.5 -1q-16 -2 -35 -2q-6 0 -13 -1t-13 -1q-25 0 -36 20t-15 31q-2 6 -7.5 15t-17.5 9q-8 0 -13 -6l-10 -12q-4 -10 -5 -18.5t-5 -16.5q-2 -4 -8 -12t-20 -8q-4 0 -14.5 1t-24 1t-25.5 1t-18 1q-8 0 -37 -1 t-37 -1q-16 0 -31.5 3.5t-15.5 26.5zM41 76v4q0 10 1 38.5t1 60.5t1 60.5t1 41.5v53v59v59.5v51.5q0 14 1 50t3 77t3 77.5t1 53.5q0 8 -1 27.5t-1 43t-1 44t-1 28.5q0 6 1 21.5t2 32t2 32t1 21.5v35.5t-1 54t-1 55.5v37q0 8 1 37t1 39q0 6 -1 19.5t-1 28.5t-1 28.5t-1 19.5 q0 45 13.5 62.5t52.5 17.5q6 0 19.5 -1t28.5 -1t29.5 -1t20.5 -1t22.5 1t36 1t37 1t23.5 1q18 0 27.5 -7t14.5 -17.5t6 -20.5t1 -15q0 -10 -1 -19t-3 -19q-2 -18 -3 -38t-1 -38v-103.5t-2 -103.5q0 -27 1 -63.5t1 -63.5q0 -4 -1 -16.5t-1 -25.5t-1 -24.5t-1 -17.5v-28.5 t1 -43t1 -44v-29.5t-1 -31t-1 -47.5t-1 -47t-1 -30.5v-23.5t1 -38t1 -38v-23.5q0 -12 -1 -45t-2 -69.5t-2 -70.5t-1 -48q0 -23 1 -44.5t1 -43.5q2 -6 3 -27t1 -27q0 -12 -9.5 -30.5t-39.5 -22.5q-6 -2 -33 -1t-37 1h-30.5t-49.5 -1t-50.5 -1h-31.5q-37 0 -43 28.5t-6 47.5z " />
<glyph unicode="&#xcf;" horiz-adv-x="425" d="M-68 1726q0 35 21.5 41.5t34.5 6.5q8 0 32.5 -2.5t32.5 -2.5h16.5t27 1.5t26.5 1.5h18q4 0 14.5 -1.5t18.5 -9.5t9 -20t1 -53q0 -4 1 -21.5t1 -24.5q0 -12 -2 -35.5t-12 -33.5q-8 -8 -17.5 -9t-35.5 -1h-26.5t-40 -1t-40 -1h-26.5q-31 0 -40 16t-9 25v32v36t-3 34 q0 6 -1 11t-1 11zM41 76v4q0 10 1 38.5t1 60.5t1 60.5t1 41.5v53v59v59.5v51.5q0 14 1 50t3 77t3 77.5t1 53.5q0 8 -1 27.5t-1 43t-1 44t-1 28.5q0 6 1 21.5t2 32t2 32t1 21.5v35.5t-1 54t-1 55.5v37q0 8 1 37t1 39q0 6 -1 19.5t-1 28.5t-1 28.5t-1 19.5q0 45 13.5 62.5 t52.5 17.5q6 0 19.5 -1t28.5 -1t29.5 -1t20.5 -1t22.5 1t36 1t37 1t23.5 1q18 0 27.5 -7t14.5 -17.5t6 -20.5t1 -15q0 -10 -1 -19t-3 -19q-2 -18 -3 -38t-1 -38v-103.5t-2 -103.5q0 -27 1 -63.5t1 -63.5q0 -4 -1 -16.5t-1 -25.5t-1 -24.5t-1 -17.5v-28.5t1 -43t1 -44v-29.5 t-1 -31t-1 -47.5t-1 -47t-1 -30.5v-23.5t1 -38t1 -38v-23.5q0 -12 -1 -45t-2 -69.5t-2 -70.5t-1 -48q0 -23 1 -44.5t1 -43.5q2 -6 3 -27t1 -27q0 -12 -9.5 -30.5t-39.5 -22.5q-6 -2 -33 -1t-37 1h-30.5t-49.5 -1t-50.5 -1h-31.5q-37 0 -43 28.5t-6 47.5zM250 1729 q0 29 13 37t38 8h23.5t37 -1t38 -1h26.5q4 0 18.5 1t18.5 1q23 0 28 -10.5t7 -18.5t1 -35t-1 -35q0 -6 1 -25.5t1 -25.5q0 -31 -9.5 -44t-50.5 -15q-4 0 -24.5 -1t-46 -2t-47 -1h-27.5q-33 0 -39 24q-2 4 -2 25.5v29.5v11q0 8 -2 37.5t-2 40.5z" />
<glyph unicode="&#xd0;" horiz-adv-x="894" d="M-2 852q0 14 9 17t11 3q4 0 9.5 -1t9.5 -1q2 0 11 3.5t9 21.5q0 4 -1 16.5t-1 16.5q0 8 1 16t1 17q2 25 2 49v51q2 29 2 56.5v56.5q0 8 -1 33.5t-2 53t-2 53t-1 36.5q0 53 20.5 73.5t76.5 20.5q16 0 31.5 -1t31.5 -1q31 -2 60.5 -3t60.5 -1q8 0 31.5 1t49 1t49 1t34.5 1 q49 0 89 -12.5t67.5 -30t46 -34.5t24.5 -26q6 -8 11 -14t9.5 -14t10.5 -20.5t16 -33.5q14 -27 27 -53q10 -20 19 -56t16 -73q0 -6 4 -44t7 -87t6 -99t3 -81q0 -29 -1 -57.5t-1 -57.5q0 -16 -1 -26.5t-2 -20.5t-3 -22.5t-4 -32.5q-4 -27 -4 -53.5t-2 -53.5q-2 -35 -6.5 -60.5 t-9.5 -47t-12 -42t-17 -44.5q-6 -16 -11.5 -32.5t-13.5 -33.5q-12 -27 -35.5 -55.5t-58.5 -52.5q-72 -49 -126 -58.5t-95 -11.5h-162q-6 0 -24.5 -1t-40 -1t-40 -1t-26.5 -1q-37 0 -49.5 6t-22.5 16t-20.5 26.5t-10.5 53.5q0 12 1 23.5t1 23.5q2 18 3 38t1 38q0 14 -1 50 t-3 77t-3 78t-1 53q0 6 1 23.5t1 38t1 38t1 25.5q0 4 -1 18.5t-1 18.5t1 17.5t1 17.5q0 6 -2 15t-10 9q-2 0 -8 -1t-8 -1q-31 0 -31 27q0 6 1 24.5t1 24.5v31q0 16 -2 27q0 4 -1 9t-1 9zM375 463q0 -72 5 -102.5t40 -30.5q16 0 30.5 8t24.5 18q33 35 38 120t5 192q0 6 1 19 t1 29.5t1 30t1 19.5q0 2 -2 28.5t-4 59.5t-4 62.5t-2 41.5q-2 29 -5 57.5t-18 65.5q-10 27 -24 40.5t-37 13.5q-33 0 -40 -17.5t-9 -32.5v-17v-27.5v-28v-19.5v-94q0 -18 5 -24.5t24 -6.5q4 0 22 2t23 2q29 0 28 -28q0 -8 -2 -30.5t-2 -31.5v-49q0 -23 -12 -29t-27 -6 q-4 0 -19.5 2t-19.5 2q-16 0 -20 -12q-2 -2 -1 -11t1 -13t-1 -23.5t-1 -26.5v-153z" />
<glyph unicode="&#xd1;" horiz-adv-x="980" d="M51 63q0 6 1 24.5t1 40.5t1 40t1 27v145v32.5t-1 51.5t-1 51.5v34.5v54v70t1 69.5t1 54.5q0 2 1 16t1 29.5t1 29t1 17.5q0 41 -2 81t-2 81q0 10 1 35.5t1 55.5t1 56.5t1 36.5t-1 35.5t-2 55.5t-2 56.5t-1 36.5q0 49 39 56q4 2 23.5 2h25.5h54q8 0 27.5 1t41 1t40 1 t22.5 1q29 0 48 -12.5t42 -69.5q2 -8 9 -28.5t14 -45t13.5 -47t8.5 -31.5q10 -31 21.5 -60.5t21.5 -57.5q10 -31 17 -63t18 -62q2 -10 10 -38t16 -58.5t15.5 -57.5t9.5 -39q2 -16 10 -24l6 -7q2 0 3 7.5t2 16.5t1 16v10q0 6 -1 25.5t-2 45t-3 52t-2 44.5q-2 29 -3 59t-1 58 v22.5t1 35t1 35v22.5q0 31 -3 63.5t-7 79.5q0 10 -1 26.5t-1 31.5q0 47 39 47q6 0 26.5 -1t26.5 -1h72h43t43 4q8 2 15 3t17 1q23 0 37.5 -11.5t14.5 -39.5v-101q0 -29 -1 -70.5t-2 -88t-1 -89.5v-73v-28.5t1 -44.5t1 -46.5v-30.5q0 -12 -1 -44t-2 -67.5t-2.5 -67.5 t-1.5 -46q0 -53 3.5 -104.5t3.5 -104.5q0 -35 -1 -69.5t-1 -69.5q0 -8 1 -31.5t1 -49.5t1 -49.5t1 -33.5q0 -53 -16.5 -68.5t-41.5 -15.5h-13t-15 2q-18 2 -36 2h-34h-48.5t-37.5 -4q-8 0 -19.5 -2t-15.5 -2q-31 0 -46 29.5t-42 113.5q-12 41 -29.5 99.5t-29.5 99.5 q-14 39 -23 70q-4 16 -9 31.5t-9 31.5q-6 23 -13.5 42t-13.5 42q-4 10 -12 40t-17.5 60.5t-16.5 54.5l-7 25q-4 0 -6 -20.5t-2 -36.5q0 -20 2 -31q2 -55 3 -108.5t1 -94.5v-30.5t-1 -48t-1 -49v-31.5v-31.5t1 -31t3 -43t6 -66.5q0 -10 1 -28.5t1 -29.5q0 -23 -7 -35 t-16.5 -17t-19.5 -6t-18 -1h-24.5t-40 1t-40 1h-26.5h-16.5t-26 -1t-25.5 -1h-18q-43 0 -50.5 24.5t-7.5 42.5zM152 1606q0 4 4 17t6 17q23 68 73 101t119 33q16 0 29.5 -1t30.5 -4q27 -4 51 -9t51 -9q6 0 34 -3t34 -3q4 0 15 2t22 12q4 6 8 12.5t10 8.5h4q8 0 12 -2 q25 -6 80 -13q41 -6 56.5 -10t15.5 -16q-4 -16 -10 -33q-6 -14 -14.5 -30.5t-18.5 -30.5q-43 -53 -92 -64.5t-78 -11.5q-27 0 -52.5 4t-49.5 10q-25 4 -54.5 10t-46.5 6q-16 0 -29 -6q-10 -6 -17 -16t-17 -12h-4q-2 0 -28 4t-34 6q-8 0 -32.5 5t-32.5 5q-18 2 -31.5 5 t-13.5 16z" />
<glyph unicode="&#xd2;" horiz-adv-x="894" d="M45 717v16t1 26.5t1 27v18.5v20.5t-1 31.5t-1 32.5v21.5q0 35 2 84t6 99.5t10.5 96.5t16.5 73q12 37 33.5 63.5t45 46t44 31.5t33.5 18q12 6 29.5 14.5t42 14.5t59 10t86.5 4q41 0 96 -6t94 -22q29 -10 64.5 -36t58.5 -54q27 -39 43 -81t24.5 -85t10.5 -85t4 -83v-86 t2 -86q2 -78 4 -154t2 -153q0 -166 -26.5 -281t-112.5 -186q-59 -47 -128 -66.5t-161 -19.5q-111 0 -177.5 34.5t-100.5 73.5q-47 53 -59.5 92t-22.5 82q-6 29 -9.5 47.5t-5.5 36t-2 40v63.5q0 14 -1 52t-2 80t-2 79.5t-1 54.5zM184 1772q0 16 11.5 21t19.5 5q4 0 8 -1t8 -1 q6 0 18.5 -1t27 -1h27.5h20h12q25 0 58.5 2t58.5 2q31 0 40 -11t19 -46q2 -6 8 -24.5t14.5 -38t14.5 -37t10 -23.5q8 -16 8 -27q0 -16 -13 -21t-30 -5q-8 -2 -32.5 0t-34.5 2q-8 0 -37 -1t-37 -1q-10 0 -15.5 4t-15.5 16q-8 12 -20 21q-6 6 -23.5 24.5t-38 40t-38 40 t-25.5 26.5q-8 6 -15.5 14.5t-7.5 20.5zM369 852q0 -37 1 -77t1 -78v-68v-51t1 -74t2 -72t3 -45q2 -10 6 -23.5t11 -27.5t20.5 -23.5t31.5 -9.5q43 0 62.5 33t19.5 80q0 8 -1 28.5t-1 44t-1 44t-1 30.5q0 12 1 46t1 72t1 71.5t1 48.5v60.5t-1 69.5t-2 70.5t-3 61.5 q0 12 -2 30.5t-10 37t-22.5 31t-41.5 12.5q-4 0 -29.5 -7.5t-37.5 -48.5q-4 -14 -6 -40.5t-3 -56.5t-1 -58.5v-42.5v-68z" />
<glyph unicode="&#xd3;" horiz-adv-x="894" d="M45 717v16t1 26.5t1 27v18.5v20.5t-1 31.5t-1 32.5v21.5q0 35 2 84t6 99.5t10.5 96.5t16.5 73q12 37 33.5 63.5t45 46t44 31.5t33.5 18q12 6 29.5 14.5t42 14.5t59 10t86.5 4q41 0 96 -6t94 -22q29 -10 64.5 -36t58.5 -54q27 -39 43 -81t24.5 -85t10.5 -85t4 -83v-86 t2 -86q2 -78 4 -154t2 -153q0 -166 -26.5 -281t-112.5 -186q-59 -47 -128 -66.5t-161 -19.5q-111 0 -177.5 34.5t-100.5 73.5q-47 53 -59.5 92t-22.5 82q-6 29 -9.5 47.5t-5.5 36t-2 40v63.5q0 14 -1 52t-2 80t-2 79.5t-1 54.5zM332 1593q0 4 9 29t20.5 53.5t21.5 54 t12 33.5q6 16 14.5 24.5t36.5 8.5h28t42.5 -1t42 -1h27.5h42t40 2q4 2 14 2q31 0 31 -24q0 -10 -6.5 -19.5t-32.5 -36.5q-8 -8 -27.5 -28.5t-40 -42t-39 -40t-22.5 -24.5q-8 -10 -12.5 -14t-12.5 -4h-18.5t-27.5 1t-28.5 1h-19.5q-4 0 -25.5 -1t-27.5 -1t-23.5 2.5 t-17.5 25.5zM369 852q0 -37 1 -77t1 -78v-68v-51t1 -74t2 -72t3 -45q2 -10 6 -23.5t11 -27.5t20.5 -23.5t31.5 -9.5q43 0 62.5 33t19.5 80q0 8 -1 28.5t-1 44t-1 44t-1 30.5q0 12 1 46t1 72t1 71.5t1 48.5v60.5t-1 69.5t-2 70.5t-3 61.5q0 12 -2 30.5t-10 37t-22.5 31 t-41.5 12.5q-4 0 -29.5 -7.5t-37.5 -48.5q-4 -14 -6 -40.5t-3 -56.5t-1 -58.5v-42.5v-68z" />
<glyph unicode="&#xd4;" horiz-adv-x="894" d="M45 717v16t1 26.5t1 27v18.5v20.5t-1 31.5t-1 32.5v21.5q0 35 2 84t6 99.5t10.5 96.5t16.5 73q12 37 33.5 63.5t45 46t44 31.5t33.5 18q12 6 29.5 14.5t42 14.5t59 10t86.5 4q41 0 96 -6t94 -22q29 -10 64.5 -36t58.5 -54q27 -39 43 -81t24.5 -85t10.5 -85t4 -83v-86 t2 -86q2 -78 4 -154t2 -153q0 -166 -26.5 -281t-112.5 -186q-59 -47 -128 -66.5t-161 -19.5q-111 0 -177.5 34.5t-100.5 73.5q-47 53 -59.5 92t-22.5 82q-6 29 -9.5 47.5t-5.5 36t-2 40v63.5q0 14 -1 52t-2 80t-2 79.5t-1 54.5zM182 1593q0 8 3 13.5t18 21.5q18 20 24 35 q2 6 11.5 18.5t20.5 27.5t20.5 27.5t13.5 18.5q8 12 20.5 25.5t30.5 13.5q4 0 20.5 -1t20.5 -1q8 0 32.5 -1t35.5 -1q4 0 16 1t26.5 2t27 2t18.5 1q35 0 48 -15.5t23 -31.5q18 -29 40 -57.5t42 -55.5q6 -10 15.5 -23.5t9.5 -27.5q0 -12 -10.5 -17t-22.5 -5q-6 0 -27.5 1 t-27.5 1q-8 0 -20.5 -1t-26.5 -1q-16 -2 -35 -2q-6 0 -13.5 -1t-13.5 -1q-25 0 -36 20t-15 31q-2 6 -7 15t-18 9q-8 0 -13 -6t-9 -12q-4 -10 -5 -18.5t-5 -16.5q-2 -4 -8.5 -12t-20.5 -8q-4 0 -14.5 1t-23.5 1t-25.5 1t-18.5 1q-8 0 -36.5 -1t-37.5 -1q-16 0 -31.5 3.5 t-15.5 26.5zM369 852q0 -37 1 -77t1 -78v-68v-51t1 -74t2 -72t3 -45q2 -10 6 -23.5t11 -27.5t20.5 -23.5t31.5 -9.5q43 0 62.5 33t19.5 80q0 8 -1 28.5t-1 44t-1 44t-1 30.5q0 12 1 46t1 72t1 71.5t1 48.5v60.5t-1 69.5t-2 70.5t-3 61.5q0 12 -2 30.5t-10 37t-22.5 31 t-41.5 12.5q-4 0 -29.5 -7.5t-37.5 -48.5q-4 -14 -6 -40.5t-3 -56.5t-1 -58.5v-42.5v-68z" />
<glyph unicode="&#xd5;" horiz-adv-x="894" d="M45 717v16t1 26.5t1 27v18.5v20.5t-1 31.5t-1 32.5v21.5q0 35 2 84t6 99.5t10.5 96.5t16.5 73q12 37 33.5 63.5t45 46t44 31.5t33.5 18q12 6 29.5 14.5t42 14.5t59 10t86.5 4q41 0 96 -6t94 -22q29 -10 64.5 -36t58.5 -54q27 -39 43 -81t24.5 -85t10.5 -85t4 -83v-86 t2 -86q2 -78 4 -154t2 -153q0 -166 -26.5 -281t-112.5 -186q-59 -47 -128 -66.5t-161 -19.5q-111 0 -177.5 34.5t-100.5 73.5q-47 53 -59.5 92t-22.5 82q-6 29 -9.5 47.5t-5.5 36t-2 40v63.5q0 14 -1 52t-2 80t-2 79.5t-1 54.5zM111 1606q0 4 4 17t6 17q23 68 73 101t119 33 q16 0 29.5 -1t30.5 -4q27 -4 51.5 -9t50.5 -9q6 0 34 -3t34 -3q4 0 15 2t22 12q4 6 8 12.5t10 8.5h4q8 0 12 -2q25 -6 80 -13q41 -6 56.5 -10t15.5 -16q-4 -16 -10 -33q-6 -14 -14.5 -30.5t-18.5 -30.5q-43 -53 -92 -64.5t-78 -11.5q-27 0 -52.5 4t-49.5 10q-25 4 -54.5 10 t-46.5 6q-16 0 -28 -6q-10 -6 -17.5 -16t-17.5 -12h-4q-2 0 -28 4t-34 6q-8 0 -32.5 5t-32.5 5q-18 2 -31.5 5t-13.5 16zM369 852q0 -37 1 -77t1 -78v-68v-51t1 -74t2 -72t3 -45q2 -10 6 -23.5t11 -27.5t20.5 -23.5t31.5 -9.5q43 0 62.5 33t19.5 80q0 8 -1 28.5t-1 44t-1 44 t-1 30.5q0 12 1 46t1 72t1 71.5t1 48.5v60.5t-1 69.5t-2 70.5t-3 61.5q0 12 -2 30.5t-10 37t-22.5 31t-41.5 12.5q-4 0 -29.5 -7.5t-37.5 -48.5q-4 -14 -6 -40.5t-3 -56.5t-1 -58.5v-42.5v-68z" />
<glyph unicode="&#xd6;" horiz-adv-x="894" d="M45 717v16t1 26.5t1 27v18.5v20.5t-1 31.5t-1 32.5v21.5q0 35 2 84t6 99.5t10.5 96.5t16.5 73q12 37 33.5 63.5t45 46t44 31.5t33.5 18q12 6 29.5 14.5t42 14.5t59 10t86.5 4q41 0 96 -6t94 -22q29 -10 64.5 -36t58.5 -54q27 -39 43 -81t24.5 -85t10.5 -85t4 -83v-86 t2 -86q2 -78 4 -154t2 -153q0 -166 -26.5 -281t-112.5 -186q-59 -47 -128 -66.5t-161 -19.5q-111 0 -177.5 34.5t-100.5 73.5q-47 53 -59.5 92t-22.5 82q-6 29 -9.5 47.5t-5.5 36t-2 40v63.5q0 14 -1 52t-2 80t-2 79.5t-1 54.5zM166 1726q0 35 21.5 41.5t33.5 6.5 q8 0 33 -2.5t33 -2.5h16t26.5 1.5t27 1.5h18.5q4 0 14 -1.5t19 -9.5q8 -8 9 -20t1 -53q0 -4 1 -21.5t1 -24.5q0 -12 -2 -35.5t-12 -33.5q-8 -8 -17.5 -9t-36.5 -1h-26.5t-40 -1t-40 -1h-26.5q-31 0 -40 16t-9 25v32v36t-2 34q0 6 -1 11t-1 11zM369 852q0 -37 1 -77t1 -78 v-68v-51t1 -74t2 -72t3 -45q2 -10 6 -23.5t11 -27.5t20.5 -23.5t31.5 -9.5q43 0 62.5 33t19.5 80q0 8 -1 28.5t-1 44t-1 44t-1 30.5q0 12 1 46t1 72t1 71.5t1 48.5v60.5t-1 69.5t-2 70.5t-3 61.5q0 12 -2 30.5t-10 37t-22.5 31t-41.5 12.5q-4 0 -29.5 -7.5t-37.5 -48.5 q-4 -14 -6 -40.5t-3 -56.5t-1 -58.5v-42.5v-68zM483 1729q0 29 13.5 37t38.5 8h23t36.5 -1t38 -1h26.5q4 0 18.5 1t18.5 1q23 0 28 -10.5t7 -18.5t1 -35t-1 -35q0 -6 1 -25.5t1 -25.5q0 -31 -9 -44t-50 -15q-4 0 -24.5 -1t-46 -2t-47 -1h-28.5q-33 0 -39 24q-2 4 -2 25.5 v29.5v11q0 8 -2 37.5t-2 40.5z" />
<glyph unicode="&#xd8;" horiz-adv-x="937" d="M-14 82q0 4 3 11t7 13q12 20 30.5 50t47.5 82q-8 39 -12.5 64.5t-6.5 46t-2 39v44.5q0 14 -1 55t-1 86t-1 86t-1 58q0 41 1 100.5t1 100.5q0 33 2 81t6 97t10.5 94t16.5 74q16 49 47 81.5t64 55.5q23 16 46 28.5t53 21.5t67.5 14t91.5 5q84 0 139 -9t91 -25.5t58.5 -37 t42.5 -42.5q10 16 22.5 35.5t22.5 35.5t19.5 19.5t21.5 -0.5q6 -4 11.5 -10t13.5 -11q6 -6 15.5 -9t15.5 -11q4 -8 4 -16q0 -10 -8 -23q-16 -29 -37 -64.5t-37 -62.5q8 -33 13 -57.5t7 -54t3 -70.5t1 -109q0 -2 1.5 -30.5t1.5 -64.5t1 -67.5t1 -37.5q2 -37 2 -87.5v-91.5 q0 -131 -16.5 -252.5t-84.5 -203.5q-35 -41 -75.5 -67t-83.5 -39t-85 -17t-79 -4q-80 0 -135.5 14t-92 33.5t-59.5 43t-37 42.5q-6 -10 -25.5 -39t-25.5 -39q-10 -18 -23 -18q-8 0 -13 3t-23 15q-6 6 -14.5 10t-14.5 10q-2 4 -5 10.5t-3 10.5zM375 500q2 -72 4 -100.5 t12 -49.5q8 -16 24.5 -31.5t45.5 -15.5q20 0 41 10q27 12 39 39t12 84q0 6 -1 21.5t-1 33t-1 34t-1 22.5v42.5t2 57.5q0 35 2 72q2 23 2 32t-2 23zM375 783q-2 -42 2 -72l174 274v56.5t-1 33.5t-2 20.5t-3 16.5q-6 29 -26.5 48.5t-51.5 19.5q-35 0 -51.5 -15.5t-22.5 -27.5 t-9 -43t-5 -71t-2 -84v-83q0 -31 -2 -73z" />
<glyph unicode="&#xd9;" horiz-adv-x="894" d="M41 694q0 39 2 77t2 77q0 8 1 27.5t1 41t1 42t1 28.5q0 6 -1 26.5t-1 28.5q0 18 2 37t2 39v15.5t-2 35.5q-2 23 -2 43.5v53.5q0 6 -1 20t-1 30.5t-1 31t-1 20.5q0 29 7 45.5t17.5 24.5t18.5 10t12 2q6 0 25.5 -1t41 -1t41 -1t27.5 -1t36 2t36 2q18 0 44 -9t26 -50 q0 -47 -2 -113t-2 -113v-30.5t1 -47t1 -47v-30.5q0 -12 -1 -44t-2 -69t-2 -69.5t-1 -47.5q0 -8 1 -27.5t2 -41t2 -42t1 -28.5q0 -25 -1 -59.5t-1 -61.5v-23.5t-1 -38t-1 -38v-25.5q0 -41 15 -63.5t58 -22.5q41 0 63.5 17.5t22.5 68.5v107q0 10 -1 30.5t-1 34.5q0 4 -1 24.5 t-1 44v45v30.5q0 6 1 21.5t1 33.5t1 33.5t1 21.5q0 12 -1 41t-1 62.5t-1 64.5t-1 43v35t1 56.5t1 56v37.5q0 6 -1 21t-1 32.5t-1 33t-1 21.5v35q0 4 -1 20.5t-1 22.5q0 29 20.5 39t45.5 10h20.5t31.5 -1t32.5 -1h21.5q10 0 41 1t41 1q6 0 18.5 -1t24.5 -8t22.5 -22.5 t10.5 -44.5q0 -6 -2 -32.5t-2 -34.5t1 -30t2 -45.5t2 -46t1 -30.5v-20.5t-1 -30.5t-1 -31.5v-21.5t1 -23.5t1 -38t1 -38t1 -25.5t-1 -28.5t-2 -43t-2 -44t-1 -30.5q0 -8 1 -28.5t1 -44t1 -45t1 -29.5q0 -10 -1 -36t-2 -54.5t-2 -55t-1 -36.5q0 -6 1 -23.5t1 -37t1 -38 t1 -24.5q0 -66 -32 -139.5t-113 -133.5q-57 -43 -113.5 -59t-134.5 -16q-70 0 -118 7t-84 19t-60.5 28.5t-44.5 37.5q-37 33 -56.5 66.5t-29 67.5t-12.5 67.5t-3 68.5v77t-2 77q0 10 -1 37.5t-2 59.5t-2 59.5t-1 39.5zM184 1772q0 16 11.5 21t19.5 5q4 0 8 -1t8 -1 q6 0 18.5 -1t27 -1h27.5h20h12q25 0 58.5 2t58.5 2q31 0 40 -11t19 -46q2 -6 8 -24.5t14.5 -38t14.5 -37t10 -23.5q8 -16 8 -27q0 -16 -13 -21t-30 -5q-8 -2 -32.5 0t-34.5 2q-8 0 -37 -1t-37 -1q-10 0 -15.5 4t-15.5 16q-8 12 -20 21q-6 6 -23.5 24.5t-38 40t-38 40 t-25.5 26.5q-8 6 -15.5 14.5t-7.5 20.5z" />
<glyph unicode="&#xda;" horiz-adv-x="894" d="M41 694q0 39 2 77t2 77q0 8 1 27.5t1 41t1 42t1 28.5q0 6 -1 26.5t-1 28.5q0 18 2 37t2 39v15.5t-2 35.5q-2 23 -2 43.5v53.5q0 6 -1 20t-1 30.5t-1 31t-1 20.5q0 29 7 45.5t17.5 24.5t18.5 10t12 2q6 0 25.5 -1t41 -1t41 -1t27.5 -1t36 2t36 2q18 0 44 -9t26 -50 q0 -47 -2 -113t-2 -113v-30.5t1 -47t1 -47v-30.5q0 -12 -1 -44t-2 -69t-2 -69.5t-1 -47.5q0 -8 1 -27.5t2 -41t2 -42t1 -28.5q0 -25 -1 -59.5t-1 -61.5v-23.5t-1 -38t-1 -38v-25.5q0 -41 15 -63.5t58 -22.5q41 0 63.5 17.5t22.5 68.5v107q0 10 -1 30.5t-1 34.5q0 4 -1 24.5 t-1 44v45v30.5q0 6 1 21.5t1 33.5t1 33.5t1 21.5q0 12 -1 41t-1 62.5t-1 64.5t-1 43v35t1 56.5t1 56v37.5q0 6 -1 21t-1 32.5t-1 33t-1 21.5v35q0 4 -1 20.5t-1 22.5q0 29 20.5 39t45.5 10h20.5t31.5 -1t32.5 -1h21.5q10 0 41 1t41 1q6 0 18.5 -1t24.5 -8t22.5 -22.5 t10.5 -44.5q0 -6 -2 -32.5t-2 -34.5t1 -30t2 -45.5t2 -46t1 -30.5v-20.5t-1 -30.5t-1 -31.5v-21.5t1 -23.5t1 -38t1 -38t1 -25.5t-1 -28.5t-2 -43t-2 -44t-1 -30.5q0 -8 1 -28.5t1 -44t1 -45t1 -29.5q0 -10 -1 -36t-2 -54.5t-2 -55t-1 -36.5q0 -6 1 -23.5t1 -37t1 -38 t1 -24.5q0 -66 -32 -139.5t-113 -133.5q-57 -43 -113.5 -59t-134.5 -16q-70 0 -118 7t-84 19t-60.5 28.5t-44.5 37.5q-37 33 -56.5 66.5t-29 67.5t-12.5 67.5t-3 68.5v77t-2 77q0 10 -1 37.5t-2 59.5t-2 59.5t-1 39.5zM332 1593q0 4 9 29t20.5 53.5t21.5 54t12 33.5 q6 16 14.5 24.5t36.5 8.5h28t42.5 -1t42 -1h27.5h42t40 2q4 2 14 2q31 0 31 -24q0 -10 -6.5 -19.5t-32.5 -36.5q-8 -8 -27.5 -28.5t-40 -42t-39 -40t-22.5 -24.5q-8 -10 -12.5 -14t-12.5 -4h-18.5t-27.5 1t-28.5 1h-19.5q-4 0 -25.5 -1t-27.5 -1t-23.5 2.5t-17.5 25.5z" />
<glyph unicode="&#xdb;" horiz-adv-x="894" d="M41 694q0 39 2 77t2 77q0 8 1 27.5t1 41t1 42t1 28.5q0 6 -1 26.5t-1 28.5q0 18 2 37t2 39v15.5t-2 35.5q-2 23 -2 43.5v53.5q0 6 -1 20t-1 30.5t-1 31t-1 20.5q0 29 7 45.5t17.5 24.5t18.5 10t12 2q6 0 25.5 -1t41 -1t41 -1t27.5 -1t36 2t36 2q18 0 44 -9t26 -50 q0 -47 -2 -113t-2 -113v-30.5t1 -47t1 -47v-30.5q0 -12 -1 -44t-2 -69t-2 -69.5t-1 -47.5q0 -8 1 -27.5t2 -41t2 -42t1 -28.5q0 -25 -1 -59.5t-1 -61.5v-23.5t-1 -38t-1 -38v-25.5q0 -41 15 -63.5t58 -22.5q41 0 63.5 17.5t22.5 68.5v107q0 10 -1 30.5t-1 34.5q0 4 -1 24.5 t-1 44v45v30.5q0 6 1 21.5t1 33.5t1 33.5t1 21.5q0 12 -1 41t-1 62.5t-1 64.5t-1 43v35t1 56.5t1 56v37.5q0 6 -1 21t-1 32.5t-1 33t-1 21.5v35q0 4 -1 20.5t-1 22.5q0 29 20.5 39t45.5 10h20.5t31.5 -1t32.5 -1h21.5q10 0 41 1t41 1q6 0 18.5 -1t24.5 -8t22.5 -22.5 t10.5 -44.5q0 -6 -2 -32.5t-2 -34.5t1 -30t2 -45.5t2 -46t1 -30.5v-20.5t-1 -30.5t-1 -31.5v-21.5t1 -23.5t1 -38t1 -38t1 -25.5t-1 -28.5t-2 -43t-2 -44t-1 -30.5q0 -8 1 -28.5t1 -44t1 -45t1 -29.5q0 -10 -1 -36t-2 -54.5t-2 -55t-1 -36.5q0 -6 1 -23.5t1 -37t1 -38 t1 -24.5q0 -66 -32 -139.5t-113 -133.5q-57 -43 -113.5 -59t-134.5 -16q-70 0 -118 7t-84 19t-60.5 28.5t-44.5 37.5q-37 33 -56.5 66.5t-29 67.5t-12.5 67.5t-3 68.5v77t-2 77q0 10 -1 37.5t-2 59.5t-2 59.5t-1 39.5zM182 1593q0 8 3 13.5t18 21.5q18 20 24 35 q2 6 11.5 18.5t20.5 27.5t20.5 27.5t13.5 18.5q8 12 20.5 25.5t30.5 13.5q4 0 20.5 -1t20.5 -1q8 0 32.5 -1t35.5 -1q4 0 16 1t26.5 2t27 2t18.5 1q35 0 48 -15.5t23 -31.5q18 -29 40 -57.5t42 -55.5q6 -10 15.5 -23.5t9.5 -27.5q0 -12 -10.5 -17t-22.5 -5q-6 0 -27.5 1 t-27.5 1q-8 0 -20.5 -1t-26.5 -1q-16 -2 -35 -2q-6 0 -13.5 -1t-13.5 -1q-25 0 -36 20t-15 31q-2 6 -7 15t-18 9q-8 0 -13 -6t-9 -12q-4 -10 -5 -18.5t-5 -16.5q-2 -4 -8.5 -12t-20.5 -8q-4 0 -14.5 1t-23.5 1t-25.5 1t-18.5 1q-8 0 -36.5 -1t-37.5 -1q-16 0 -31.5 3.5 t-15.5 26.5z" />
<glyph unicode="&#xdc;" horiz-adv-x="894" d="M41 694q0 39 2 77t2 77q0 8 1 27.5t1 41t1 42t1 28.5q0 6 -1 26.5t-1 28.5q0 18 2 37t2 39v15.5t-2 35.5q-2 23 -2 43.5v53.5q0 6 -1 20t-1 30.5t-1 31t-1 20.5q0 29 7 45.5t17.5 24.5t18.5 10t12 2q6 0 25.5 -1t41 -1t41 -1t27.5 -1t36 2t36 2q18 0 44 -9t26 -50 q0 -47 -2 -113t-2 -113v-30.5t1 -47t1 -47v-30.5q0 -12 -1 -44t-2 -69t-2 -69.5t-1 -47.5q0 -8 1 -27.5t2 -41t2 -42t1 -28.5q0 -25 -1 -59.5t-1 -61.5v-23.5t-1 -38t-1 -38v-25.5q0 -41 15 -63.5t58 -22.5q41 0 63.5 17.5t22.5 68.5v107q0 10 -1 30.5t-1 34.5q0 4 -1 24.5 t-1 44v45v30.5q0 6 1 21.5t1 33.5t1 33.5t1 21.5q0 12 -1 41t-1 62.5t-1 64.5t-1 43v35t1 56.5t1 56v37.5q0 6 -1 21t-1 32.5t-1 33t-1 21.5v35q0 4 -1 20.5t-1 22.5q0 29 20.5 39t45.5 10h20.5t31.5 -1t32.5 -1h21.5q10 0 41 1t41 1q6 0 18.5 -1t24.5 -8t22.5 -22.5 t10.5 -44.5q0 -6 -2 -32.5t-2 -34.5t1 -30t2 -45.5t2 -46t1 -30.5v-20.5t-1 -30.5t-1 -31.5v-21.5t1 -23.5t1 -38t1 -38t1 -25.5t-1 -28.5t-2 -43t-2 -44t-1 -30.5q0 -8 1 -28.5t1 -44t1 -45t1 -29.5q0 -10 -1 -36t-2 -54.5t-2 -55t-1 -36.5q0 -6 1 -23.5t1 -37t1 -38 t1 -24.5q0 -66 -32 -139.5t-113 -133.5q-57 -43 -113.5 -59t-134.5 -16q-70 0 -118 7t-84 19t-60.5 28.5t-44.5 37.5q-37 33 -56.5 66.5t-29 67.5t-12.5 67.5t-3 68.5v77t-2 77q0 10 -1 37.5t-2 59.5t-2 59.5t-1 39.5zM158 1726q0 35 21.5 41.5t33.5 6.5q8 0 32.5 -2.5 t33.5 -2.5h16t26.5 1.5t26.5 1.5h19q4 0 14 -1.5t18 -9.5t9.5 -20t1.5 -53q0 -4 1 -21.5t1 -24.5q0 -12 -2 -35.5t-13 -33.5q-8 -8 -17 -9t-36 -1h-26.5t-40 -1t-40 -1h-26.5q-31 0 -40 16t-9 25v32v36t-2 34q0 6 -1 11t-1 11zM475 1729q0 29 13.5 37t37.5 8h23.5t37 -1 t38 -1h26.5q4 0 18.5 1t18.5 1q23 0 28 -10.5t7 -18.5t1 -35t-1 -35q0 -6 1 -25.5t1 -25.5q0 -31 -9 -44t-50 -15q-4 0 -24.5 -1t-46.5 -2t-47.5 -1h-27.5q-33 0 -39 24q-2 4 -2 25.5v29.5v11q0 8 -2 37.5t-2 40.5z" />
<glyph unicode="&#xdd;" horiz-adv-x="854" d="M-6 1391q0 29 15.5 39t31.5 10q6 0 20.5 -1t30.5 -1q16 -2 30.5 -3t20.5 -1q8 0 27.5 1t42.5 3q23 0 41 1t27 1q37 0 47 -20.5t18 -51.5q4 -18 5 -36.5t5 -37.5q4 -12 6.5 -24.5t4.5 -24.5q12 -47 20 -90t12 -72q0 -6 3.5 -20t6.5 -29.5t7 -28t6 -12.5t6 15q2 8 7 29.5 t9.5 46t8.5 47t6 30.5q8 35 16 71t12 71q2 16 2 32.5t3 32.5q2 23 12 48.5t59 25.5q6 0 23.5 -1t36 -2t36 -2t23.5 -1t21.5 1t31.5 1q16 2 31.5 2h21.5q16 0 40 -5t24 -38q0 -14 -6 -39q-6 -16 -13.5 -34.5t-13.5 -35.5q-4 -16 -7 -32.5t-7 -32.5q-6 -27 -14.5 -52.5 t-18.5 -52.5q-12 -35 -24.5 -70.5t-22.5 -70.5q-16 -53 -28.5 -108.5t-30.5 -108.5q-8 -23 -15.5 -43.5t-15.5 -40.5q-20 -55 -30.5 -87t-15.5 -53.5t-6 -40t-1 -46.5q-2 -41 -3 -79t-1 -77v-22.5t1 -29t2 -48t5 -80.5q0 -6 2 -30t2 -30q0 -4 -1 -13t-7.5 -18.5t-19.5 -16.5 t-38 -7q-6 0 -20.5 1t-30.5 1t-31.5 1t-21.5 1t-23.5 -1t-37 -3t-35 -3t-19.5 -1q-10 0 -31.5 11t-21.5 52q0 8 3 37t3 37t-1 27.5t-1 42t-1 43t-1 28.5q0 12 1 42t3 65t3 65.5t1 42.5q0 33 -6 62q-4 12 -18.5 58t-28.5 83q-2 2 -6 15.5t-10.5 30t-11.5 31.5t-7 24 q-12 45 -17 60t-16 42q-6 18 -20.5 60t-30.5 91.5t-31.5 99.5t-23.5 87q-6 23 -12.5 46t-14.5 46q-10 29 -12 41.5t-2 26.5zM309 1593q0 4 9.5 29t20.5 53.5t21.5 54t12.5 33.5q6 16 14 24.5t37 8.5h27.5t42 -1t42 -1h27.5h42.5t39.5 2q4 2 14 2q31 0 31 -24q0 -10 -6 -19.5 t-33 -36.5q-8 -8 -27.5 -28.5t-40 -42t-39 -40t-22.5 -24.5q-8 -10 -12 -14t-12 -4h-18.5t-28 1t-28.5 1h-20q-4 0 -25.5 -1t-27.5 -1t-23.5 2.5t-17.5 25.5z" />
<glyph unicode="&#xde;" horiz-adv-x="894" d="M45 1348q0 37 9 63.5t65 26.5q6 0 32.5 -1t34.5 -1q6 0 21.5 1t33 1t33 1t21.5 1h19.5t19.5 -4q23 -10 27 -23.5t4 -40.5q2 -33 8 -42t16 -13q6 -2 26.5 -4t44 -4t44 -3t28.5 -1q63 -6 113 -33q82 -43 124 -107.5t65 -142.5q4 -16 9 -46t10 -69t8 -80t3 -77 q0 -86 -16.5 -168t-56.5 -156q-16 -29 -29.5 -44t-30.5 -32q-12 -12 -30.5 -28.5t-44 -29.5t-61.5 -22.5t-85 -9.5q-4 0 -15.5 1t-15.5 1q-12 -2 -20 -2q-6 -2 -15 -2h-8q-10 -2 -33.5 -20.5t-23.5 -71.5q0 -6 1 -21.5t2 -33t2 -31.5t1 -19q0 -10 -1 -20t-9 -19.5 t-23.5 -14.5t-44.5 -5q-2 0 -18.5 1t-20.5 1q-25 2 -48 2h-50h-20.5t-20.5 -2q-8 0 -16.5 -1t-16.5 -1q-14 0 -30.5 7t-16.5 36v14q4 39 5 60.5t1 38.5q0 6 -1 24.5t-2 38t-2 37.5t-1 27q0 8 1 29.5t1 46t1 46t1 31.5q0 12 -1 43t-1 66t-1 66.5t-1 43.5v31t1 49.5t1 49v32.5 q0 8 -1 29.5t-1 45.5t-1 45.5t-1 31.5q0 2 1 37.5t1 78.5t1 84t1 54v41q-2 20 -4 50t-2 32zM367 885q0 -10 1 -45t3 -70q2 -43 4 -92q2 -35 11 -61.5t52 -26.5q33 0 52.5 19.5t29.5 46t13.5 53t3.5 39.5v18t-1 26.5t-1 26.5v19q-4 20 -13.5 57t-19.5 55q-27 51 -80 51 q-4 0 -13.5 -1t-18.5 -7t-16 -18t-7 -35v-55z" />
<glyph unicode="&#xdf;" d="M29 297q0 2 1 12t1 22.5t1 24t1 15.5q0 8 1 43t2 72.5t2 71.5t1 42q0 51 -2 101.5t-2 99.5q0 8 1 30.5t1 47t1 46t1 31.5q0 6 -1 25.5t-1 41t-1 40t-1 27.5q0 72 14 124t33.5 85.5t40 53t31.5 27.5q25 18 61.5 32.5t73.5 24t67.5 13.5t44.5 4q18 0 42 -3t46.5 -7t42 -9 t29.5 -8q18 -6 49 -23.5t64 -53.5q76 -82 76 -205q0 -31 -13.5 -72t-19.5 -53q-4 -8 -13.5 -27.5t-18.5 -41t-17.5 -41t-8.5 -25.5q0 -16 11 -37q6 -16 13 -33.5t13 -34.5q4 -16 9.5 -30.5t11.5 -30.5q4 -12 9 -24.5l9 -22.5q10 -27 18.5 -51.5t18.5 -51.5q14 -43 25.5 -89 t11.5 -93q0 -4 -1 -25.5t-1 -27.5q-2 -16 -1 -31.5t-1 -32.5q-4 -41 -14 -71q-12 -43 -26.5 -73t-29 -48.5t-29 -29.5t-26.5 -19q-20 -16 -35.5 -24.5t-32 -11.5t-39 -4t-59.5 -1q-18 0 -46 2t-50 18q-37 23 -37 68q0 4 1 15t2 24.5t2 25t1 17.5q0 45 -6 92q-2 10 -3 19.5 t-1 11.5q0 25 13 29.5t16 4.5q4 0 15 -3t15 -3q10 0 31.5 12.5t21.5 59.5q0 41 -9 83t-25 81q-10 23 -19.5 43t-19.5 43q-14 33 -23.5 67.5t-14.5 64.5t-7 51.5t-2 27.5q0 33 9 64.5t21 58.5q4 10 8.5 17t8.5 17q10 20 18 53t8 56q0 31 -16 45t-33 14q-37 0 -51 -39 q-4 -16 -5 -38.5t-1 -45.5q0 -6 1 -31.5t1 -33.5q0 -6 -1 -23.5t-1 -37t-1 -37t-1 -23.5q0 -12 1 -44t2 -66.5t2 -67.5t1 -45q0 -10 -1 -33.5t-2 -51.5t-2 -53.5t-1 -35.5q0 -12 1 -42t3 -65t3 -65.5t1 -42.5q0 -6 -1 -22.5t-1 -35t-1 -35t-1 -22.5q0 -8 1 -35.5t1 -36.5 q0 -27 -9 -44t-40 -17q-10 0 -37 2t-37 2h-18q-12 0 -27.5 -1l-31 -2t-29 -2t-17.5 -1q-23 0 -35 6t-18 15.5t-7 20.5t-1 19v20.5t1 31t1 31v20.5t-1 25.5t-2 41t-2 42t-1 28.5z" />
<glyph unicode="&#xe0;" horiz-adv-x="768" d="M14 387q0 217 74 313q25 33 53.5 52.5t56 31t52 14.5t39.5 3q35 0 54 -6.5t58 -24.5q8 -4 17 -4q8 0 18 8t10 25q0 14 -4 33.5t-12 29.5q-8 12 -29.5 23.5t-87.5 11.5q-41 0 -74.5 -8t-56.5 -21q-16 -10 -22 -12t-13 -2q-14 0 -32.5 11.5t-22.5 25.5q-2 4 -3 18.5 t-1 20.5q0 4 1 23.5t1 25.5q0 16 -1 31.5t-1 31.5q0 25 10.5 41.5t55.5 30.5q61 20 94 23.5t65 3.5q10 0 42 1t42 1q18 0 51 -3t70 -10.5t73 -19.5t62 -31q20 -14 36 -31.5t25 -44t13 -64.5t4 -95v-19.5t-1 -30t-1 -30.5v-21v-24.5t1 -39t1 -38.5v-25q0 -45 -1 -89t-1 -89 v-149v-21.5t1 -33t1 -34v-22.5t-1 -20.5t-1 -30.5t-1 -30.5t-1 -20.5v-31q0 -29 -17.5 -38t-35.5 -9h-20.5t-31 1t-30.5 1h-21q-14 2 -28.5 1t-28.5 -3q-8 0 -15 -1t-16 -1q-23 0 -25.5 8t-2.5 25q0 23 -13 22q-4 0 -18 -12t-18 -16q-16 -14 -45 -24.5t-72 -10.5 q-53 0 -87 11t-57 28q-43 27 -68.5 72.5t-39.5 98t-18.5 103.5t-4.5 86zM143 1425q0 16 12.5 20.5t16.5 4.5t17.5 -1t17.5 -1h17.5t27.5 -1t27.5 -1h19.5t20.5 1t32 1t34 1t22.5 1q29 0 39 -8t18 -35q2 -10 10 -30.5t16.5 -43t15.5 -41t9 -22.5q4 -10 7 -15.5t3 -11.5 q0 -16 -20 -24q-4 0 -9 -1t-13.5 -1t-21.5 1t-38 1h-82q-10 0 -15 4t-24 22l-24.5 24.5t-43 45t-42 45t-21.5 22.5q-12 10 -20.5 19.5t-8.5 23.5zM299 367q0 -123 68 -123q18 0 30.5 9t19.5 21.5t10 23.5t3 13t1 24.5t1 49.5v50.5v31.5q0 41 -21 61.5t-44 20.5 q-10 0 -25.5 -8.5t-28.5 -30.5q-10 -23 -12 -42t-2 -62v-39z" />
<glyph unicode="&#xe1;" horiz-adv-x="768" d="M14 387q0 217 74 313q25 33 53.5 52.5t56 31t52 14.5t39.5 3q35 0 54 -6.5t58 -24.5q8 -4 17 -4q8 0 18 8t10 25q0 14 -4 33.5t-12 29.5q-8 12 -29.5 23.5t-87.5 11.5q-41 0 -74.5 -8t-56.5 -21q-16 -10 -22 -12t-13 -2q-14 0 -32.5 11.5t-22.5 25.5q-2 4 -3 18.5 t-1 20.5q0 4 1 23.5t1 25.5q0 16 -1 31.5t-1 31.5q0 25 10.5 41.5t55.5 30.5q61 20 94 23.5t65 3.5q10 0 42 1t42 1q18 0 51 -3t70 -10.5t73 -19.5t62 -31q20 -14 36 -31.5t25 -44t13 -64.5t4 -95v-19.5t-1 -30t-1 -30.5v-21v-24.5t1 -39t1 -38.5v-25q0 -45 -1 -89t-1 -89 v-149v-21.5t1 -33t1 -34v-22.5t-1 -20.5t-1 -30.5t-1 -30.5t-1 -20.5v-31q0 -29 -17.5 -38t-35.5 -9h-20.5t-31 1t-30.5 1h-21q-14 2 -28.5 1t-28.5 -3q-8 0 -15 -1t-16 -1q-23 0 -25.5 8t-2.5 25q0 23 -13 22q-4 0 -18 -12t-18 -16q-16 -14 -45 -24.5t-72 -10.5 q-53 0 -87 11t-57 28q-43 27 -68.5 72.5t-39.5 98t-18.5 103.5t-4.5 86zM291 1245q0 8 3 15.5t7 15.5q2 6 8 22.5t13 35t13.5 35.5t10.5 24q2 4 4 10l4 12q6 16 14.5 25.5t40.5 9.5q6 0 19.5 -1t29 -1t29.5 -1t21 -1h32q6 0 19.5 1t30 1t31 1t20.5 1q31 0 30 -25 q0 -14 -8 -25t-35 -36q-10 -10 -17 -18.5t-17 -16.5q-16 -16 -36 -37.5t-24 -25.5l-25.5 -25.5t-23.5 -21.5h-14.5h-27.5h-28.5h-19.5t-29.5 -1t-31.5 -1t-25.5 2.5t-17.5 25.5zM299 367q0 -123 68 -123q18 0 30.5 9t19.5 21.5t10 23.5t3 13t1 24.5t1 49.5v50.5v31.5 q0 41 -21 61.5t-44 20.5q-10 0 -25.5 -8.5t-28.5 -30.5q-10 -23 -12 -42t-2 -62v-39z" />
<glyph unicode="&#xe2;" horiz-adv-x="768" d="M14 387q0 217 74 313q25 33 53.5 52.5t56 31t52 14.5t39.5 3q35 0 54 -6.5t58 -24.5q8 -4 17 -4q8 0 18 8t10 25q0 14 -4 33.5t-12 29.5q-8 12 -29.5 23.5t-87.5 11.5q-41 0 -74.5 -8t-56.5 -21q-16 -10 -22 -12t-13 -2q-14 0 -32.5 11.5t-22.5 25.5q-2 4 -3 18.5 t-1 20.5q0 4 1 23.5t1 25.5q0 16 -1 31.5t-1 31.5q0 25 10.5 41.5t55.5 30.5q61 20 94 23.5t65 3.5q10 0 42 1t42 1q18 0 51 -3t70 -10.5t73 -19.5t62 -31q20 -14 36 -31.5t25 -44t13 -64.5t4 -95v-19.5t-1 -30t-1 -30.5v-21v-24.5t1 -39t1 -38.5v-25q0 -45 -1 -89t-1 -89 v-149v-21.5t1 -33t1 -34v-22.5t-1 -20.5t-1 -30.5t-1 -30.5t-1 -20.5v-31q0 -29 -17.5 -38t-35.5 -9h-20.5t-31 1t-30.5 1h-21q-14 2 -28.5 1t-28.5 -3q-8 0 -15 -1t-16 -1q-23 0 -25.5 8t-2.5 25q0 23 -13 22q-4 0 -18 -12t-18 -16q-16 -14 -45 -24.5t-72 -10.5 q-53 0 -87 11t-57 28q-43 27 -68.5 72.5t-39.5 98t-18.5 103.5t-4.5 86zM140 1241q0 10 6 19.5t14 19.5t14.5 19.5t14.5 19.5q14 20 33.5 47t31.5 47q10 14 21.5 25.5t34.5 11.5q6 0 27.5 -2t27.5 -2h61q8 0 33 2t33 2q29 0 39 -4q12 -4 22.5 -17.5t40.5 -60.5 q6 -8 14.5 -21.5t17.5 -25.5t17.5 -22.5t10.5 -12.5q8 -10 16 -22.5t8 -24.5q0 -14 -10 -19.5t-20 -5.5h-19.5t-28 1.5t-27.5 1.5h-20h-20t-21 -3q-20 -4 -28 -4q-25 0 -35 16.5t-18 35.5q-2 6 -8.5 16t-18.5 10t-23 -18q-4 -10 -5 -18.5t-5 -16.5q-2 -6 -8 -14.5t-18 -8.5 q-8 0 -39 2.5t-41 2.5q-8 0 -36 -1.5t-36 -1.5q-35 0 -44 9.5t-9 17.5zM299 367q0 -123 68 -123q18 0 30.5 9t19.5 21.5t10 23.5t3 13t1 24.5t1 49.5v50.5v31.5q0 41 -21 61.5t-44 20.5q-10 0 -25.5 -8.5t-28.5 -30.5q-10 -23 -12 -42t-2 -62v-39z" />
<glyph unicode="&#xe3;" horiz-adv-x="768" d="M14 387q0 217 74 313q25 33 53.5 52.5t56 31t52 14.5t39.5 3q35 0 54 -6.5t58 -24.5q8 -4 17 -4q8 0 18 8t10 25q0 14 -4 33.5t-12 29.5q-8 12 -29.5 23.5t-87.5 11.5q-41 0 -74.5 -8t-56.5 -21q-16 -10 -22 -12t-13 -2q-14 0 -32.5 11.5t-22.5 25.5q-2 4 -3 18.5 t-1 20.5q0 4 1 23.5t1 25.5q0 16 -1 31.5t-1 31.5q0 25 10.5 41.5t55.5 30.5q61 20 94 23.5t65 3.5q10 0 42 1t42 1q18 0 51 -3t70 -10.5t73 -19.5t62 -31q20 -14 36 -31.5t25 -44t13 -64.5t4 -95v-19.5t-1 -30t-1 -30.5v-21v-24.5t1 -39t1 -38.5v-25q0 -45 -1 -89t-1 -89 v-149v-21.5t1 -33t1 -34v-22.5t-1 -20.5t-1 -30.5t-1 -30.5t-1 -20.5v-31q0 -29 -17.5 -38t-35.5 -9h-20.5t-31 1t-30.5 1h-21q-14 2 -28.5 1t-28.5 -3q-8 0 -15 -1t-16 -1q-23 0 -25.5 8t-2.5 25q0 23 -13 22q-4 0 -18 -12t-18 -16q-16 -14 -45 -24.5t-72 -10.5 q-53 0 -87 11t-57 28q-43 27 -68.5 72.5t-39.5 98t-18.5 103.5t-4.5 86zM73 1284q0 2 6.5 28.5t27 57.5t61.5 56.5t108 25.5q25 0 53.5 -5t59 -10t59.5 -10.5t53 -5.5q10 0 19.5 2t17.5 13q4 6 11.5 13t11.5 7q0 2 2 2t14 -4q2 0 13.5 -2t23.5 -4t24.5 -4t16.5 -2 q47 -8 59.5 -11.5t12.5 -11.5l-6 -24q-23 -72 -76 -110t-129 -38q-12 0 -44 2t-104 19q-23 4 -33 6t-20 2q-6 0 -15.5 -1t-17.5 -5q-10 -6 -17 -15.5t-18 -13.5h-6q-8 0 -20 4q-8 2 -36 5t-38 5q-8 2 -15 4.5t-16 2.5q-18 2 -30.5 5t-12.5 17zM299 367q0 -123 68 -123 q18 0 30.5 9t19.5 21.5t10 23.5t3 13t1 24.5t1 49.5v50.5v31.5q0 41 -21 61.5t-44 20.5q-10 0 -25.5 -8.5t-28.5 -30.5q-10 -23 -12 -42t-2 -62v-39z" />
<glyph unicode="&#xe4;" horiz-adv-x="768" d="M14 387q0 217 74 313q25 33 53.5 52.5t56 31t52 14.5t39.5 3q35 0 54 -6.5t58 -24.5q8 -4 17 -4q8 0 18 8t10 25q0 14 -4 33.5t-12 29.5q-8 12 -29.5 23.5t-87.5 11.5q-41 0 -74.5 -8t-56.5 -21q-16 -10 -22 -12t-13 -2q-14 0 -32.5 11.5t-22.5 25.5q-2 4 -3 18.5 t-1 20.5q0 4 1 23.5t1 25.5q0 16 -1 31.5t-1 31.5q0 25 10.5 41.5t55.5 30.5q61 20 94 23.5t65 3.5q10 0 42 1t42 1q18 0 51 -3t70 -10.5t73 -19.5t62 -31q20 -14 36 -31.5t25 -44t13 -64.5t4 -95v-19.5t-1 -30t-1 -30.5v-21v-24.5t1 -39t1 -38.5v-25q0 -45 -1 -89t-1 -89 v-149v-21.5t1 -33t1 -34v-22.5t-1 -20.5t-1 -30.5t-1 -30.5t-1 -20.5v-31q0 -29 -17.5 -38t-35.5 -9h-20.5t-31 1t-30.5 1h-21q-14 2 -28.5 1t-28.5 -3q-8 0 -15 -1t-16 -1q-23 0 -25.5 8t-2.5 25q0 23 -13 22q-4 0 -18 -12t-18 -16q-16 -14 -45 -24.5t-72 -10.5 q-53 0 -87 11t-57 28q-43 27 -68.5 72.5t-39.5 98t-18.5 103.5t-4.5 86zM153 1399q0 37 21.5 43t32.5 6q8 0 36.5 -2t38.5 -2q8 0 37 1t39 1q35 0 41 -17.5t6 -58.5q0 -4 1 -24.5t1 -26.5q-2 -14 -2 -25q0 -10 -1 -18t-1 -10q-2 -4 -11 -17.5t-30 -13.5q-4 0 -15 1t-15 1 q-10 0 -43 -1t-43 -1h-35q-41 0 -47.5 19.5t-6.5 48.5q0 6 -1 19t-1 28.5t-1 29t-1 19.5zM299 367q0 -123 68 -123q18 0 30.5 9t19.5 21.5t10 23.5t3 13t1 24.5t1 49.5v50.5v31.5q0 41 -21 61.5t-44 20.5q-10 0 -25.5 -8.5t-28.5 -30.5q-10 -23 -12 -42t-2 -62v-39z M471 1405q0 31 14 36t25 5h26.5t40 -1t41 -1h27.5q4 0 19.5 1t21.5 1q27 0 31 -14.5t4 -32.5q0 -6 -1 -29.5t-1 -30.5q0 -12 1 -25t1 -26q0 -27 -13.5 -38t-50.5 -13q-6 0 -24.5 -1t-40 -1t-40 -1t-24.5 -1q-41 0 -47 12.5t-6 36.5v17.5t-1 34t-1 32.5v16q0 4 -1 10.5 t-1 12.5z" />
<glyph unicode="&#xe5;" horiz-adv-x="768" d="M14 387q0 217 74 313q25 33 53.5 52.5t56 31t52 14.5t39.5 3q35 0 54 -6.5t58 -24.5q8 -4 17 -4q8 0 18 8t10 25q0 14 -4 33.5t-12 29.5q-8 12 -29.5 23.5t-87.5 11.5q-41 0 -74.5 -8t-56.5 -21q-16 -10 -22 -12t-13 -2q-14 0 -32.5 11.5t-22.5 25.5q-2 4 -3 18.5 t-1 20.5q0 4 1 23.5t1 25.5q0 16 -1 31.5t-1 31.5q0 25 10.5 41.5t55.5 30.5q61 20 94 23.5t65 3.5q10 0 42 1t42 1q18 0 51 -3t70 -10.5t73 -19.5t62 -31q20 -14 36 -31.5t25 -44t13 -64.5t4 -95v-19.5t-1 -30t-1 -30.5v-21v-24.5t1 -39t1 -38.5v-25q0 -45 -1 -89t-1 -89 v-149v-21.5t1 -33t1 -34v-22.5t-1 -20.5t-1 -30.5t-1 -30.5t-1 -20.5v-31q0 -29 -17.5 -38t-35.5 -9h-20.5t-31 1t-30.5 1h-21q-14 2 -28.5 1t-28.5 -3q-8 0 -15 -1t-16 -1q-23 0 -25.5 8t-2.5 25q0 23 -13 22q-4 0 -18 -12t-18 -16q-16 -14 -45 -24.5t-72 -10.5 q-53 0 -87 11t-57 28q-43 27 -68.5 72.5t-39.5 98t-18.5 103.5t-4.5 86zM198 1378q0 45 19.5 83t52.5 64.5t76 41t90 14.5q57 0 102 -18.5t76 -48t46.5 -66.5t15.5 -72q0 -45 -20.5 -83t-54.5 -65.5t-78 -43t-91 -15.5q-57 0 -101.5 18.5t-73 48.5t-44 66.5t-15.5 75.5z M299 367q0 -123 68 -123q18 0 30.5 9t19.5 21.5t10 23.5t3 13t1 24.5t1 49.5v50.5v31.5q0 41 -21 61.5t-44 20.5q-10 0 -25.5 -8.5t-28.5 -30.5q-10 -23 -12 -42t-2 -62v-39zM321 1370q0 -39 35 -61.5t78 -22.5q59 0 85 32t26 60q0 29 -30 55.5t-81 26.5q-53 0 -83 -26.5 t-30 -63.5z" />
<glyph unicode="&#xe6;" horiz-adv-x="1193" d="M12 377q0 31 1 70.5t7.5 81.5t18.5 84t35 77q29 47 85 83t128 36q29 0 49 -7t59 -24q16 -8 25 -8q16 0 22 18v9.5t2 15.5q0 8 2 21q0 4 -1 11t-9 17q-6 10 -27.5 27.5t-91.5 17.5q-43 0 -66.5 -4t-33.5 -8q-8 -4 -34.5 -16.5t-37.5 -12.5q-14 0 -29.5 10.5t-19.5 20.5 t-5 27.5t1 54.5v55q0 45 10.5 58.5t34.5 23.5q59 23 111.5 28t113.5 5q33 0 56.5 -1t45 -3t43 -6t50.5 -13q6 -2 27.5 -9t25.5 -7q8 0 15.5 5t17.5 9q20 10 65.5 21.5t100.5 11.5t95 -10t68.5 -24.5t48 -32t32.5 -29.5q49 -51 78.5 -131t29.5 -185v-25.5t-1 -43t-1 -43 v-25.5q-2 -10 -2 -36.5v-39.5q0 -16 -4 -28t-18 -29q-10 -10 -22.5 -19.5t-43.5 -9.5q-10 0 -37.5 2.5t-38.5 2.5q-8 0 -36.5 -2.5t-38.5 -2.5q-6 0 -21.5 1.5t-33 2.5t-34 2t-22.5 1q-37 0 -58.5 -6.5t-21.5 -45.5q0 -4 2 -22.5t16 -40.5q16 -31 51 -50.5t107 -19.5 q55 0 98 21l32 16t32 10h8q25 0 44.5 -14t19.5 -43q0 -8 -1 -15t-1 -16q-2 -12 -2 -24.5v-24.5v-16t1 -25.5t1 -25v-17.5q0 -25 -7 -33q-6 -16 -33.5 -29.5t-63.5 -21.5t-74.5 -12t-69.5 -4h-54.5t-41.5 2l-11 1q-10 1 -22.5 3t-23.5 4t-13 4l-12 4q-4 0 -10.5 -3t-10.5 -7 q-6 -2 -16 -2q-6 0 -21.5 1t-32 1t-33 1t-22.5 1q-4 0 -17.5 -1t-27.5 -1t-26.5 -1t-18.5 -1q-14 0 -18 2q-4 4 -5 8t-1 23q0 10 -6.5 16t-10.5 6t-10 -5t-10 -9q-18 -20 -52 -33.5t-81 -13.5q-18 0 -30.5 1t-23.5 3q-35 6 -68.5 24.5t-52.5 36.5q-33 33 -62.5 109 t-29.5 209zM293 426q0 -72 3 -104.5t17 -51.5q18 -25 47 -24q31 0 50 28q12 16 15 35t3 35v27.5v41v41v27.5q0 39 -23.5 57.5t-39.5 18.5q-18 0 -31 -12q-29 -23 -35 -57.5t-6 -61.5zM727 739q0 -14 3 -30.5t20 -22.5q4 -2 14 -3t21.5 -1h20.5h11q10 0 25.5 3t25.5 20 q2 4 3 15t1 24.5v25.5v18q0 41 -10 70q-10 31 -30.5 39t-30.5 8t-24.5 -5t-26.5 -21q-14 -23 -18.5 -51.5t-4.5 -88.5z" />
<glyph unicode="&#xe7;" horiz-adv-x="555" d="M31 520q0 111 7 226.5t52 228.5q12 33 33.5 65.5t55.5 59t84 43t124 16.5q18 0 45 -1t45 -1q23 0 34 -8t16 -19.5t6.5 -22.5t1.5 -20v-28.5v-44v-45v-29.5q0 -33 -7.5 -61.5t-52.5 -32.5q-4 0 -22.5 1t-24.5 1q-20 0 -32.5 -11.5t-14.5 -15.5q-18 -25 -28.5 -77 t-10.5 -156q0 -74 3 -124t13.5 -81t31 -45t54.5 -14q4 0 22.5 2t22.5 2q18 0 27.5 -8.5t14 -19.5t5.5 -21.5t1 -14.5q0 -6 -1 -23.5t-2.5 -36t-2.5 -35.5t-1 -24q0 -8 1 -36.5t1 -38.5q0 -27 -9 -42.5t-23.5 -22.5t-30.5 -9t-31 -2q-18 0 -35.5 1t-35.5 1q-4 2 -14.5 1 t-14.5 -1q-8 0 -25.5 1t-46.5 9q-33 8 -57.5 20.5t-52.5 41.5q-59 57 -77 103t-28 97q-4 25 -8 47.5t-7 50t-4 64.5t-1 90zM217 -139q0 47 38 75.5t81 28.5q53 0 89 -37t36 -96v-13t-2 -14q-10 -72 -41 -113.5t-72 -84.5q-8 -8 -21.5 -19.5t-27.5 -11.5q-10 0 -18.5 11.5 t-16.5 25.5t-12 26.5t-4 16.5q0 6 5 12t9 10q4 6 10 10.5t11 8.5q14 18 14 35q0 14 -6 21t-27 24q-16 10 -30.5 32.5t-14.5 51.5z" />
<glyph unicode="&#xe8;" d="M37 571q0 6 1 34t3 59.5t4 60.5t2 37q14 195 105.5 295t255.5 100q37 0 73.5 -4t72.5 -18.5t68.5 -41t63.5 -69.5q53 -78 65.5 -152.5t12.5 -136.5q0 -10 -1 -45t-2 -73.5t-2 -71.5t-1 -37q-2 -4 -7.5 -14.5t-13.5 -20.5t-21.5 -18.5t-29.5 -8.5q-6 0 -27.5 2.5 t-27.5 2.5t-20.5 -1t-31 -2.5t-30.5 -2.5t-21 -1q-8 0 -28.5 1t-44 1t-45 1.5t-29.5 1.5q-14 0 -31.5 -6.5t-17.5 -45.5t22 -67q29 -41 68 -49.5t67 -8.5q29 0 47.5 1t34 5.5t33 12.5t43.5 20q10 4 17.5 6t17.5 2q20 0 39.5 -14t19.5 -37q0 -2 -1 -14t-1 -28.5t-1 -31 t-1 -20.5v-84q0 -16 -3 -26.5t-17 -20.5q-20 -16 -82 -33.5t-168 -17.5q-96 0 -184 26.5t-154 116.5q-33 43 -51.5 89t-27.5 99.5t-11 115t-2 132.5zM151 1425q0 16 12.5 20.5t16.5 4.5t17.5 -1t17.5 -1h17.5t27.5 -1t27.5 -1h19.5t20.5 1t32 1t34 1t22.5 1q29 0 39 -8 t18 -35q2 -10 10 -30.5t16.5 -43t15.5 -41t9 -22.5q4 -10 7 -15.5t3 -11.5q0 -16 -20 -24q-4 0 -9 -1t-13.5 -1t-21.5 1t-38 1h-82q-10 0 -15 4t-24 22l-24.5 24.5t-43 45t-42 45t-21.5 22.5q-12 10 -20.5 19.5t-8.5 23.5zM330 748q0 -10 2 -33t18 -29q8 -4 37 -4h39 q27 0 40 10t13 47q0 33 -1 61.5t-5 45.5q-14 41 -37.5 48t-32.5 7q-29 0 -43 -16.5t-21 -40t-8 -50t-1 -46.5z" />
<glyph unicode="&#xe9;" d="M37 571q0 6 1 34t3 59.5t4 60.5t2 37q14 195 105.5 295t255.5 100q37 0 73.5 -4t72.5 -18.5t68.5 -41t63.5 -69.5q53 -78 65.5 -152.5t12.5 -136.5q0 -10 -1 -45t-2 -73.5t-2 -71.5t-1 -37q-2 -4 -7.5 -14.5t-13.5 -20.5t-21.5 -18.5t-29.5 -8.5q-6 0 -27.5 2.5 t-27.5 2.5t-20.5 -1t-31 -2.5t-30.5 -2.5t-21 -1q-8 0 -28.5 1t-44 1t-45 1.5t-29.5 1.5q-14 0 -31.5 -6.5t-17.5 -45.5t22 -67q29 -41 68 -49.5t67 -8.5q29 0 47.5 1t34 5.5t33 12.5t43.5 20q10 4 17.5 6t17.5 2q20 0 39.5 -14t19.5 -37q0 -2 -1 -14t-1 -28.5t-1 -31 t-1 -20.5v-84q0 -16 -3 -26.5t-17 -20.5q-20 -16 -82 -33.5t-168 -17.5q-96 0 -184 26.5t-154 116.5q-33 43 -51.5 89t-27.5 99.5t-11 115t-2 132.5zM299 1245q0 8 3 15.5t7 15.5q2 6 8 22.5t13 35t13.5 35.5t10.5 24q2 4 4 10l4 12q6 16 14.5 25.5t40.5 9.5q6 0 19.5 -1 t29 -1t29.5 -1t21 -1h32q6 0 19.5 1t30 1t31 1t20.5 1q31 0 30 -25q0 -14 -8 -25t-35 -36q-10 -10 -17 -18.5t-17 -16.5q-16 -16 -36 -37.5t-24 -25.5l-25.5 -25.5t-23.5 -21.5h-14.5h-27.5h-28.5h-19.5t-29.5 -1t-31.5 -1t-25.5 2.5t-17.5 25.5zM330 748q0 -10 2 -33 t18 -29q8 -4 37 -4h39q27 0 40 10t13 47q0 33 -1 61.5t-5 45.5q-14 41 -37.5 48t-32.5 7q-29 0 -43 -16.5t-21 -40t-8 -50t-1 -46.5z" />
<glyph unicode="&#xea;" d="M37 571q0 6 1 34t3 59.5t4 60.5t2 37q14 195 105.5 295t255.5 100q37 0 73.5 -4t72.5 -18.5t68.5 -41t63.5 -69.5q53 -78 65.5 -152.5t12.5 -136.5q0 -10 -1 -45t-2 -73.5t-2 -71.5t-1 -37q-2 -4 -7.5 -14.5t-13.5 -20.5t-21.5 -18.5t-29.5 -8.5q-6 0 -27.5 2.5 t-27.5 2.5t-20.5 -1t-31 -2.5t-30.5 -2.5t-21 -1q-8 0 -28.5 1t-44 1t-45 1.5t-29.5 1.5q-14 0 -31.5 -6.5t-17.5 -45.5t22 -67q29 -41 68 -49.5t67 -8.5q29 0 47.5 1t34 5.5t33 12.5t43.5 20q10 4 17.5 6t17.5 2q20 0 39.5 -14t19.5 -37q0 -2 -1 -14t-1 -28.5t-1 -31 t-1 -20.5v-84q0 -16 -3 -26.5t-17 -20.5q-20 -16 -82 -33.5t-168 -17.5q-96 0 -184 26.5t-154 116.5q-33 43 -51.5 89t-27.5 99.5t-11 115t-2 132.5zM148 1241q0 10 6 19.5t14 19.5t14.5 19.5t14.5 19.5q14 20 33.5 47t31.5 47q10 14 21.5 25.5t34.5 11.5q6 0 27.5 -2 t27.5 -2h61q8 0 33 2t33 2q29 0 39 -4q12 -4 22.5 -17.5t40.5 -60.5q6 -8 14.5 -21.5t17.5 -25.5t17.5 -22.5t10.5 -12.5q8 -10 16 -22.5t8 -24.5q0 -14 -10 -19.5t-20 -5.5h-19.5t-28 1.5t-27.5 1.5h-20h-20t-21 -3q-20 -4 -28 -4q-25 0 -35 16.5t-18 35.5q-2 6 -8.5 16 t-18.5 10t-23 -18q-4 -10 -5 -18.5t-5 -16.5q-2 -6 -8 -14.5t-18 -8.5q-8 0 -39 2.5t-41 2.5q-8 0 -36 -1.5t-36 -1.5q-35 0 -44 9.5t-9 17.5zM330 748q0 -10 2 -33t18 -29q8 -4 37 -4h39q27 0 40 10t13 47q0 33 -1 61.5t-5 45.5q-14 41 -37.5 48t-32.5 7q-29 0 -43 -16.5 t-21 -40t-8 -50t-1 -46.5z" />
<glyph unicode="&#xeb;" d="M37 571q0 6 1 34t3 59.5t4 60.5t2 37q14 195 105.5 295t255.5 100q37 0 73.5 -4t72.5 -18.5t68.5 -41t63.5 -69.5q53 -78 65.5 -152.5t12.5 -136.5q0 -10 -1 -45t-2 -73.5t-2 -71.5t-1 -37q-2 -4 -7.5 -14.5t-13.5 -20.5t-21.5 -18.5t-29.5 -8.5q-6 0 -27.5 2.5 t-27.5 2.5t-20.5 -1t-31 -2.5t-30.5 -2.5t-21 -1q-8 0 -28.5 1t-44 1t-45 1.5t-29.5 1.5q-14 0 -31.5 -6.5t-17.5 -45.5t22 -67q29 -41 68 -49.5t67 -8.5q29 0 47.5 1t34 5.5t33 12.5t43.5 20q10 4 17.5 6t17.5 2q20 0 39.5 -14t19.5 -37q0 -2 -1 -14t-1 -28.5t-1 -31 t-1 -20.5v-84q0 -16 -3 -26.5t-17 -20.5q-20 -16 -82 -33.5t-168 -17.5q-96 0 -184 26.5t-154 116.5q-33 43 -51.5 89t-27.5 99.5t-11 115t-2 132.5zM133 1403q0 37 21.5 43t32.5 6q8 0 36.5 -2t38.5 -2q8 0 37 1t39 1q35 0 41 -17.5t6 -58.5q0 -4 1 -24.5t1 -26.5 q-2 -14 -2 -25q0 -10 -1 -18t-1 -10q-2 -4 -11 -17.5t-30 -13.5q-4 0 -15 1t-15 1q-10 0 -43 -1t-43 -1h-35q-41 0 -47.5 19.5t-6.5 48.5q0 6 -1 19t-1 28.5t-1 29t-1 19.5zM330 748q0 -10 2 -33t18 -29q8 -4 37 -4h39q27 0 40 10t13 47q0 33 -1 61.5t-5 45.5 q-14 41 -37.5 48t-32.5 7q-29 0 -43 -16.5t-21 -40t-8 -50t-1 -46.5zM451 1409q0 31 14 36t25 5h26.5t40 -1t41 -1h27.5q4 0 19.5 1t21.5 1q27 0 31 -14.5t4 -32.5q0 -6 -1 -29.5t-1 -30.5q0 -12 1 -25t1 -26q0 -27 -13.5 -38t-50.5 -13q-6 0 -24.5 -1t-40 -1t-40 -1 t-24.5 -1q-41 0 -47 12.5t-6 36.5v17.5t-1 34t-1 32.5v16q0 4 -1 10.5t-1 12.5z" />
<glyph unicode="&#xec;" horiz-adv-x="382" d="M-70 1425q0 16 12.5 20.5t16.5 4.5t17.5 -1t17.5 -1h17.5t27.5 -1t27.5 -1h19.5t20.5 1t32 1t34 1t22.5 1q29 0 39 -8t18 -35q2 -10 10 -30.5t16.5 -43t15.5 -41t9 -22.5q4 -10 7 -15.5t3 -11.5q0 -16 -20 -24q-4 0 -9 -1t-13.5 -1t-21.5 1t-38 1h-82q-10 0 -15 4t-24 22 l-24.5 24.5t-43 45t-42 45t-21.5 22.5q-12 10 -20.5 19.5t-8.5 23.5zM31 70v19t2 36q2 37 2 89v99v21.5t1 33t1 34v22.5v27.5t-1 41t-1 42v28.5t1 28.5t1 44t1 45t1 30.5v21.5t-1 31.5t-1 31.5v21.5v30.5t1 48.5t1 48.5v32.5q0 6 -1 22.5t-1 35t-1 36t-1 23.5q0 10 3 21 t19 22q12 8 20.5 9t14.5 1q8 0 35 -2t35 -2t26.5 1t40 1t41 1t27.5 1q12 0 33.5 -7t21.5 -50q0 -10 -1 -37t-2 -56.5t-2 -56.5t-1 -37t1 -33.5t1 -50t1 -50.5t1 -34t-1 -36.5t-1 -56.5t-1 -56.5t-1 -38.5q0 -8 1 -28.5t1 -45t1 -46t1 -30.5q0 -37 -3 -74.5t-3 -74.5 q0 -10 1 -35t3 -53.5t3 -54t1 -35.5q0 -25 -7 -38.5t-16.5 -19.5t-17.5 -7t-12 -1t-24.5 2t-26.5 2h-47q-18 0 -37 -1t-37 -3q-8 0 -16.5 -1t-16.5 -1q-45 0 -54 21.5t-9 46.5z" />
<glyph unicode="&#xed;" horiz-adv-x="382" d="M31 70v19t2 36q2 37 2 89v99v21.5t1 33t1 34v22.5v27.5t-1 41t-1 42v28.5t1 28.5t1 44t1 45t1 30.5v21.5t-1 31.5t-1 31.5v21.5v30.5t1 48.5t1 48.5v32.5q0 6 -1 22.5t-1 35t-1 36t-1 23.5q0 10 3 21t19 22q12 8 20.5 9t14.5 1q8 0 35 -2t35 -2t26.5 1t40 1t41 1t27.5 1 q12 0 33.5 -7t21.5 -50q0 -10 -1 -37t-2 -56.5t-2 -56.5t-1 -37t1 -33.5t1 -50t1 -50.5t1 -34t-1 -36.5t-1 -56.5t-1 -56.5t-1 -38.5q0 -8 1 -28.5t1 -45t1 -46t1 -30.5q0 -37 -3 -74.5t-3 -74.5q0 -10 1 -35t3 -53.5t3 -54t1 -35.5q0 -25 -7 -38.5t-16.5 -19.5t-17.5 -7 t-12 -1t-24.5 2t-26.5 2h-47q-18 0 -37 -1t-37 -3q-8 0 -16.5 -1t-16.5 -1q-45 0 -54 21.5t-9 46.5zM76 1245q0 8 3 15.5t7 15.5q2 6 8 22.5t13 35t13.5 35.5t10.5 24q2 4 4 10l4 12q6 16 14.5 25.5t40.5 9.5q6 0 19.5 -1t29 -1t29.5 -1t21 -1h32q6 0 19.5 1t30 1t31 1 t20.5 1q31 0 30 -25q0 -14 -8 -25t-35 -36q-10 -10 -17 -18.5t-17 -16.5q-16 -16 -36 -37.5t-24 -25.5l-25.5 -25.5t-23.5 -21.5h-14.5h-27.5h-28.5h-19.5t-29.5 -1t-31.5 -1t-25.5 2.5t-17.5 25.5z" />
<glyph unicode="&#xee;" horiz-adv-x="382" d="M-73 1241q0 10 6 19.5t14 19.5t14.5 19.5t14.5 19.5q14 20 33.5 47t31.5 47q10 14 21.5 25.5t34.5 11.5q6 0 27.5 -2t27.5 -2h61q8 0 33 2t33 2q29 0 39 -4q12 -4 22.5 -17.5t40.5 -60.5q6 -8 14.5 -21.5t17.5 -25.5t17.5 -22.5t10.5 -12.5q8 -10 16 -22.5t8 -24.5 q0 -14 -10 -19.5t-20 -5.5h-19.5t-28 1.5t-27.5 1.5h-20h-20t-21 -3q-20 -4 -28 -4q-25 0 -35 16.5t-18 35.5q-2 6 -8.5 16t-18.5 10t-23 -18q-4 -10 -5 -18.5t-5 -16.5q-2 -6 -8 -14.5t-18 -8.5q-8 0 -39 2.5t-41 2.5q-8 0 -36 -1.5t-36 -1.5q-35 0 -44 9.5t-9 17.5zM31 70 v19t2 36q2 37 2 89v99v21.5t1 33t1 34v22.5v27.5t-1 41t-1 42v28.5t1 28.5t1 44t1 45t1 30.5v21.5t-1 31.5t-1 31.5v21.5v30.5t1 48.5t1 48.5v32.5q0 6 -1 22.5t-1 35t-1 36t-1 23.5q0 10 3 21t19 22q12 8 20.5 9t14.5 1q8 0 35 -2t35 -2t26.5 1t40 1t41 1t27.5 1 q12 0 33.5 -7t21.5 -50q0 -10 -1 -37t-2 -56.5t-2 -56.5t-1 -37t1 -33.5t1 -50t1 -50.5t1 -34t-1 -36.5t-1 -56.5t-1 -56.5t-1 -38.5q0 -8 1 -28.5t1 -45t1 -46t1 -30.5q0 -37 -3 -74.5t-3 -74.5q0 -10 1 -35t3 -53.5t3 -54t1 -35.5q0 -25 -7 -38.5t-16.5 -19.5t-17.5 -7 t-12 -1t-24.5 2t-26.5 2h-47q-18 0 -37 -1t-37 -3q-8 0 -16.5 -1t-16.5 -1q-45 0 -54 21.5t-9 46.5z" />
<glyph unicode="&#xef;" horiz-adv-x="382" d="M-88 1403q0 37 21.5 43t32.5 6q8 0 36.5 -2t38.5 -2q8 0 37 1t39 1q35 0 41 -17.5t6 -58.5q0 -4 1 -24.5t1 -26.5q-2 -14 -2 -25q0 -10 -1 -18t-1 -10q-2 -4 -11 -17.5t-30 -13.5q-4 0 -15 1t-15 1q-10 0 -43 -1t-43 -1h-35q-41 0 -47.5 19.5t-6.5 48.5q0 6 -1 19 t-1 28.5t-1 29t-1 19.5zM31 70v19t2 36q2 37 2 89v99v21.5t1 33t1 34v22.5v27.5t-1 41t-1 42v28.5t1 28.5t1 44t1 45t1 30.5v21.5t-1 31.5t-1 31.5v21.5v30.5t1 48.5t1 48.5v32.5q0 6 -1 22.5t-1 35t-1 36t-1 23.5q0 10 3 21t19 22q12 8 20.5 9t14.5 1q8 0 35 -2t35 -2 t26.5 1t40 1t41 1t27.5 1q12 0 33.5 -7t21.5 -50q0 -10 -1 -37t-2 -56.5t-2 -56.5t-1 -37t1 -33.5t1 -50t1 -50.5t1 -34t-1 -36.5t-1 -56.5t-1 -56.5t-1 -38.5q0 -8 1 -28.5t1 -45t1 -46t1 -30.5q0 -37 -3 -74.5t-3 -74.5q0 -10 1 -35t3 -53.5t3 -54t1 -35.5q0 -25 -7 -38.5 t-16.5 -19.5t-17.5 -7t-12 -1t-24.5 2t-26.5 2h-47q-18 0 -37 -1t-37 -3q-8 0 -16.5 -1t-16.5 -1q-45 0 -54 21.5t-9 46.5zM230 1409q0 31 14 36t25 5h26.5t40 -1t41 -1h27.5q4 0 19.5 1t21.5 1q27 0 31 -14.5t4 -32.5q0 -6 -1 -29.5t-1 -30.5q0 -12 1 -25t1 -26 q0 -27 -13.5 -38t-50.5 -13q-6 0 -24.5 -1t-40 -1t-40 -1t-24.5 -1q-41 0 -47 12.5t-6 36.5v17.5t-1 34t-1 32.5v16q0 4 -1 10.5t-1 12.5z" />
<glyph unicode="&#xf0;" d="M33 548v99q0 61 2 117.5t11 109t29.5 99.5t59.5 90q35 37 78 60.5t106 23.5q6 0 17.5 -1t23.5 -3l5 4q-18 37 -29.5 50t-40.5 13q-4 0 -17.5 -1t-30 -1t-29.5 -1t-15 -1q-8 -2 -23 -2q-20 0 -26 10q-6 4 -12.5 17.5t-11.5 28t-8 26.5t-3 14q0 12 7 22.5t24 10.5 q4 0 20 -1t20 -1q27 0 33 1t6 3q0 4 -7 12.5t-15 14.5q-8 8 -13.5 15t-5.5 24q0 47 52 47h21t32.5 -1t34 -1h22.5q25 0 72 6q8 0 15 1t16 1q39 0 54 -11t28 -28q2 -2 17 -22.5t21 -34.5q8 -12 12.5 -16.5t18.5 -4.5q10 0 42 2t42 2q20 0 31 -10q8 -10 16 -40.5t8 -39.5 q0 -23 -13 -26.5t-23 -5.5h-37q-10 0 -11.5 -1t-1.5 -4q0 -4 9 -16q6 -12 19 -42t27.5 -71t29 -92t20.5 -102q4 -35 7 -91.5t4 -110.5t2 -95t1 -45q0 -20 -1 -56t-3 -75t-4 -71t-4 -42q-10 -88 -42 -149.5t-78 -99.5t-102.5 -54t-113.5 -16q-31 0 -70 2t-80.5 13t-82.5 35.5 t-76 72.5q-16 20 -28.5 47.5t-22 53.5t-13.5 44t-4 20q-6 31 -10 76t-6 95.5t-2 102.5zM340 379q0 -55 15.5 -76.5t43.5 -21.5q27 0 41.5 14t20.5 32.5t7 37t1 28.5q0 14 -1 51t-2 79t-2 79t-1 53v19.5t1 29t1 28.5v20q0 14 -1 33.5t-7 38t-19.5 31.5t-38.5 13 q-49 0 -56 -48t-3 -136v-59v-92.5v-92.5v-61z" />
<glyph unicode="&#xf1;" horiz-adv-x="768" d="M37 1079q0 39 21.5 47.5t37.5 8.5q8 0 40 -1t42 -1h17q10 0 40.5 2t40.5 2q6 0 21.5 -2t21.5 -15q4 -6 2 -13t3 -15q4 -12 14 -13l9 5q9 6 19.5 12t20.5 12t14 8q20 10 49 18.5t54 8.5q66 0 113 -29t69 -63q16 -29 28.5 -65t12.5 -118q0 -29 -1 -59.5t-1 -58.5v-20.5 t1 -31t1 -31v-20.5v-18.5t-1 -27.5t-1 -27.5v-18.5q0 -8 1 -30.5t2 -47t2 -48t1 -32.5q0 -10 -1 -36.5t-1 -57.5t-1 -58.5t-1 -37.5q0 -8 1 -27.5t1 -41t1 -41t1 -27.5q0 -53 -25.5 -62.5t-64.5 -9.5q-8 0 -34.5 1t-37.5 1q-20 0 -39.5 -1t-42.5 -1q-8 0 -19 1t-20.5 7 t-16.5 18.5t-7 34.5q0 10 1 36t1 54.5t1 54t1 36.5q0 10 -1 37.5t-1 58.5t-1 57.5t-1 38.5q0 14 1 53t1 83t1 83t1 56q0 78 -5 112.5t-36 34.5q-47 0 -47 -106v-44t1 -67t1 -67.5v-45.5q0 -8 -1 -27.5t-1 -41t-1 -42t-1 -28.5q0 -10 1 -33.5t3 -51.5t3 -52.5t1 -34.5 q0 -8 -2 -35.5t-2 -38.5q0 -6 2 -26.5t2 -28.5q0 -57 -19.5 -70.5t-47.5 -13.5q-6 0 -19.5 1t-29 1t-30 1t-20.5 1q-4 0 -16 -1t-25.5 -2t-26 -2t-18.5 -1q-25 0 -40 16.5t-15 46.5v95q0 12 1 46t1 71.5t1 71.5t1 48q0 8 -1 32t-1 49.5t-1 49t-1 33.5q0 8 1 30.5t1 49.5 t1 49.5t1 32.5q0 14 -1 54t-1 85t-1 86t-1 57q0 8 -1 38t-1 40zM51 1284q0 2 6.5 28.5t27 57.5t61.5 56.5t108 25.5q25 0 53.5 -5t59 -10t59.5 -10.5t53 -5.5q10 0 19.5 2t17.5 13q4 6 11.5 13t11.5 7q0 2 2 2t14 -4q2 0 13.5 -2t23.5 -4t24.5 -4t16.5 -2q47 -8 59.5 -11.5 t12.5 -11.5l-6 -24q-23 -72 -76 -110t-129 -38q-12 0 -44 2t-104 19q-23 4 -33 6t-20 2q-6 0 -15.5 -1t-17.5 -5q-10 -6 -17 -15.5t-18 -13.5h-6q-8 0 -20 4q-8 2 -36 5t-38 5q-8 2 -15 4.5t-16 2.5q-18 2 -30.5 5t-12.5 17z" />
<glyph unicode="&#xf2;" d="M33 600v39q0 74 2 125t8 90t15.5 69.5t23.5 61.5q27 51 57.5 81t40.5 36q35 23 97.5 42t144.5 19q74 0 128 -20.5t92 -49t60.5 -61.5t32.5 -57q23 -51 31 -150.5t8 -273.5q0 -117 -5 -188.5t-14.5 -114.5t-20.5 -66.5t-23 -44.5q-16 -29 -41 -55.5t-62 -48t-87 -34.5 t-118 -13t-133 18.5t-114 65.5q-41 37 -54.5 63.5t-25.5 61.5q-8 25 -14.5 42t-9.5 32.5t-6 34t-5 44.5q-4 37 -5 85t-2 91t-1 76zM141 1425q0 16 12.5 20.5t16.5 4.5t17.5 -1t17.5 -1h17.5t27.5 -1t27.5 -1h19.5t20.5 1t32 1t34 1t22.5 1q29 0 39 -8t18 -35q2 -10 10 -30.5 t16.5 -43t15.5 -41t9 -22.5q4 -10 7 -15.5t3 -11.5q0 -16 -20 -24q-4 0 -9 -1t-13.5 -1t-21.5 1t-38 1h-82q-10 0 -15 4t-24 22l-24.5 24.5t-43 45t-42 45t-21.5 22.5q-12 10 -20.5 19.5t-8.5 23.5zM340 406q0 -23 1 -44.5t6 -40t16.5 -29.5t33.5 -11q27 0 41.5 13 t21.5 32.5t8 40t1 36.5q0 14 -1 50t-2 76t-2 76t-1 52v19.5t1 29t1 29v19.5q0 18 -2 38.5t-8 37t-19.5 27.5t-36.5 11q-47 0 -55 -47t-4 -139v-276z" />
<glyph unicode="&#xf3;" d="M33 600v39q0 74 2 125t8 90t15.5 69.5t23.5 61.5q27 51 57.5 81t40.5 36q35 23 97.5 42t144.5 19q74 0 128 -20.5t92 -49t60.5 -61.5t32.5 -57q23 -51 31 -150.5t8 -273.5q0 -117 -5 -188.5t-14.5 -114.5t-20.5 -66.5t-23 -44.5q-16 -29 -41 -55.5t-62 -48t-87 -34.5 t-118 -13t-133 18.5t-114 65.5q-41 37 -54.5 63.5t-25.5 61.5q-8 25 -14.5 42t-9.5 32.5t-6 34t-5 44.5q-4 37 -5 85t-2 91t-1 76zM289 1245q0 8 3 15.5t7 15.5q2 6 8 22.5t13 35t13.5 35.5t10.5 24q2 4 4 10l4 12q6 16 14.5 25.5t40.5 9.5q6 0 19.5 -1t29 -1t29.5 -1t21 -1 h32q6 0 19.5 1t30 1t31 1t20.5 1q31 0 30 -25q0 -14 -8 -25t-35 -36q-10 -10 -17 -18.5t-17 -16.5q-16 -16 -36 -37.5t-24 -25.5l-25.5 -25.5t-23.5 -21.5h-14.5h-27.5h-28.5h-19.5t-29.5 -1t-31.5 -1t-25.5 2.5t-17.5 25.5zM340 406q0 -23 1 -44.5t6 -40t16.5 -29.5 t33.5 -11q27 0 41.5 13t21.5 32.5t8 40t1 36.5q0 14 -1 50t-2 76t-2 76t-1 52v19.5t1 29t1 29v19.5q0 18 -2 38.5t-8 37t-19.5 27.5t-36.5 11q-47 0 -55 -47t-4 -139v-276z" />
<glyph unicode="&#xf4;" d="M33 600v39q0 74 2 125t8 90t15.5 69.5t23.5 61.5q27 51 57.5 81t40.5 36q35 23 97.5 42t144.5 19q74 0 128 -20.5t92 -49t60.5 -61.5t32.5 -57q23 -51 31 -150.5t8 -273.5q0 -117 -5 -188.5t-14.5 -114.5t-20.5 -66.5t-23 -44.5q-16 -29 -41 -55.5t-62 -48t-87 -34.5 t-118 -13t-133 18.5t-114 65.5q-41 37 -54.5 63.5t-25.5 61.5q-8 25 -14.5 42t-9.5 32.5t-6 34t-5 44.5q-4 37 -5 85t-2 91t-1 76zM138 1241q0 10 6 19.5t14 19.5t14.5 19.5t14.5 19.5q14 20 33.5 47t31.5 47q10 14 21.5 25.5t34.5 11.5q6 0 27.5 -2t27.5 -2h61q8 0 33 2 t33 2q29 0 39 -4q12 -4 22.5 -17.5t40.5 -60.5q6 -8 14.5 -21.5t17.5 -25.5t17.5 -22.5t10.5 -12.5q8 -10 16 -22.5t8 -24.5q0 -14 -10 -19.5t-20 -5.5h-19.5t-28 1.5t-27.5 1.5h-20h-20t-21 -3q-20 -4 -28 -4q-25 0 -35 16.5t-18 35.5q-2 6 -8.5 16t-18.5 10t-23 -18 q-4 -10 -5 -18.5t-5 -16.5q-2 -6 -8 -14.5t-18 -8.5q-8 0 -39 2.5t-41 2.5q-8 0 -36 -1.5t-36 -1.5q-35 0 -44 9.5t-9 17.5zM340 406q0 -23 1 -44.5t6 -40t16.5 -29.5t33.5 -11q27 0 41.5 13t21.5 32.5t8 40t1 36.5q0 14 -1 50t-2 76t-2 76t-1 52v19.5t1 29t1 29v19.5 q0 18 -2 38.5t-8 37t-19.5 27.5t-36.5 11q-47 0 -55 -47t-4 -139v-276z" />
<glyph unicode="&#xf5;" d="M33 600v39q0 74 2 125t8 90t15.5 69.5t23.5 61.5q27 51 57.5 81t40.5 36q35 23 97.5 42t144.5 19q74 0 128 -20.5t92 -49t60.5 -61.5t32.5 -57q23 -51 31 -150.5t8 -273.5q0 -117 -5 -188.5t-14.5 -114.5t-20.5 -66.5t-23 -44.5q-16 -29 -41 -55.5t-62 -48t-87 -34.5 t-118 -13t-133 18.5t-114 65.5q-41 37 -54.5 63.5t-25.5 61.5q-8 25 -14.5 42t-9.5 32.5t-6 34t-5 44.5q-4 37 -5 85t-2 91t-1 76zM71 1284q0 2 6.5 28.5t27 57.5t61.5 56.5t108 25.5q25 0 53.5 -5t59 -10t59.5 -10.5t53 -5.5q10 0 19.5 2t17.5 13q4 6 11.5 13t11.5 7 q0 2 2 2t14 -4q2 0 13.5 -2t23.5 -4t24.5 -4t16.5 -2q47 -8 59.5 -11.5t12.5 -11.5l-6 -24q-23 -72 -76 -110t-129 -38q-12 0 -44 2t-104 19q-23 4 -33 6t-20 2q-6 0 -15.5 -1t-17.5 -5q-10 -6 -17 -15.5t-18 -13.5h-6q-8 0 -20 4q-8 2 -36 5t-38 5q-8 2 -15 4.5t-16 2.5 q-18 2 -30.5 5t-12.5 17zM340 406q0 -23 1 -44.5t6 -40t16.5 -29.5t33.5 -11q27 0 41.5 13t21.5 32.5t8 40t1 36.5q0 14 -1 50t-2 76t-2 76t-1 52v19.5t1 29t1 29v19.5q0 18 -2 38.5t-8 37t-19.5 27.5t-36.5 11q-47 0 -55 -47t-4 -139v-276z" />
<glyph unicode="&#xf6;" d="M33 600v39q0 74 2 125t8 90t15.5 69.5t23.5 61.5q27 51 57.5 81t40.5 36q35 23 97.5 42t144.5 19q74 0 128 -20.5t92 -49t60.5 -61.5t32.5 -57q23 -51 31 -150.5t8 -273.5q0 -117 -5 -188.5t-14.5 -114.5t-20.5 -66.5t-23 -44.5q-16 -29 -41 -55.5t-62 -48t-87 -34.5 t-118 -13t-133 18.5t-114 65.5q-41 37 -54.5 63.5t-25.5 61.5q-8 25 -14.5 42t-9.5 32.5t-6 34t-5 44.5q-4 37 -5 85t-2 91t-1 76zM123 1401q0 37 21.5 43t32.5 6q8 0 36.5 -2t38.5 -2q8 0 37 1t39 1q35 0 41 -17.5t6 -58.5q0 -4 1 -24.5t1 -26.5q-2 -14 -2 -25 q0 -10 -1 -18t-1 -10q-2 -4 -11 -17.5t-30 -13.5q-4 0 -15 1t-15 1q-10 0 -43 -1t-43 -1h-35q-41 0 -47.5 19.5t-6.5 48.5q0 6 -1 19t-1 28.5t-1 29t-1 19.5zM340 406q0 -23 1 -44.5t6 -40t16.5 -29.5t33.5 -11q27 0 41.5 13t21.5 32.5t8 40t1 36.5q0 14 -1 50t-2 76t-2 76 t-1 52v19.5t1 29t1 29v19.5q0 18 -2 38.5t-8 37t-19.5 27.5t-36.5 11q-47 0 -55 -47t-4 -139v-276zM441 1407q0 31 14 36t25 5h26.5t40 -1t41 -1h27.5q4 0 19.5 1t21.5 1q27 0 31 -14.5t4 -32.5q0 -6 -1 -29.5t-1 -30.5q0 -12 1 -25t1 -26q0 -27 -13.5 -38t-50.5 -13 q-6 0 -24.5 -1t-40 -1t-40 -1t-24.5 -1q-41 0 -47 12.5t-6 36.5v17.5t-1 34t-1 32.5v16q0 4 -1 10.5t-1 12.5z" />
<glyph unicode="&#xf8;" horiz-adv-x="854" d="M-10 78q0 8 4 14t10 17q4 4 14.5 18t21.5 30.5t21.5 31t14.5 20.5q-6 27 -11.5 53.5t-7.5 52.5q-4 25 -3 50.5t-1 50.5q0 6 -1 24.5t-3 39t-3 39t-1 26.5v104q0 12 1 24.5t3 24.5q2 20 3 41t1 43v28.5t2 31.5q0 12 10.5 64t40.5 104q35 59 65 78.5t58 31.5q20 10 40 17.5 t45.5 12.5t59.5 8t87 3q41 0 68.5 -7t60.5 -17q29 -12 53.5 -25.5t63.5 -56.5q4 4 14 17t14 18q16 18 20.5 22t8.5 4q8 0 28.5 -17.5t28.5 -21.5q16 -10 17 -16q0 -12 -9.5 -24.5t-21.5 -28.5q-10 -12 -19.5 -25.5t-19.5 -28.5q6 -29 10 -58.5t6 -57.5q2 -23 2 -44.5v-43.5 l7 -68v-24.5t-1 -39t-1 -39v-26.5v-20.5t1 -31t1 -31.5v-21q0 -63 -5.5 -105.5t-13.5 -83.5q-12 -55 -26.5 -94t-49.5 -76q-47 -53 -92 -69.5t-74 -22.5q-16 -4 -27 -6t-23.5 -3t-30 -1h-43.5q-33 0 -54.5 1t-38 4t-34 10t-41.5 17q-18 8 -29.5 14.5t-22 13.5t-23.5 19.5 t-34 30.5q-16 -20 -23.5 -29.5t-27.5 -37.5q-10 -16 -23 -17q-10 0 -16 6q-4 4 -8 8.5t-8 8.5q-8 6 -16.5 10t-12.5 12q-6 8 -6 19zM336 356q0 -35 18.5 -65.5t57.5 -30.5q25 0 44 12.5t29 36.5q8 16 9.5 27.5t1.5 38.5q0 8 1 27.5t2 43t2 44t1 28.5v32t-4 36l-31 -37 q-14 -18 -26.5 -37.5t-26.5 -36.5q-6 -8 -12.5 -14t-10.5 -12q-20 -27 -31.5 -41.5t-16.5 -23.5t-6 -15.5t-1 -12.5zM336 664.5q0 -17.5 1 -38t1 -38v-23.5q12 12 25.5 27.5t23.5 30.5q4 6 16.5 22.5t25.5 35.5t25.5 36.5t18.5 23.5q12 16 18.5 27.5t6.5 34.5 q0 29 -18.5 54.5t-57.5 25.5q-25 0 -48.5 -10.5t-29.5 -55.5q0 -2 -1 -20.5t-3 -41t-3 -42t-1 -25.5v-23.5z" />
<glyph unicode="&#xf9;" d="M29 1051q0 8 1 23.5t6 29.5t17.5 25.5t34.5 11.5q10 0 31 -4h13t23.5 -1t23.5 -1h16q4 0 17 1t28 3q16 0 29.5 1t17.5 1q10 0 30.5 -7.5t20.5 -48.5v-17t-1 -27.5t-1 -28v-19.5q0 -10 1 -36.5t2 -57.5t2 -58.5t1 -39.5q0 -10 -1 -33t-2 -49.5t-2 -50t-1 -33.5v-40v-62.5 t1 -62.5t1 -42v-16.5t-1 -25.5t-1 -25.5v-18.5q0 -20 12 -37.5t51 -17.5q35 0 51.5 26.5t16.5 100.5q0 6 -1 24.5t-1 38t-1 37.5t-1 27v123v117.5t-2 117.5q0 8 -1 31.5t-1 50.5t-1 50.5t-1 33.5q0 25 7 49.5t50 24.5q2 0 24.5 -2t24.5 -2q10 -2 21.5 -2h21.5q47 0 56 2 q4 0 23.5 3t23.5 3q39 0 51 -17.5t12 -36.5q0 -4 -1 -21t-1 -22v-15t-1 -29.5t-1 -34v-27.5v-20.5t1 -32t1 -32.5v-22q0 -10 1 -36.5t1 -57v-59.5v-43q0 -12 -1 -47t-2 -75t-2 -77t-1 -51q0 -6 1 -24.5t1 -38t1 -38t1 -26.5t-1 -35.5t-1 -38.5q0 -6 1 -21.5t2 -32.5t2 -32.5 t1 -21.5q0 -41 -13 -57.5t-44 -16.5q-4 0 -16.5 1t-27 1t-26.5 1t-18 1q-35 0 -55.5 -2t-26.5 -2q-8 -2 -15.5 -3t-17.5 -1q-25 0 -33 8t-10 12t-1 10.5t-1 12.5q-4 14 -8 14t-8 -4t-9 -8q-4 -4 -8 -6t-8 -6q-25 -14 -44 -22.5t-36.5 -12.5t-38 -5t-47.5 -1q-41 0 -69.5 5 t-57.5 21q-37 20 -57.5 49t-29.5 59t-11 54.5t-2 38.5v22.5t1 35t1 36v23.5q0 8 -1 27.5t-1 41t-1 42t-1 28.5v50t1 78t1 79v53v106.5t-2 106.5q0 23 -2 52.5t-2 52.5zM141 1425q0 16 12.5 20.5t16.5 4.5t17.5 -1t17.5 -1h17.5t27.5 -1t27.5 -1h19.5t20.5 1t32 1t34 1 t22.5 1q29 0 39 -8t18 -35q2 -10 10 -30.5t16.5 -43t15.5 -41t9 -22.5q4 -10 7 -15.5t3 -11.5q0 -16 -20 -24q-4 0 -9 -1t-13.5 -1t-21.5 1t-38 1h-82q-10 0 -15 4t-24 22l-24.5 24.5t-43 45t-42 45t-21.5 22.5q-12 10 -20.5 19.5t-8.5 23.5z" />
<glyph unicode="&#xfa;" d="M29 1051q0 8 1 23.5t6 29.5t17.5 25.5t34.5 11.5q10 0 31 -4h13t23.5 -1t23.5 -1h16q4 0 17 1t28 3q16 0 29.5 1t17.5 1q10 0 30.5 -7.5t20.5 -48.5v-17t-1 -27.5t-1 -28v-19.5q0 -10 1 -36.5t2 -57.5t2 -58.5t1 -39.5q0 -10 -1 -33t-2 -49.5t-2 -50t-1 -33.5v-40v-62.5 t1 -62.5t1 -42v-16.5t-1 -25.5t-1 -25.5v-18.5q0 -20 12 -37.5t51 -17.5q35 0 51.5 26.5t16.5 100.5q0 6 -1 24.5t-1 38t-1 37.5t-1 27v123v117.5t-2 117.5q0 8 -1 31.5t-1 50.5t-1 50.5t-1 33.5q0 25 7 49.5t50 24.5q2 0 24.5 -2t24.5 -2q10 -2 21.5 -2h21.5q47 0 56 2 q4 0 23.5 3t23.5 3q39 0 51 -17.5t12 -36.5q0 -4 -1 -21t-1 -22v-15t-1 -29.5t-1 -34v-27.5v-20.5t1 -32t1 -32.5v-22q0 -10 1 -36.5t1 -57v-59.5v-43q0 -12 -1 -47t-2 -75t-2 -77t-1 -51q0 -6 1 -24.5t1 -38t1 -38t1 -26.5t-1 -35.5t-1 -38.5q0 -6 1 -21.5t2 -32.5t2 -32.5 t1 -21.5q0 -41 -13 -57.5t-44 -16.5q-4 0 -16.5 1t-27 1t-26.5 1t-18 1q-35 0 -55.5 -2t-26.5 -2q-8 -2 -15.5 -3t-17.5 -1q-25 0 -33 8t-10 12t-1 10.5t-1 12.5q-4 14 -8 14t-8 -4t-9 -8q-4 -4 -8 -6t-8 -6q-25 -14 -44 -22.5t-36.5 -12.5t-38 -5t-47.5 -1q-41 0 -69.5 5 t-57.5 21q-37 20 -57.5 49t-29.5 59t-11 54.5t-2 38.5v22.5t1 35t1 36v23.5q0 8 -1 27.5t-1 41t-1 42t-1 28.5v50t1 78t1 79v53v106.5t-2 106.5q0 23 -2 52.5t-2 52.5zM289 1245q0 8 3 15.5t7 15.5q2 6 8 22.5t13 35t13.5 35.5t10.5 24q2 4 4 10l4 12q6 16 14.5 25.5 t40.5 9.5q6 0 19.5 -1t29 -1t29.5 -1t21 -1h32q6 0 19.5 1t30 1t31 1t20.5 1q31 0 30 -25q0 -14 -8 -25t-35 -36q-10 -10 -17 -18.5t-17 -16.5q-16 -16 -36 -37.5t-24 -25.5l-25.5 -25.5t-23.5 -21.5h-14.5h-27.5h-28.5h-19.5t-29.5 -1t-31.5 -1t-25.5 2.5t-17.5 25.5z" />
<glyph unicode="&#xfb;" d="M29 1051q0 8 1 23.5t6 29.5t17.5 25.5t34.5 11.5q10 0 31 -4h13t23.5 -1t23.5 -1h16q4 0 17 1t28 3q16 0 29.5 1t17.5 1q10 0 30.5 -7.5t20.5 -48.5v-17t-1 -27.5t-1 -28v-19.5q0 -10 1 -36.5t2 -57.5t2 -58.5t1 -39.5q0 -10 -1 -33t-2 -49.5t-2 -50t-1 -33.5v-40v-62.5 t1 -62.5t1 -42v-16.5t-1 -25.5t-1 -25.5v-18.5q0 -20 12 -37.5t51 -17.5q35 0 51.5 26.5t16.5 100.5q0 6 -1 24.5t-1 38t-1 37.5t-1 27v123v117.5t-2 117.5q0 8 -1 31.5t-1 50.5t-1 50.5t-1 33.5q0 25 7 49.5t50 24.5q2 0 24.5 -2t24.5 -2q10 -2 21.5 -2h21.5q47 0 56 2 q4 0 23.5 3t23.5 3q39 0 51 -17.5t12 -36.5q0 -4 -1 -21t-1 -22v-15t-1 -29.5t-1 -34v-27.5v-20.5t1 -32t1 -32.5v-22q0 -10 1 -36.5t1 -57v-59.5v-43q0 -12 -1 -47t-2 -75t-2 -77t-1 -51q0 -6 1 -24.5t1 -38t1 -38t1 -26.5t-1 -35.5t-1 -38.5q0 -6 1 -21.5t2 -32.5t2 -32.5 t1 -21.5q0 -41 -13 -57.5t-44 -16.5q-4 0 -16.5 1t-27 1t-26.5 1t-18 1q-35 0 -55.5 -2t-26.5 -2q-8 -2 -15.5 -3t-17.5 -1q-25 0 -33 8t-10 12t-1 10.5t-1 12.5q-4 14 -8 14t-8 -4t-9 -8q-4 -4 -8 -6t-8 -6q-25 -14 -44 -22.5t-36.5 -12.5t-38 -5t-47.5 -1q-41 0 -69.5 5 t-57.5 21q-37 20 -57.5 49t-29.5 59t-11 54.5t-2 38.5v22.5t1 35t1 36v23.5q0 8 -1 27.5t-1 41t-1 42t-1 28.5v50t1 78t1 79v53v106.5t-2 106.5q0 23 -2 52.5t-2 52.5zM138 1241q0 10 6 19.5t14 19.5t14.5 19.5t14.5 19.5q14 20 33.5 47t31.5 47q10 14 21.5 25.5t34.5 11.5 q6 0 27.5 -2t27.5 -2h61q8 0 33 2t33 2q29 0 39 -4q12 -4 22.5 -17.5t40.5 -60.5q6 -8 14.5 -21.5t17.5 -25.5t17.5 -22.5t10.5 -12.5q8 -10 16 -22.5t8 -24.5q0 -14 -10 -19.5t-20 -5.5h-19.5t-28 1.5t-27.5 1.5h-20h-20t-21 -3q-20 -4 -28 -4q-25 0 -35 16.5t-18 35.5 q-2 6 -8.5 16t-18.5 10t-23 -18q-4 -10 -5 -18.5t-5 -16.5q-2 -6 -8 -14.5t-18 -8.5q-8 0 -39 2.5t-41 2.5q-8 0 -36 -1.5t-36 -1.5q-35 0 -44 9.5t-9 17.5z" />
<glyph unicode="&#xfc;" d="M29 1051q0 8 1 23.5t6 29.5t17.5 25.5t34.5 11.5q10 0 31 -4h13t23.5 -1t23.5 -1h16q4 0 17 1t28 3q16 0 29.5 1t17.5 1q10 0 30.5 -7.5t20.5 -48.5v-17t-1 -27.5t-1 -28v-19.5q0 -10 1 -36.5t2 -57.5t2 -58.5t1 -39.5q0 -10 -1 -33t-2 -49.5t-2 -50t-1 -33.5v-40v-62.5 t1 -62.5t1 -42v-16.5t-1 -25.5t-1 -25.5v-18.5q0 -20 12 -37.5t51 -17.5q35 0 51.5 26.5t16.5 100.5q0 6 -1 24.5t-1 38t-1 37.5t-1 27v123v117.5t-2 117.5q0 8 -1 31.5t-1 50.5t-1 50.5t-1 33.5q0 25 7 49.5t50 24.5q2 0 24.5 -2t24.5 -2q10 -2 21.5 -2h21.5q47 0 56 2 q4 0 23.5 3t23.5 3q39 0 51 -17.5t12 -36.5q0 -4 -1 -21t-1 -22v-15t-1 -29.5t-1 -34v-27.5v-20.5t1 -32t1 -32.5v-22q0 -10 1 -36.5t1 -57v-59.5v-43q0 -12 -1 -47t-2 -75t-2 -77t-1 -51q0 -6 1 -24.5t1 -38t1 -38t1 -26.5t-1 -35.5t-1 -38.5q0 -6 1 -21.5t2 -32.5t2 -32.5 t1 -21.5q0 -41 -13 -57.5t-44 -16.5q-4 0 -16.5 1t-27 1t-26.5 1t-18 1q-35 0 -55.5 -2t-26.5 -2q-8 -2 -15.5 -3t-17.5 -1q-25 0 -33 8t-10 12t-1 10.5t-1 12.5q-4 14 -8 14t-8 -4t-9 -8q-4 -4 -8 -6t-8 -6q-25 -14 -44 -22.5t-36.5 -12.5t-38 -5t-47.5 -1q-41 0 -69.5 5 t-57.5 21q-37 20 -57.5 49t-29.5 59t-11 54.5t-2 38.5v22.5t1 35t1 36v23.5q0 8 -1 27.5t-1 41t-1 42t-1 28.5v50t1 78t1 79v53v106.5t-2 106.5q0 23 -2 52.5t-2 52.5zM137 1401q0 37 21.5 43t32.5 6q8 0 36.5 -2t38.5 -2q8 0 37 1t39 1q35 0 41 -17.5t6 -58.5q0 -4 1 -24.5 t1 -26.5q-2 -14 -2 -25q0 -10 -1 -18t-1 -10q-2 -4 -11 -17.5t-30 -13.5q-4 0 -15 1t-15 1q-10 0 -43 -1t-43 -1h-35q-41 0 -47.5 19.5t-6.5 48.5q0 6 -1 19t-1 28.5t-1 29t-1 19.5zM455 1407q0 31 14 36t25 5h26.5t40 -1t41 -1h27.5q4 0 19.5 1t21.5 1q27 0 31 -14.5 t4 -32.5q0 -6 -1 -29.5t-1 -30.5q0 -12 1 -25t1 -26q0 -27 -13.5 -38t-50.5 -13q-6 0 -24.5 -1t-40 -1t-40 -1t-24.5 -1q-41 0 -47 12.5t-6 36.5v17.5t-1 34t-1 32.5v16q0 4 -1 10.5t-1 12.5z" />
<glyph unicode="&#xfd;" d="M-2 1100q0 31 25.5 36t42.5 5q8 0 38.5 -1t40.5 -1q8 0 31 1t45.5 2t42 2t21.5 1q43 0 50 -21.5t9 -50.5q0 -35 1 -55.5t2 -33.5t3 -23.5t4 -24.5q2 -12 4 -23.5t4 -23.5q4 -27 5.5 -53.5t5.5 -55.5q0 -10 3 -30.5t6 -42t5 -40t4 -22.5q6 -33 7 -42t1 -19q0 -27 11 -27 q4 0 7 11.5t5 15.5q8 35 12 56.5t7 37.5t4 30.5t1 36.5q0 16 1.5 27.5t2.5 21t2 20.5t5 30q4 29 7 58.5t3 58.5q0 12 1 24t1 23q4 78 10 106.5t33 28.5q4 0 18.5 -1t18.5 -1q12 0 27.5 -1t31.5 -1q41 0 55.5 1t20.5 3q6 0 25.5 3t23.5 3q27 0 46.5 -7t19.5 -34 q-4 -23 -4 -30t-2 -29q-4 -27 -9.5 -53.5t-11.5 -55.5q-10 -43 -16 -87t-15 -89q-4 -23 -9 -44.5t-15 -53.5q-6 -20 -9 -41t-10 -41q-4 -16 -8 -32.5t-8 -33.5q-8 -39 -11 -52t-9 -38q-4 -16 -14.5 -56t-22 -85t-21.5 -85.5t-14 -56.5q-4 -14 -11.5 -37.5t-14.5 -48t-14 -47 t-11 -32.5q-20 -51 -48 -81t-62 -45.5t-75 -19.5t-88 -4q-35 0 -75.5 3t-73.5 11q-10 4 -29.5 13.5t-28.5 31.5q-4 6 -4 24.5v90.5q0 10 -1 42t-1 42q0 49 16.5 58.5t32.5 9.5q14 0 31 -9q4 -4 9 -7t12 -7q10 -8 28 -8q25 0 33 14.5t8 28.5q0 2 -2 13.5t-5 24.5t-6 25.5 t-3 16.5q-8 33 -16.5 63.5t-18.5 63.5q-6 25 -11 48t-11 48q-8 29 -16.5 59.5t-18.5 59.5q-8 29 -15.5 54.5t-13.5 53.5q0 4 -3 16.5t-7 26t-7 25.5t-3 18q-4 10 -4.5 23.5t-4.5 26.5l-6 30q-4 10 -5 22.5t-5 22.5q0 4 -7 31t-15.5 59.5t-14.5 61.5t-6 39zM289 1245 q0 8 3 15.5t7 15.5q2 6 8 22.5t13 35t13.5 35.5t10.5 24q2 4 4 10l4 12q6 16 14.5 25.5t40.5 9.5q6 0 19.5 -1t29 -1t29.5 -1t21 -1h32q6 0 19.5 1t30 1t31 1t20.5 1q31 0 30 -25q0 -14 -8 -25t-35 -36q-10 -10 -17 -18.5t-17 -16.5q-16 -16 -36 -37.5t-24 -25.5 l-25.5 -25.5t-23.5 -21.5h-14.5h-27.5h-28.5h-19.5t-29.5 -1t-31.5 -1t-25.5 2.5t-17.5 25.5z" />
<glyph unicode="&#xfe;" d="M31 -119q0 6 1 23.5t3 37t3 37t1 25.5v23.5t-1 38t-1 38v25.5v473v40t2 60v424v33t-1 47.5t-1 48v35.5v16.5t-1 26t-1 24.5v17q0 45 18.5 52.5t34.5 7.5h19.5t19.5 -2t23.5 -2h27.5q16 0 33 -3q8 0 32.5 3.5t30.5 3.5q20 0 32.5 -8.5t18 -18.5t6.5 -21.5t1 -17.5 t-1 -25.5t-1 -41t-1 -40t-1 -26.5v-18.5t1 -27.5t1 -27.5v-18.5q0 -23 5 -29t13 -6q10 0 15.5 3t25.5 15q23 12 56.5 19.5t62.5 7.5q104 0 168 -76q27 -31 45 -70.5t30.5 -100t17.5 -148.5t5 -213q0 -98 -5 -167t-14.5 -117t-21.5 -79.5t-26 -58.5q-37 -63 -92.5 -98 t-122.5 -35q-49 0 -82 18q-8 4 -15.5 8t-15.5 9q-12 4 -21 4q-16 0 -21 -16.5t-5 -43.5q0 -6 1 -18t3 -27.5t3 -28t1 -18.5q0 -10 -9 -27.5t-44 -17.5q-8 0 -15.5 1t-13.5 1q-14 2 -27.5 2h-27.5q-6 0 -23.5 -1t-38 -1t-38 -1t-25.5 -1q-47 0 -47 49zM340 709q0 -16 1 -60.5 t1 -93.5t1 -93t1 -63q0 -35 8 -53t19.5 -27.5t20.5 -11.5t14 -2q4 0 24.5 6t32.5 43q4 12 6 23.5t3 33t1 57.5v97v24.5t1 39t1 39v24.5q0 41 -4 71t-14 54q-4 12 -13 26.5t-38 14.5q-25 0 -38.5 -14.5t-19.5 -36t-7 -48t-1 -50.5z" />
<glyph unicode="&#xff;" d="M-2 1100q0 31 25.5 36t42.5 5q8 0 38.5 -1t40.5 -1q8 0 31 1t45.5 2t42 2t21.5 1q43 0 50 -21.5t9 -50.5q0 -35 1 -55.5t2 -33.5t3 -23.5t4 -24.5q2 -12 4 -23.5t4 -23.5q4 -27 5.5 -53.5t5.5 -55.5q0 -10 3 -30.5t6 -42t5 -40t4 -22.5q6 -33 7 -42t1 -19q0 -27 11 -27 q4 0 7 11.5t5 15.5q8 35 12 56.5t7 37.5t4 30.5t1 36.5q0 16 1.5 27.5t2.5 21t2 20.5t5 30q4 29 7 58.5t3 58.5q0 12 1 24t1 23q4 78 10 106.5t33 28.5q4 0 18.5 -1t18.5 -1q12 0 27.5 -1t31.5 -1q41 0 55.5 1t20.5 3q6 0 25.5 3t23.5 3q27 0 46.5 -7t19.5 -34 q-4 -23 -4 -30t-2 -29q-4 -27 -9.5 -53.5t-11.5 -55.5q-10 -43 -16 -87t-15 -89q-4 -23 -9 -44.5t-15 -53.5q-6 -20 -9 -41t-10 -41q-4 -16 -8 -32.5t-8 -33.5q-8 -39 -11 -52t-9 -38q-4 -16 -14.5 -56t-22 -85t-21.5 -85.5t-14 -56.5q-4 -14 -11.5 -37.5t-14.5 -48t-14 -47 t-11 -32.5q-20 -51 -48 -81t-62 -45.5t-75 -19.5t-88 -4q-35 0 -75.5 3t-73.5 11q-10 4 -29.5 13.5t-28.5 31.5q-4 6 -4 24.5v90.5q0 10 -1 42t-1 42q0 49 16.5 58.5t32.5 9.5q14 0 31 -9q4 -4 9 -7t12 -7q10 -8 28 -8q25 0 33 14.5t8 28.5q0 2 -2 13.5t-5 24.5t-6 25.5 t-3 16.5q-8 33 -16.5 63.5t-18.5 63.5q-6 25 -11 48t-11 48q-8 29 -16.5 59.5t-18.5 59.5q-8 29 -15.5 54.5t-13.5 53.5q0 4 -3 16.5t-7 26t-7 25.5t-3 18q-4 10 -4.5 23.5t-4.5 26.5l-6 30q-4 10 -5 22.5t-5 22.5q0 4 -7 31t-15.5 59.5t-14.5 61.5t-6 39zM123 1403 q0 37 21.5 43t32.5 6q8 0 36.5 -2t38.5 -2q8 0 37 1t39 1q35 0 41 -17.5t6 -58.5q0 -4 1 -24.5t1 -26.5q-2 -14 -2 -25q0 -10 -1 -18t-1 -10q-2 -4 -11 -17.5t-30 -13.5q-4 0 -15 1t-15 1q-10 0 -43 -1t-43 -1h-35q-41 0 -47.5 19.5t-6.5 48.5q0 6 -1 19t-1 28.5t-1 29 t-1 19.5zM441 1409q0 31 14 36t25 5h26.5t40 -1t41 -1h27.5q4 0 19.5 1t21.5 1q27 0 31 -14.5t4 -32.5q0 -6 -1 -29.5t-1 -30.5q0 -12 1 -25t1 -26q0 -27 -13.5 -38t-50.5 -13q-6 0 -24.5 -1t-40 -1t-40 -1t-24.5 -1q-41 0 -47 12.5t-6 36.5v17.5t-1 34t-1 32.5v16 q0 4 -1 10.5t-1 12.5z" />
<glyph unicode="&#x152;" horiz-adv-x="1236" d="M45 762v143q0 37 1 62.5t5 66.5q6 92 12.5 142.5t22.5 91.5q16 43 45 73.5t60.5 52t59.5 34t44 16.5q27 8 79 14t85 6h53.5t48.5 -4q23 -4 45.5 -9t44.5 -7q4 0 17.5 -1t27 -1h25.5h12q8 0 34 2t36 2q20 2 49 2h55h19.5t30 -1t29.5 -1h20q10 0 39.5 1t39.5 1q16 0 34 -1 t33 -8t25.5 -22.5t10.5 -42.5q0 -8 -2 -35.5t-2 -35.5q0 -10 1 -40t1 -40q0 -47 -19.5 -66.5t-54.5 -19.5q-12 0 -24.5 1t-22.5 1h-31h-22.5h-35h-35.5h-23q-59 0 -60 -64q0 -6 1 -30.5t1 -30.5q0 -4 -2 -21.5t-2 -23.5q0 -16 8 -31q6 -10 18.5 -19.5t45.5 -9.5q6 0 30.5 1 t52 3t53.5 3.5t36 1.5q12 0 39.5 -5.5t38.5 -35.5q4 -6 4 -14.5v-43.5v-23.5t1 -37t1 -36.5v-24q0 -49 -18.5 -74.5t-80.5 -25.5q-6 0 -23.5 1t-36.5 3t-36.5 3t-23.5 1t-21.5 -1t-33 -8t-31 -21.5t-13.5 -40.5q0 -4 1 -23.5t1 -26.5v-94q0 -39 23.5 -51t58.5 -12q10 0 40 1 t40 1q25 0 57.5 1t57.5 1q55 0 63.5 -37t8.5 -107v-90q0 -18 -2.5 -35.5t-11.5 -32t-25.5 -23.5t-47.5 -9q-6 0 -20 1t-30.5 2t-31 2t-20.5 1t-19.5 -1t-29.5 -1t-30.5 -1t-20.5 -1t-23.5 1t-38 1t-38 1t-25.5 1h-18.5h-20.5t-34.5 -1t-59.5 -3h-66q-10 -2 -18 -4t-19 -4 q-23 -4 -62.5 -9.5t-62.5 -5.5q-74 0 -117.5 11.5t-60.5 17.5q-27 10 -61.5 30.5t-67.5 63.5q-20 25 -46 74t-38 152q-2 23 -3 96.5t-2 162.5t-1 177zM367 909q0 -8 1 -28.5t2 -43t2 -44t1 -29.5t-1 -30.5t-1 -47t-1 -48.5t-1 -32v-168q0 -25 2 -50.5t10 -44.5t25.5 -31.5 t46.5 -12.5t45 12q16 10 24 26.5t13 35.5q2 8 3 55t3 101.5t3 100.5t1 56q0 86 -1 187.5t-5 185.5q0 14 -3.5 33.5t-10.5 37t-22.5 29.5t-41.5 12q-16 0 -43 -10t-37 -47q-4 -14 -7 -47t-4 -66.5t-2 -61.5t-1 -30z" />
<glyph unicode="&#x153;" horiz-adv-x="1236" d="M31 575q0 57 1 101.5t2 78t3 59.5t4 48q4 39 11 67.5t16.5 50t20.5 39t26 34.5q41 47 98 79.5t164 32.5q70 0 136.5 -15t121.5 -56q33 23 79 42t134 19q61 0 107 -11t80 -31.5t58.5 -46.5t45.5 -54q16 -23 42.5 -89.5t26.5 -170.5q0 -6 -1 -45t-2 -82t-3 -80t-2 -39 q-2 -4 -7 -14.5t-14.5 -20.5t-21.5 -18.5t-29 -8.5q-8 0 -30.5 2.5t-30.5 2.5q-4 0 -17.5 -1.5t-27.5 -1.5t-26.5 -1t-18.5 -1q-8 0 -27.5 1t-41 2.5t-42 2.5t-28.5 1q-33 0 -52.5 -6.5t-19.5 -45.5q0 -12 5 -34.5t22 -45.5q16 -20 45.5 -36.5t93.5 -16.5q59 0 94 11.5 t51 21.5q12 4 22.5 8t18.5 4q4 0 14.5 -2t20.5 -8t18.5 -17.5t8.5 -27.5v-13t-2 -14q-2 -18 -2 -36.5v-36.5q0 -8 1 -35t1 -35q0 -39 -29 -55q-20 -12 -78.5 -26.5t-155.5 -14.5q-82 0 -144 11t-136 58q-23 -16 -77 -42.5t-161 -26.5q-23 0 -57.5 2t-50.5 6l-15 4 q-14 4 -34.5 12.5t-45 21.5t-44.5 34q-35 31 -55.5 65.5t-32 66t-15.5 60.5t-6 51q-4 59 -7 122t-3 140zM334 422q0 -18 2 -50t8 -48q8 -20 26.5 -32.5t35.5 -12.5q33 0 46 23.5t15 55.5q2 18 2 36t-2 79v285q0 20 -1 41.5t-7 38t-18.5 28t-37.5 11.5q-41 0 -54 -34t-13 -75 q0 -6 1 -23.5t1 -38t1 -38t1 -25.5q0 -12 -1 -43t-2 -66.5t-2 -67.5t-1 -44zM766 772q0 -4 1 -21.5t1 -23.5q0 -35 15.5 -41t31.5 -6q6 0 24.5 -1t24.5 -1q23 0 35 7t16 15t5.5 37t1.5 39q0 12 -1 33.5t-8.5 43t-23.5 37t-45 15.5q-27 0 -42.5 -17.5t-23.5 -40t-10 -45 t-2 -30.5z" />
<glyph unicode="&#x178;" horiz-adv-x="854" d="M-6 1391q0 29 15.5 39t31.5 10q6 0 20.5 -1t30.5 -1q16 -2 30.5 -3t20.5 -1q8 0 27.5 1t42.5 3q23 0 41 1t27 1q37 0 47 -20.5t18 -51.5q4 -18 5 -36.5t5 -37.5q4 -12 6.5 -24.5t4.5 -24.5q12 -47 20 -90t12 -72q0 -6 3.5 -20t6.5 -29.5t7 -28t6 -12.5t6 15q2 8 7 29.5 t9.5 46t8.5 47t6 30.5q8 35 16 71t12 71q2 16 2 32.5t3 32.5q2 23 12 48.5t59 25.5q6 0 23.5 -1t36 -2t36 -2t23.5 -1t21.5 1t31.5 1q16 2 31.5 2h21.5q16 0 40 -5t24 -38q0 -14 -6 -39q-6 -16 -13.5 -34.5t-13.5 -35.5q-4 -16 -7 -32.5t-7 -32.5q-6 -27 -14.5 -52.5 t-18.5 -52.5q-12 -35 -24.5 -70.5t-22.5 -70.5q-16 -53 -28.5 -108.5t-30.5 -108.5q-8 -23 -15.5 -43.5t-15.5 -40.5q-20 -55 -30.5 -87t-15.5 -53.5t-6 -40t-1 -46.5q-2 -41 -3 -79t-1 -77v-22.5t1 -29t2 -48t5 -80.5q0 -6 2 -30t2 -30q0 -4 -1 -13t-7.5 -18.5t-19.5 -16.5 t-38 -7q-6 0 -20.5 1t-30.5 1t-31.5 1t-21.5 1t-23.5 -1t-37 -3t-35 -3t-19.5 -1q-10 0 -31.5 11t-21.5 52q0 8 3 37t3 37t-1 27.5t-1 42t-1 43t-1 28.5q0 12 1 42t3 65t3 65.5t1 42.5q0 33 -6 62q-4 12 -18.5 58t-28.5 83q-2 2 -6 15.5t-10.5 30t-11.5 31.5t-7 24 q-12 45 -17 60t-16 42q-6 18 -20.5 60t-30.5 91.5t-31.5 99.5t-23.5 87q-6 23 -12.5 46t-14.5 46q-10 29 -12 41.5t-2 26.5zM145 1726q0 35 21.5 41.5t34.5 6.5q8 0 32.5 -2.5t32.5 -2.5h16.5t27 1.5t26.5 1.5h18q4 0 14.5 -1.5t18.5 -9.5t9 -20t1 -53q0 -4 1 -21.5t1 -24.5 q0 -12 -2 -35.5t-12 -33.5q-8 -8 -17.5 -9t-35.5 -1h-26.5t-40 -1t-40 -1h-26.5q-31 0 -40 16t-9 25v32v36t-3 34q0 6 -1 11t-1 11zM463 1729q0 29 13 37t38 8h23.5t37 -1t38 -1h26.5q4 0 18.5 1t18.5 1q23 0 28 -10.5t7 -18.5t1 -35t-1 -35q0 -6 1 -25.5t1 -25.5 q0 -31 -9.5 -44t-50.5 -15q-4 0 -24.5 -1t-46 -2t-47 -1h-27.5q-33 0 -39 24q-2 4 -2 25.5v29.5v11q0 8 -2 37.5t-2 40.5z" />
<glyph unicode="&#x2c6;" horiz-adv-x="425" d="M-55 1241q0 10 6 19.5t14 19.5t14.5 19.5t14.5 19.5q14 20 33.5 47t31.5 47q10 14 21.5 25.5t34.5 11.5q6 0 27.5 -2t27.5 -2h61q8 0 33 2t33 2q29 0 39 -4q12 -4 22.5 -17.5t40.5 -60.5q6 -8 14.5 -21.5t17.5 -25.5t17.5 -22.5t10.5 -12.5q8 -10 16 -22.5t8 -24.5 q0 -14 -10 -19.5t-20 -5.5h-19.5t-28 1.5t-27.5 1.5h-20h-20t-21 -3q-20 -4 -28 -4q-25 0 -35 16.5t-18 35.5q-2 6 -8.5 16t-18.5 10t-23 -18q-4 -10 -5 -18.5t-5 -16.5q-2 -6 -8 -14.5t-18 -8.5q-8 0 -39 2.5t-41 2.5q-8 0 -36 -1.5t-36 -1.5q-35 0 -44 9.5t-9 17.5z" />
<glyph unicode="&#x2dc;" horiz-adv-x="425" d="M-113 1284q0 2 6.5 28.5t27 57.5t61.5 56.5t108 25.5q25 0 53.5 -5t59 -10t59.5 -10.5t53 -5.5q10 0 19.5 2t17.5 13q4 6 11.5 13t11.5 7q0 2 2 2t14 -4q2 0 13.5 -2t23.5 -4t24.5 -4t16.5 -2q47 -8 59.5 -11.5t12.5 -11.5l-6 -24q-23 -72 -76 -110t-129 -38q-12 0 -44 2 t-104 19q-23 4 -33 6t-20 2q-6 0 -15.5 -1t-17.5 -5q-10 -6 -17 -15.5t-18 -13.5h-6q-8 0 -20 4q-8 2 -36 5t-38 5q-8 2 -15 4.5t-16 2.5q-18 2 -30.5 5t-12.5 17z" />
<glyph unicode="&#x2000;" horiz-adv-x="943" />
<glyph unicode="&#x2001;" horiz-adv-x="1886" />
<glyph unicode="&#x2002;" horiz-adv-x="943" />
<glyph unicode="&#x2003;" horiz-adv-x="1886" />
<glyph unicode="&#x2004;" horiz-adv-x="628" />
<glyph unicode="&#x2005;" horiz-adv-x="471" />
<glyph unicode="&#x2006;" horiz-adv-x="314" />
<glyph unicode="&#x2007;" horiz-adv-x="314" />
<glyph unicode="&#x2008;" horiz-adv-x="235" />
<glyph unicode="&#x2009;" horiz-adv-x="377" />
<glyph unicode="&#x200a;" horiz-adv-x="104" />
<glyph unicode="&#x2010;" horiz-adv-x="468" d="M14 479.5v28.5v23.5v37v37v25.5q0 41 8.5 64.5t38.5 23.5q8 0 32 -1t32 -1h57h30.5t31.5 -2q14 0 28.5 -1t28.5 -1q6 0 22.5 1t34 2t31.5 2l14 1q18 0 37 -13.5t19 -39.5q0 -4 -1 -15.5t-1 -25t-1 -24.5t-1 -17v-72q0 -29 -3 -48.5t-22 -29.5q-10 -6 -22.5 -7t-63.5 -1 q-20 2 -49 1t-49 -1q-4 0 -23.5 2t-23.5 2t-22.5 -1t-24.5 -1q-10 0 -20.5 1t-20.5 1q-6 0 -25.5 -2t-24.5 -2q-18 0 -28 7t-14.5 19.5t-4.5 27z" />
<glyph unicode="&#x2011;" horiz-adv-x="468" d="M14 479.5v28.5v23.5v37v37v25.5q0 41 8.5 64.5t38.5 23.5q8 0 32 -1t32 -1h57h30.5t31.5 -2q14 0 28.5 -1t28.5 -1q6 0 22.5 1t34 2t31.5 2l14 1q18 0 37 -13.5t19 -39.5q0 -4 -1 -15.5t-1 -25t-1 -24.5t-1 -17v-72q0 -29 -3 -48.5t-22 -29.5q-10 -6 -22.5 -7t-63.5 -1 q-20 2 -49 1t-49 -1q-4 0 -23.5 2t-23.5 2t-22.5 -1t-24.5 -1q-10 0 -20.5 1t-20.5 1q-6 0 -25.5 -2t-24.5 -2q-18 0 -28 7t-14.5 19.5t-4.5 27z" />
<glyph unicode="&#x2012;" horiz-adv-x="468" d="M14 479.5v28.5v23.5v37v37v25.5q0 41 8.5 64.5t38.5 23.5q8 0 32 -1t32 -1h57h30.5t31.5 -2q14 0 28.5 -1t28.5 -1q6 0 22.5 1t34 2t31.5 2l14 1q18 0 37 -13.5t19 -39.5q0 -4 -1 -15.5t-1 -25t-1 -24.5t-1 -17v-72q0 -29 -3 -48.5t-22 -29.5q-10 -6 -22.5 -7t-63.5 -1 q-20 2 -49 1t-49 -1q-4 0 -23.5 2t-23.5 2t-22.5 -1t-24.5 -1q-10 0 -20.5 1t-20.5 1q-6 0 -25.5 -2t-24.5 -2q-18 0 -28 7t-14.5 19.5t-4.5 27z" />
<glyph unicode="&#x2013;" horiz-adv-x="854" d="M10 672q0 23 18.5 34t34.5 11q6 0 19.5 -1t29 -1t29 -1t19.5 -1q4 0 16 1t25.5 1t26 1t18.5 1q4 0 23.5 -1t23.5 -1t20.5 1t20.5 1q16 0 31.5 -2t31.5 -2q4 0 22.5 1t22.5 1t23.5 -1t26.5 -1q6 0 30.5 2t32.5 2t35.5 -2t36.5 -2q8 0 30.5 1t48 1t48 1t32.5 1 q18 0 33 -10.5t15 -51.5v-82v-17t1 -27.5t1 -27v-18.5q0 -12 -4.5 -28.5t-26.5 -24.5q-4 -4 -11.5 -4t-33.5 4q-6 0 -27.5 -1t-30.5 -1q-4 0 -21 1t-24 1q-4 0 -16 -1t-16 -1h-25q-4 0 -16.5 -1t-16.5 -1h-20.5t-41 -1t-42 -1h-23.5h-21.5t-32.5 1t-33.5 1h-22.5t-32 1 t-36 1q-4 0 -22.5 -1t-24.5 -1t-28.5 2t-28.5 2q-10 0 -39 -1t-39 -1q-49 0 -57.5 24.5t-8.5 61.5v18.5v37t-1 40t-1 29.5q0 4 -1 16.5t-1 16.5z" />
<glyph unicode="&#x2014;" horiz-adv-x="1150" d="M14 670q0 20 15.5 34.5t40.5 14.5q10 0 38.5 -2t38.5 -2h23.5h37h37h23.5h37t57.5 -1t57 -1h39.5h282.5t284.5 2q6 0 27.5 1t29.5 1q10 0 26.5 -7.5t18.5 -52.5q2 -10 1 -37.5t-1 -37.5v-20.5t1 -31t1 -32v-21.5q0 -23 -12 -37t-35 -14q-6 0 -27.5 2t-27.5 2 q-4 0 -19.5 -1t-19.5 -1t-19.5 1t-19.5 1t-15 -1t-15 -1h-33q-10 0 -18.5 -1t-18.5 -1h-102q-8 0 -38 1t-40 1h-23.5t-23.5 -2q-20 -4 -33 -4q-4 0 -15.5 1t-15.5 1h-139q-14 0 -51 1t-79 1t-80 1t-52 1h-15.5t-25 -1t-24.5 -1h-17q-43 0 -50.5 29.5t-7.5 58.5v76 q0 8 -2 38.5t-2 41.5z" />
<glyph unicode="&#x2018;" horiz-adv-x="342" d="M20 1032.5v40v31.5q0 25 2.5 57.5t12.5 72.5t34.5 87t67.5 100q6 8 11.5 13.5t17.5 8.5t33.5 4t60.5 1q47 0 47 -29q0 -6 -11 -21.5t-22 -25.5q-16 -18 -20 -43.5t-4 -30.5q0 -18 9 -25t13 -9q8 -4 16.5 -5.5t14.5 -5.5q18 -10 21.5 -26.5t3.5 -38.5q0 -6 -1 -20.5 t-1 -32t-1 -33t-1 -21.5t1 -20t1 -31.5t1 -34t1 -22.5t-1 -16.5t-6.5 -20.5t-17.5 -17.5t-33 -7.5q-12 0 -32 4q-18 2 -37 2.5t-37 0.5q-8 0 -39 -1.5t-41 -1.5q-39 0 -48 19.5t-11 30.5q-2 10 -3.5 28.5t-1.5 39z" />
<glyph unicode="&#x2019;" horiz-adv-x="342" d="M12 1163q0 6 1 22.5t1 34t1 34t1 22.5v39.5t-2 40.5q0 6 -1 13t-1 15q0 23 9.5 44.5t46.5 21.5q6 0 12 -1t14 -3q12 -2 28.5 -2h37.5h16t27 2h45q25 0 43 -8t22 -35q2 -4 3 -26.5t2 -49.5t1 -50.5v-29.5q0 -16 -2 -43.5t-11 -65.5t-28.5 -83t-56.5 -94q-25 -31 -31 -37 t-20 -9q-4 0 -18.5 -1t-30 -2t-28.5 -1h-17q-18 0 -30.5 7.5t-12.5 19.5q0 6 4 14q4 12 13 20.5t18 18.5q12 16 17 37t5 31q0 12 -2 18q-6 14 -13 17.5t-24 7.5q-29 6 -34 26.5t-5 34.5z" />
<glyph unicode="&#x201a;" horiz-adv-x="382" d="M29 57q0 6 1 24.5t1 40t1 40t1 26.5q0 4 -1 18.5t-1 30t-1 29t-1 19.5q0 27 7 41t17 21t21.5 8t19.5 1q10 0 39 -2t39 -2q6 0 20.5 1t32 3t31.5 3t20 1q43 0 60.5 -23.5t17.5 -49.5v-193q0 -33 -7 -85t-54 -124q-16 -29 -33.5 -38t-36.5 -9q-6 0 -27.5 1t-27.5 1h-25 q-6 0 -30.5 -1t-30.5 -1q-8 0 -21.5 3t-13.5 20q0 20 6 26.5t19 14.5q12 8 23 19t11 36q0 18 -9 27.5t-13 11.5q-10 4 -19.5 7t-17.5 9q-14 10 -16 22.5t-2 22.5z" />
<glyph unicode="&#x201c;" horiz-adv-x="724" d="M23 1133q0 35 5 62.5t19 64.5q16 47 32.5 79.5t53.5 83.5q14 16 25.5 19.5t52.5 5.5q6 0 28.5 1t28.5 1q25 0 30 -11.5t5 -15.5q0 -8 -3 -13t-15 -19q-23 -27 -30 -54.5t-7 -36.5q0 -27 22 -36q8 -4 17.5 -4t17.5 -5q6 -4 15.5 -16t9.5 -45q0 -6 -1 -29.5t-1 -31.5t1 -30 t2 -46.5t2 -46t1 -29.5q0 -23 -4 -31q-4 -12 -18.5 -24.5t-37.5 -12.5q-8 0 -33.5 3.5t-33.5 3.5h-14.5h-27.5t-29.5 -1t-22.5 -1q-10 -2 -27 -3q-41 0 -53 35q-4 8 -4 22.5t-2 69.5q0 4 -1 17.5t-1 28t-1 27t-1 18.5zM391 1118q0 68 18.5 133.5t82.5 151.5q10 14 17 23.5 t15 13.5t19.5 5t29.5 1q6 0 30 1t30 1t23.5 -3t17.5 -26q0 -10 -19 -30q-23 -25 -30 -51.5t-7 -37.5q0 -18 8.5 -26t16.5 -12t16.5 -5.5t16.5 -5.5q16 -10 18 -27.5t2 -27.5v-19.5t-1 -28.5t-1 -28.5v-19.5t1 -23.5t1 -38t1 -38t1 -25.5t-1 -18.5t-7 -20.5t-19.5 -17.5 t-37.5 -7.5q-6 0 -18.5 1t-28 1t-28.5 1t-19 1q-4 0 -15.5 -1t-25 -1t-24.5 -1t-17 -1q-31 0 -43.5 15.5t-12.5 19.5q-4 10 -5 19.5t-1 33.5q0 6 -1 22.5t-1 36t-1 37t-1 23.5z" />
<glyph unicode="&#x201d;" horiz-adv-x="724" d="M18 1384q0 39 18.5 52.5t47.5 13.5q6 0 20.5 -1t30.5 -1q16 -2 31.5 -3t21.5 -1q10 0 21.5 1t21.5 3q8 0 15.5 1t15.5 1q4 0 13.5 -2t19.5 -9t18.5 -20.5t8.5 -36.5q0 -6 1 -29.5t1 -31.5q0 -4 1 -16.5t1 -25.5t1 -25.5t1 -18.5q0 -10 -1 -23.5t-3 -29.5 q-10 -80 -36 -129t-55 -88q-12 -18 -21 -29.5t-20.5 -16t-28 -5.5t-46.5 -1q-4 0 -16.5 -1t-16.5 -1q-16 0 -27.5 8.5t-11.5 18.5t10 25q4 8 11.5 14t11.5 12q14 18 18 41t4 31q0 25 -22 37q-10 4 -19.5 6t-17.5 6q-12 10 -15 24.5t-3 30.5q0 10 1 41t1 41v51.5t-5 55.5 q0 8 -1 15t-1 15zM385 1382q0 33 18.5 49.5t40.5 16.5q8 0 33 -2t33 -2h47t47 2q6 0 13.5 1t13.5 1q23 0 35 -9t18 -24.5t7 -35t1 -40.5q0 -6 1 -22.5t2 -34.5t2 -35.5t1 -23.5q0 -12 -1 -22.5t-3 -23t-8 -31t-14 -48.5q-12 -47 -34 -83t-38 -59q-18 -25 -25.5 -30.5 t-19.5 -7.5q-18 -4 -36.5 -3.5t-37.5 -1.5q-8 -2 -24 -2t-28.5 7.5t-12.5 19.5q0 4 3 11t7 12q6 8 12 13t11 13q8 12 15 32.5t7 37.5q0 29 -10 34t-29 9q-14 4 -28.5 15t-14.5 59q0 6 1 28.5t1 30.5v19.5v29.5t-1 33.5t-3 30.5q0 10 -1 18t-1 18z" />
<glyph unicode="&#x201e;" horiz-adv-x="724" d="M20 293q0 10 1.5 22.5t8.5 22.5t21.5 16t38.5 6q4 0 16.5 -1t26.5 -2t26.5 -2t18.5 -1q4 0 17.5 1t28 1t26.5 1t18 1t17.5 -3t25.5 -19q10 -14 11.5 -28.5t1.5 -35.5q0 -6 1 -21t1 -32.5t1 -34t1 -22.5q0 -47 -5.5 -85t-17.5 -72t-30.5 -65.5t-43.5 -68.5 q-16 -25 -25 -33t-26 -12q-2 0 -17.5 -1t-32.5 -2t-32.5 -1h-17.5q-35 0 -35 26q0 10 8 23q6 10 13.5 16.5t13.5 14.5q4 10 12 31.5t8 35.5q0 27 -22 39q-10 4 -19.5 6t-17.5 6q-14 10 -16 28t-2 28q0 4 1 17t1 27.5t1 27t1 18.5t-1 24.5t-2 38t-2.5 38t-1.5 26.5z M387 272.5v16.5t1 19t7 22q10 16 23.5 22t27.5 6q6 0 31 -3t33 -3h49t49 2q6 0 12.5 1t12.5 1q23 0 35 -9t17 -21.5t6 -27.5t1 -28q0 -6 1 -24.5t2 -39t2 -38.5t1 -27q0 -20 -3 -43.5t-13 -58.5q-20 -72 -43 -111t-53 -80q-6 -10 -12.5 -15t-19.5 -8t-37.5 -3h-67.5 q-14 0 -22.5 7t-8.5 17t5 18.5t11 14.5q4 6 12 15q14 18 19.5 41.5t5.5 35.5q0 25 -11 30t-24 7q-18 4 -28.5 14.5t-14.5 36.5v19.5v29v29v19.5v48t-4 52q-2 8 -2 16.5z" />
</font>
</defs>
</svg>
